<?xml version="1.0" encoding="utf-8"?>
<!-- Generator: Adobe Illustrator 16.0.0, SVG Export Plug-In . SVG Version: 6.00 Build 0)  -->
<!DOCTYPE svg PUBLIC "-//W3C//DTD SVG 1.1//EN" "http://www.w3.org/Graphics/SVG/1.1/DTD/svg11.dtd">
<svg xmlns="http://www.w3.org/2000/svg" xmlns:xlink="http://www.w3.org/1999/xlink" version="1.1" id="Layer_1" x="0px" y="0px" width="1400px" height="980px" viewBox="0 0 1400 980" enable-background="new 0 0 1400 980" xml:space="preserve">
<g>
	<g>
		<g>
			
		</g>
	</g>
	<g>
		<polygon fill="#7996D8" points="935.4,332.2 701.4,420.3 701.4,787.3 935.4,699.2   "/>
		<path d="M701.4,790.1c-0.6,0-1.1-0.2-1.6-0.5c-0.7-0.5-1.2-1.4-1.2-2.3V420.3c0-1.1,0.7-2.2,1.8-2.6l234-88.1    c0.8-0.3,1.8-0.2,2.5,0.3c0.7,0.5,1.2,1.4,1.2,2.3v367.1c0,1.1-0.7,2.2-1.8,2.6l-234,88.1C702,790,701.7,790.1,701.4,790.1z     M704.1,422.2v361.2l228.5-86V336.1L704.1,422.2z"/>
	</g>
	<g>
		<polygon fill="#6B85BF" points="899.4,392.5 831.1,419.2 831.1,731.4 899.4,695.4   "/>
	</g>
	<g>
		<rect x="1046.5" y="340.1" fill="#E6E7E8" width="232.9" height="38.5"/>
	</g>
	<g>
		<rect x="1046.5" y="448.2" fill="#E6E7E8" width="232.9" height="38.5"/>
	</g>
	<g>
		<g>
			<path d="M1292.8,782.2c-1.5,0-2.8-1.2-2.8-2.8v-60.8c0-77.4-62.9-140.3-140.3-140.3c-77.4,0-140.3,62.9-140.3,140.3v60.8     c0,1.5-1.2,2.8-2.8,2.8c-1.5,0-2.8-1.2-2.8-2.8v-60.8c0-80.4,65.4-145.8,145.8-145.8c80.4,0,145.8,65.4,145.8,145.8v60.8     C1295.6,781,1294.4,782.2,1292.8,782.2z"/>
		</g>
		<g>
			<g>
				<path fill="#808285" d="M1285.1,698.4c-10.9,0-21.1-6.9-24.9-17.8c-16.2-47.1-60.6-78.7-110.4-78.7      c-49.8,0-94.2,31.6-110.4,78.7c-4.7,13.7-19.7,21-33.4,16.3c-13.7-4.7-21-19.7-16.3-33.4c23.5-68.3,87.9-114.2,160.2-114.2      c72.3,0,136.7,45.9,160.2,114.2c4.7,13.7-2.6,28.7-16.3,33.4C1290.8,697.9,1287.9,698.4,1285.1,698.4z"/>
				<path d="M1285.1,701.2c-12.4,0-23.4-7.9-27.5-19.6c-15.8-46-59.1-76.9-107.8-76.9c-48.7,0-92,30.9-107.8,76.9      c-4,11.7-15.1,19.6-27.5,19.6c-3.2,0-6.4-0.5-9.5-1.6c-7.3-2.5-13.3-7.8-16.7-14.7c-3.4-7-3.9-14.9-1.3-22.2      c23.9-69.4,89.3-116.1,162.8-116.1c73.5,0,138.9,46.7,162.8,116.1c5.2,15.2-2.9,31.7-18,36.9      C1291.4,700.6,1288.2,701.2,1285.1,701.2z M1149.8,599.2c51,0,96.4,32.4,113,80.6c4.1,11.9,17.4,18.9,30,14.6      c12.3-4.2,18.8-17.7,14.6-29.9c-23.1-67.2-86.5-112.4-157.6-112.4c-71.1,0-134.4,45.2-157.6,112.4c-2.1,5.9-1.7,12.3,1.1,18      c2.8,5.7,7.6,9.9,13.5,11.9c2.5,0.9,5.1,1.3,7.7,1.3c10,0,19-6.4,22.3-15.9C1053.4,631.5,1098.8,599.2,1149.8,599.2z"/>
			</g>
		</g>
		<g>
			<path fill="#E6E7E8" d="M1006.7,780.3c0-1.1,0.2-2.1,0.3-3.1h-34v83h34c-0.1-1-0.3-2-0.3-3.1V780.3z"/>
			<path d="M1007,863h-34c-1.5,0-2.8-1.2-2.8-2.8v-83c0-1.5,1.2-2.8,2.8-2.8h34c0.8,0,1.5,0.3,2.1,0.9c0.5,0.6,0.8,1.4,0.7,2.1     l-0.1,0.9c-0.1,0.6-0.2,1.2-0.2,1.8v76.9c0,0.6,0.1,1.2,0.2,1.8l0.1,0.9c0.1,0.8-0.2,1.6-0.7,2.2     C1008.6,862.7,1007.8,863,1007,863z M975.8,857.5h28.2c0-0.1,0-0.2,0-0.3v-76.9c0-0.1,0-0.2,0-0.3h-28.2V857.5z"/>
		</g>
		<g>
			<path d="M1044.9,885.6h-12.5c-14.3,0-26.4-10.8-28.1-25l-0.1-0.8c-0.1-0.8-0.2-1.7-0.2-2.6v-76.9c0-0.9,0.1-1.7,0.2-2.6l0.1-0.8     c1.7-14.3,13.8-25,28.1-25h12.5c15.7,0,28.5,12.8,28.5,28.4v76.9C1073.3,872.9,1060.6,885.6,1044.9,885.6z M1032.4,757.4     c-11.5,0-21.2,8.7-22.6,20.2l-0.1,0.9c-0.1,0.6-0.2,1.2-0.2,1.8v76.9c0,0.6,0.1,1.2,0.2,1.8l0.1,0.9     c1.4,11.5,11.1,20.2,22.6,20.2h12.5c12.7,0,23-10.3,23-22.9v-76.9c0-12.6-10.3-22.9-23-22.9H1032.4z"/>
		</g>
		<g>
			<path fill="#E6E7E8" d="M1292.8,780.3c0-1.1-0.2-2.1-0.3-3.1h34v83h-34c0.1-1,0.3-2,0.3-3.1V780.3z"/>
			<path d="M1326.5,863h-34c-0.8,0-1.5-0.3-2-0.9c-0.5-0.6-0.8-1.4-0.7-2.1l0.1-1c0.1-0.6,0.2-1.2,0.2-1.8v-76.9     c0-0.6-0.1-1.2-0.2-1.8l-0.1-1c-0.1-0.8,0.2-1.5,0.7-2.1c0.5-0.6,1.3-0.9,2-0.9h34c1.5,0,2.8,1.2,2.8,2.8v83     C1329.3,861.8,1328.1,863,1326.5,863z M1295.6,857.5h28.2V780h-28.2c0,0.1,0,0.2,0,0.3v76.9     C1295.6,857.3,1295.6,857.4,1295.6,857.5z"/>
		</g>
		<g>
			<path d="M1267.1,885.6h-12.5c-15.7,0-28.5-12.8-28.5-28.4v-76.9c0-15.7,12.8-28.4,28.5-28.4h12.5c14.3,0,26.4,10.8,28.1,25     l0.1,0.9c0.1,0.8,0.2,1.6,0.2,2.5v76.9c0,0.9-0.1,1.7-0.2,2.5l-0.1,0.9C1293.5,874.9,1281.4,885.6,1267.1,885.6z M1254.7,757.4     c-12.7,0-22.9,10.3-22.9,22.9v76.9c0,12.6,10.3,22.9,22.9,22.9h12.5c11.5,0,21.3-8.7,22.7-20.2l0.1-1c0.1-0.6,0.2-1.2,0.2-1.8     v-76.9c0-0.6-0.1-1.2-0.2-1.8l-0.1-1c-1.4-11.5-11.1-20.1-22.7-20.1H1254.7z"/>
		</g>
	</g>
	<g>
		<polygon fill="#7996D8" points="701.4,787.3 467.4,699.2 467.4,332.2 701.4,420.3   "/>
		<path d="M701.4,790.1c-0.3,0-0.7-0.1-1-0.2l-234-88.1c-1.1-0.4-1.8-1.4-1.8-2.6V332.2c0-0.9,0.4-1.7,1.2-2.3    c0.7-0.5,1.7-0.6,2.5-0.3l234,88.1c1.1,0.4,1.8,1.4,1.8,2.6v367.1c0,0.9-0.4,1.7-1.2,2.3C702.5,789.9,701.9,790.1,701.4,790.1z     M470.1,697.3l228.5,86V422.2l-228.5-86V697.3z"/>
	</g>
	<g>
		<path d="M701.4,367.3c-0.3,0-0.7-0.1-1-0.2l-190.1-71.6c-1.4-0.5-2.1-2.1-1.6-3.5c0.5-1.4,2.1-2.2,3.5-1.6l189.2,71.2l189.2-71.2    c1.4-0.6,3,0.2,3.5,1.6c0.5,1.4-0.2,3-1.6,3.5l-190.1,71.6C702,367.2,701.7,367.3,701.4,367.3z"/>
	</g>
	<g>
		<path d="M701.4,318.5c-0.3,0-0.7-0.1-1-0.2L548.1,261c-1.4-0.5-2.1-2.1-1.6-3.5c0.5-1.4,2.1-2.2,3.5-1.6l151.3,57l151.3-57    c1.4-0.5,3,0.2,3.5,1.6c0.5,1.4-0.2,3-1.6,3.5l-152.3,57.3C702,318.5,701.7,318.5,701.4,318.5z"/>
	</g>
	<g>
		<path fill="#FFA189" d="M1016.9,771.2c0,15.7-12.7,28.5-28.5,28.5H859.5c-15.7,0-28.5-12.7-28.5-28.5V642.3    c0-15.7,12.7-28.5,28.5-28.5h128.9c15.7,0,28.5,12.7,28.5,28.5V771.2z"/>
		<path d="M988.4,802.4H859.5c-17.2,0-31.2-14-31.2-31.2V642.3c0-17.2,14-31.2,31.2-31.2h128.9c17.2,0,31.2,14,31.2,31.2v128.9    C1019.6,788.4,1005.6,802.4,988.4,802.4z M859.5,616.6c-14.2,0-25.7,11.5-25.7,25.7v128.9c0,14.2,11.5,25.7,25.7,25.7h128.9    c14.2,0,25.7-11.5,25.7-25.7V642.3c0-14.2-11.5-25.7-25.7-25.7H859.5z"/>
	</g>
	<g>
		<polygon fill="#FFFFFF" points="889.4,658.5 973,706.8 889.4,755   "/>
		<path d="M889.4,757.8c-0.5,0-1-0.1-1.4-0.4c-0.9-0.5-1.4-1.4-1.4-2.4v-96.5c0-1,0.5-1.9,1.4-2.4c0.8-0.5,1.9-0.5,2.8,0l83.6,48.3    c0.8,0.5,1.4,1.4,1.4,2.4c0,1-0.5,1.9-1.4,2.4l-83.6,48.3C890.4,757.7,889.9,757.8,889.4,757.8z M892.2,663.3v87l75.3-43.5    L892.2,663.3z"/>
	</g>
	<g>
		<polygon fill="#FFFFFF" points="645.3,507.3 523.5,461.7 523.5,407.3 645.3,453   "/>
		<path d="M645.3,510.1c-0.3,0-0.7-0.1-1-0.2l-121.8-45.6c-1.1-0.4-1.8-1.4-1.8-2.6v-54.4c0-0.9,0.4-1.7,1.2-2.3    c0.7-0.5,1.7-0.6,2.5-0.3l121.8,45.6c1.1,0.4,1.8,1.4,1.8,2.6v54.4c0,0.9-0.4,1.7-1.2,2.3C646.4,509.9,645.8,510.1,645.3,510.1z     M526.2,459.8l116.3,43.6v-48.5l-116.3-43.6V459.8z"/>
	</g>
	<g>
		<g>
			<path d="M632.9,205.1H605c-6.1,0-11-5-11-11v-38.4c0-6.1,5-11,11-11h27.9c1.5,0,2.8,1.2,2.8,2.8v55     C635.7,203.9,634.4,205.1,632.9,205.1z M605,150.1c-3,0-5.5,2.5-5.5,5.5v38.4c0,3,2.5,5.5,5.5,5.5h25.1v-49.5H605z"/>
		</g>
		<g>
			<path fill="#FFA189" d="M693.9,112.5l-61,35.2v54.2l61,35.2c6.4,3.7,11.6,0.7,11.6-6.7V119.2     C705.5,111.9,700.3,108.9,693.9,112.5z"/>
			<path d="M699,241.5L699,241.5c-2.1,0-4.3-0.7-6.5-1.9l-61-35.2c-0.8-0.5-1.4-1.4-1.4-2.4v-54.2c0-1,0.5-1.9,1.4-2.4l61-35.2     c2.2-1.3,4.4-1.9,6.5-1.9c5.5,0,9.2,4.4,9.2,11v111.3c0,3.2-0.8,5.9-2.4,7.8C704.2,240.3,701.8,241.5,699,241.5z M635.7,200.4     l59.6,34.4c1.4,0.8,2.7,1.2,3.8,1.2l0,0c1.1,0,1.9-0.4,2.5-1.1c0.8-0.9,1.2-2.5,1.2-4.4V119.2c0-1.7-0.4-5.5-3.7-5.5     c-1.1,0-2.4,0.4-3.8,1.2l-59.6,34.4V200.4z"/>
		</g>
		<g>
			<path d="M729.2,237.6c-0.7,0-1.4-0.3-1.9-0.8c-1.1-1.1-1.1-2.8,0-3.9c15.5-15.5,24-36.1,24-58s-8.5-42.5-24-58     c-1.1-1.1-1.1-2.8,0-3.9c1.1-1.1,2.8-1.1,3.9,0c16.5,16.5,25.7,38.5,25.7,61.9c0,23.4-9.1,45.4-25.7,61.9     C730.6,237.3,729.9,237.6,729.2,237.6z"/>
		</g>
		<g>
			<path d="M748.5,256.9c-0.7,0-1.4-0.3-1.9-0.8c-1.1-1.1-1.1-2.8,0-3.9c42.6-42.6,42.6-112.1,0-154.7c-1.1-1.1-1.1-2.8,0-3.9     s2.8-1.1,3.9,0c44.8,44.8,44.8,117.7,0,162.5C749.9,256.6,749.2,256.9,748.5,256.9z"/>
		</g>
		<g>
			<path d="M705.5,198.3c-0.6,0-1.2-0.2-1.7-0.6c-0.6-0.5-1-1.3-1-2.1v-41.4c0-0.8,0.4-1.6,1-2.1c0.6-0.5,1.5-0.7,2.3-0.6     c11.1,2.3,19.1,12.1,19.1,23.4c0,11.3-8,21.2-19.1,23.4C705.8,198.3,705.6,198.3,705.5,198.3z M708.2,157.8v34     c6.8-2.8,11.4-9.5,11.4-17C719.6,167.3,715,160.6,708.2,157.8z"/>
		</g>
	</g>
	<g>
		<g>
			<g>
				<path d="M272.3,460.3c-0.2,0-0.4,0-0.6-0.1l-170.6-39c-8.7-2-16.1-7.3-20.9-14.8c-4.7-7.6-6.3-16.5-4.3-25.2      c2-8.7,7.3-16.1,14.8-20.9c7.6-4.7,16.5-6.3,25.2-4.3l146.7,33.5L399.2,314c1.3-0.7,3-0.3,3.7,1.1c0.7,1.3,0.3,3-1.1,3.7      l-137.5,76.2c-0.6,0.3-1.3,0.4-1.9,0.3l-147.7-33.8c-7.3-1.7-14.8-0.4-21.1,3.6c-6.3,4-10.7,10.2-12.4,17.4      c-1.7,7.3-0.4,14.8,3.6,21.1c4,6.3,10.2,10.7,17.4,12.4l169.5,38.7l129.7-71.9c1.3-0.7,3-0.3,3.7,1.1c0.7,1.3,0.3,3-1.1,3.7      L273.6,460C273.2,460.2,272.7,460.3,272.3,460.3z"/>
			</g>
		</g>
		<g>
			<path fill="#7996D8" d="M400.5,316.4l-142.3-32.5c-18.2-4.1-29.1,2.2-29.1,2.2L95,361.1c0,0,6.8-5.4,19.1-2.6l149,34L400.5,316.4     z"/>
			<path d="M263.1,395.3c-0.2,0-0.4,0-0.6-0.1l-149-34c-6.1-1.4-11.8-0.3-14.4,0.9l-2.7,1.5c-1.3,0.7-2.8,0.3-3.6-0.9     c-0.8-1.2-0.5-2.8,0.6-3.7c0.1-0.1,1.2-1,3.3-1.9l131.3-73.4c0.2-0.1,6.9-4,18.4-4c4.1,0,8.3,0.5,12.6,1.5l142.3,32.5     c1.1,0.3,2,1.2,2.1,2.3c0.2,1.1-0.4,2.2-1.4,2.8l-137.5,76.2C264,395.2,263.5,395.3,263.1,395.3z M111.2,355.2     c1.1,0.1,2.3,0.3,3.4,0.6l148,33.8l130.3-72.2l-135.3-30.9c-3.9-0.9-7.7-1.3-11.4-1.3c-9.9,0-15.6,3.2-15.7,3.3L111.2,355.2z"/>
		</g>
		<g>
			<g>
				<path fill="#FFFFFF" d="M400.1,223.2l-137.5,76.2l-147.7-33.8c-16.5-3.8-33,6.5-36.8,23.1c-3.8,16.5,6.5,33,23.1,36.8l170.6,39      L402.5,292L400.1,223.2"/>
			</g>
		</g>
		<g>
			<g>
				<path d="M271.8,367.1c-0.2,0-0.4,0-0.6-0.1l-170.6-39C82.7,324,71.4,306,75.5,288c2-8.7,7.2-16.1,14.8-20.9      c7.6-4.8,16.5-6.3,25.2-4.3l146.7,33.5l136.6-75.6c1.3-0.7,3-0.3,3.7,1.1c0.7,1.3,0.3,3-1.1,3.7L264,301.7      c-0.6,0.3-1.3,0.4-1.9,0.3l-147.7-33.8c-7.3-1.7-14.8-0.4-21.1,3.6c-6.3,4-10.7,10.2-12.4,17.4c-3.4,15,6,30,21,33.5l169.5,38.8      l129.7-71.9c1.3-0.7,3-0.3,3.7,1.1c0.7,1.3,0.3,3-1.1,3.7l-130.7,72.4C272.8,367,272.3,367.1,271.8,367.1z"/>
			</g>
		</g>
		<g>
			<path fill="#7996D8" d="M400.1,223.2l-142.3-32.5c-18.2-4.1-29.1,2.2-29.1,2.2l-134.2,75c0,0,6.8-5.4,19.1-2.6l149,34     L400.1,223.2z"/>
			<path d="M262.6,302.1c-0.2,0-0.4,0-0.6-0.1l-149-34c-6.1-1.4-11.8-0.3-14.5,0.9l-2.6,1.5c-1.3,0.7-2.8,0.3-3.6-0.9     c-0.8-1.2-0.5-2.8,0.6-3.7c0.1-0.1,1.2-1,3.2-1.9l131.3-73.4c0.2-0.1,6.9-4,18.4-4c4.1,0,8.3,0.5,12.6,1.5l142.3,32.5     c1.1,0.3,2,1.2,2.1,2.3s-0.4,2.2-1.4,2.8L264,301.7C263.5,302,263.1,302.1,262.6,302.1z M110.8,262c1.1,0.1,2.3,0.3,3.5,0.6     l148,33.8l130.3-72.2l-135.3-30.9c-3.9-0.9-7.7-1.3-11.4-1.3c-9.9,0-15.6,3.2-15.7,3.3L110.8,262z"/>
		</g>
		<g>
			<g>
				<path fill="#FFFFFF" d="M400.1,130l-137.5,76.2l-147.7-33.8c-16.5-3.8-33,6.6-36.8,23.1c-3.8,16.5,6.5,33,23.1,36.8l170.6,39      l130.7-72.4L400.1,130"/>
			</g>
		</g>
		<g>
			<g>
				<path d="M271.8,273.9c-0.2,0-0.4,0-0.6-0.1l-170.6-39c-8.7-2-16.1-7.3-20.9-14.8c-4.7-7.6-6.3-16.5-4.3-25.2      c2-8.7,7.2-16.1,14.8-20.9c7.6-4.8,16.5-6.3,25.2-4.3l146.7,33.5l136.6-75.6c1.3-0.7,3-0.3,3.7,1.1c0.7,1.3,0.3,3-1.1,3.7      L264,208.5c-0.6,0.3-1.3,0.4-1.9,0.3l-147.7-33.8c-7.3-1.7-14.8-0.4-21.1,3.6c-6.3,4-10.7,10.2-12.4,17.4      c-1.7,7.3-0.4,14.8,3.6,21.1c4,6.3,10.2,10.7,17.4,12.4l169.5,38.8l129.7-71.9c1.3-0.7,3-0.3,3.7,1.1c0.7,1.3,0.3,3-1.1,3.7      l-130.7,72.4C272.8,273.8,272.3,273.9,271.8,273.9z"/>
			</g>
		</g>
		<g>
			<path fill="#7996D8" d="M400.1,130L257.8,97.5c-18.2-4.2-29.1,2.2-29.1,2.2l-134.2,75c0,0,6.8-5.4,19.1-2.6l149,34L400.1,130z"/>
			<path d="M262.6,208.9c-0.2,0-0.4,0-0.6-0.1l-149-34c-2.1-0.5-4.2-0.7-6.2-0.7c-3.8,0-6.6,0.9-8.3,1.6l-2.6,1.5     c-1.3,0.7-2.8,0.3-3.6-0.9c-0.8-1.2-0.5-2.8,0.6-3.7c0.1-0.1,1.2-0.9,3.2-1.8l131.3-73.5c0.2-0.1,6.9-4,18.4-4     c4.1,0,8.4,0.5,12.6,1.5l142.3,32.5c1.1,0.3,2,1.2,2.1,2.3c0.2,1.1-0.4,2.2-1.4,2.8L264,208.5     C263.5,208.8,263.1,208.9,262.6,208.9z M110.8,168.8c1.1,0.1,2.3,0.3,3.5,0.6l148,33.8L392.5,131l-135.3-30.9     c-3.9-0.9-7.7-1.3-11.4-1.3c-9.9,0-15.6,3.2-15.7,3.2L110.8,168.8z"/>
		</g>
		<g>
			<path d="M345.3,119.9c-0.2,0-0.4,0-0.6-0.1L266.9,102c-1.5-0.3-2.4-1.8-2.1-3.3c0.3-1.5,1.8-2.4,3.3-2.1l77.8,17.8     c1.5,0.3,2.4,1.8,2.1,3.3C347.7,119,346.6,119.9,345.3,119.9z"/>
		</g>
		<g>
			<path d="M328.5,141.6c-0.2,0-0.4,0-0.6-0.1l-77.8-17.8c-1.5-0.3-2.4-1.8-2.1-3.3c0.3-1.5,1.8-2.4,3.3-2.1l77.8,17.8     c1.5,0.3,2.4,1.8,2.1,3.3C330.9,140.7,329.8,141.6,328.5,141.6z"/>
		</g>
		<g>
			<path d="M299.6,153.8c-0.2,0-0.4,0-0.6-0.1L221.2,136c-1.5-0.3-2.4-1.8-2.1-3.3c0.3-1.5,1.8-2.4,3.3-2.1l77.8,17.8     c1.5,0.3,2.4,1.8,2.1,3.3C302,153,300.9,153.8,299.6,153.8z"/>
		</g>
	</g>
	<g>
		<g>
			<path d="M341.5,592.5H127.8c-20.9,0-37.9-17-37.9-37.9c0-20.9,17-37.9,37.9-37.9h213.6c1.5,0,2.8,1.2,2.8,2.8s-1.2,2.8-2.8,2.8     H127.8c-17.9,0-32.4,14.5-32.4,32.4c0,17.9,14.5,32.4,32.4,32.4h213.6c1.5,0,2.8,1.2,2.8,2.8C344.2,591.3,343,592.5,341.5,592.5z     "/>
		</g>
		<g>
			<path fill="#FFA189" d="M127.8,589.8c-19.4,0-35.2-15.8-35.2-35.2v238.8c0,19.4,15.7,35.2,35.2,35.2h213.6v-35.2v-35.2V589.8     H127.8z"/>
			<path d="M341.5,831.3H127.8c-20.9,0-37.9-17-37.9-37.9V554.6c0-1.5,1.2-2.8,2.8-2.8c1.5,0,2.8,1.2,2.8,2.8     c0,17.9,14.5,32.4,32.4,32.4h213.6c1.5,0,2.8,1.2,2.8,2.8v238.8C344.2,830,343,831.3,341.5,831.3z M95.4,574.2v219.1     c0,17.9,14.5,32.4,32.4,32.4h210.9V592.5H127.8C114.1,592.5,102.1,585.2,95.4,574.2z"/>
		</g>
		<g>
			<g>
				<path fill="#FFFFFF" d="M325.5,819.7c-25.1,0-45.5-20.4-45.5-45.5c0-25.1,20.4-45.5,45.5-45.5c12.6,0,23.9,5.1,32.2,13.3      l53.4-53.4c-21.9-21.9-52.1-35.4-85.5-35.4c-66.8,0-120.9,54.2-120.9,120.9c0,66.8,54.1,121,120.9,121s121-54.2,121-121H371      C371,799.3,350.6,819.7,325.5,819.7z"/>
				<path d="M325.5,897.9c-68.2,0-123.7-55.5-123.7-123.7c0-68.2,55.5-123.7,123.7-123.7c33,0,64.1,12.9,87.5,36.2      c1.1,1.1,1.1,2.8,0,3.9L359.6,744c-0.5,0.5-1.2,0.8-1.9,0.8l0,0c-0.7,0-1.4-0.3-1.9-0.8c-8.1-8.1-18.8-12.5-30.2-12.5      c-23.6,0-42.7,19.2-42.7,42.7s19.2,42.7,42.7,42.7c23.6,0,42.7-19.2,42.7-42.7c0-1.5,1.2-2.8,2.8-2.8h75.5      c1.5,0,2.8,1.2,2.8,2.8C449.2,842.4,393.7,897.9,325.5,897.9z M325.5,656c-65.2,0-118.2,53-118.2,118.2      c0,65.2,53,118.2,118.2,118.2c64.3,0,116.7-51.5,118.2-115.5h-70c-1.4,25.3-22.5,45.5-48.2,45.5c-26.6,0-48.3-21.6-48.3-48.3      s21.6-48.3,48.3-48.3c12,0,23.3,4.3,32.1,12.2l49.5-49.5C385,667.6,356.1,656,325.5,656z"/>
			</g>
			<g>
				<path fill="#E6E7E8" d="M411,688.6L357.6,742c8.2,8.2,13.3,19.6,13.3,32.2h75.5C446.4,740.8,432.9,710.5,411,688.6z"/>
				<path d="M446.4,776.9H371c-1.5,0-2.8-1.2-2.8-2.8c0-11.4-4.4-22.1-12.5-30.2c-0.5-0.5-0.8-1.2-0.8-1.9s0.3-1.4,0.8-1.9      l53.4-53.4c1.1-1.1,2.8-1.1,3.9,0c23.4,23.4,36.2,54.4,36.2,87.5C449.2,775.7,447.9,776.9,446.4,776.9z M373.6,771.4h70      c-0.7-29.6-12.2-57.4-32.7-78.9l-49.5,49.5C368.8,750.2,373,760.5,373.6,771.4z"/>
			</g>
			<g>
				<path fill="#808285" d="M357.6,742c-8.2-8.2-19.6-13.3-32.2-13.3c-25.1,0-45.5,20.4-45.5,45.5c0,25.1,20.4,45.5,45.5,45.5      c25.1,0,45.5-20.4,45.5-45.5C371,761.6,365.9,750.2,357.6,742z M325.5,793c-10.4,0-18.9-8.5-18.9-18.9s8.4-18.9,18.9-18.9      c5.2,0,9.9,2.1,13.3,5.5c3.4,3.4,5.5,8.1,5.5,13.3C344.3,784.6,335.9,793,325.5,793z"/>
				<path d="M325.5,822.4c-26.6,0-48.3-21.6-48.3-48.3s21.6-48.3,48.3-48.3c12.9,0,25,5,34.1,14.1c9.1,9.1,14.1,21.2,14.1,34.1      C373.7,800.8,352.1,822.4,325.5,822.4z M325.5,731.4c-23.6,0-42.7,19.2-42.7,42.7s19.2,42.7,42.7,42.7      c23.6,0,42.7-19.2,42.7-42.7c0-11.4-4.4-22.1-12.5-30.2C347.6,735.9,336.9,731.4,325.5,731.4z M325.5,795.8      c-11.9,0-21.6-9.7-21.6-21.6c0-11.9,9.7-21.6,21.6-21.6c5.8,0,11.2,2.2,15.3,6.3c4.1,4.1,6.3,9.5,6.3,15.3      C347.1,786.1,337.4,795.8,325.5,795.8z M325.5,758.1c-8.9,0-16.1,7.2-16.1,16.1c0,8.9,7.2,16.1,16.1,16.1      c8.9,0,16.1-7.2,16.1-16.1c0-4.3-1.7-8.3-4.7-11.4C333.8,759.7,329.8,758.1,325.5,758.1z"/>
			</g>
			<g>
				<path fill="#FFFFFF" d="M338.8,760.8c-3.4-3.4-8.1-5.5-13.3-5.5c-10.4,0-18.9,8.4-18.9,18.9S315,793,325.5,793      c10.4,0,18.9-8.5,18.9-18.9C344.3,769,342.2,764.3,338.8,760.8z"/>
				<path d="M325.5,795.8c-11.9,0-21.6-9.7-21.6-21.6c0-11.9,9.7-21.6,21.6-21.6c5.8,0,11.2,2.2,15.3,6.3c4.1,4.1,6.3,9.5,6.3,15.3      C347.1,786.1,337.4,795.8,325.5,795.8z M325.5,758.1c-8.9,0-16.1,7.2-16.1,16.1c0,8.9,7.2,16.1,16.1,16.1      c8.9,0,16.1-7.2,16.1-16.1c0-4.3-1.7-8.3-4.7-11.4C333.8,759.7,329.8,758.1,325.5,758.1z"/>
			</g>
		</g>
		<g>
			<path d="M283.1,642.5H168.7c-1.5,0-2.8-1.2-2.8-2.8c0-1.5,1.2-2.8,2.8-2.8h114.4c1.5,0,2.8,1.2,2.8,2.8     C285.8,641.2,284.6,642.5,283.1,642.5z"/>
		</g>
		<g>
			<path d="M252.5,680.5h-83.8c-1.5,0-2.8-1.2-2.8-2.8c0-1.5,1.2-2.8,2.8-2.8h83.8c1.5,0,2.8,1.2,2.8,2.8     C255.2,679.3,254,680.5,252.5,680.5z"/>
		</g>
	</g>
	<g>
		<path d="M1285.9,489.4h-233.7c-22.7,0-41.2-18.5-41.2-41.2c0-22.7,18.5-41.2,41.2-41.2h233.7c1.5,0,2.8,1.2,2.8,2.8    s-1.2,2.8-2.8,2.8h-233.7c-19.7,0-35.7,16-35.7,35.7c0,19.7,16,35.7,35.7,35.7h233.7c1.5,0,2.8,1.2,2.8,2.8    C1288.6,488.2,1287.4,489.4,1285.9,489.4z"/>
	</g>
	<g>
		<path d="M1285.9,381.4h-233.7c-22.7,0-41.2-18.5-41.2-41.2s18.5-41.2,41.2-41.2h233.7c1.5,0,2.8,1.2,2.8,2.8    c0,1.5-1.2,2.8-2.8,2.8h-233.7c-19.7,0-35.7,16-35.7,35.7c0,19.7,16,35.7,35.7,35.7h233.7c1.5,0,2.8,1.2,2.8,2.8    C1288.6,380.1,1287.4,381.4,1285.9,381.4z"/>
	</g>
	<g>
		<g>
			<g>
				<path fill="#FFA189" d="M1185.8,138.1c-9-1-17.8,2.1-25.6,8.2c-8.5,5-16.9,2-20.6,0.1c-7.8-6.2-16.7-9.4-25.8-8.4      c-24.6,2.8-41,35-36.8,71.8c4.2,36.8,27.6,64.4,52.1,61.6c2.4-0.3,4.7-0.9,7-1.8c2.8-1,5.5-2.5,8.1-4.3      c3.1-0.9,6.9-1.3,11.1-0.2c4.6,3.4,9.7,5.6,15.3,6.3c24.6,2.8,47.9-24.7,52.1-61.6C1226.8,173.1,1210.4,140.9,1185.8,138.1z"/>
				<path d="M1174,274.4L1174,274.4c-1.3,0-2.5-0.1-3.8-0.2c-5.7-0.6-11.1-2.8-16.2-6.5c-2.9-0.7-5.8-0.6-8.7,0.2      c-2.6,1.8-5.4,3.3-8.3,4.4c-2.9,1-5.3,1.6-7.6,1.9c-26.4,3-50.8-25.6-55.2-64c-2.1-18.4,0.7-36.2,7.9-50.2      c7.4-14.4,18.5-23.2,31.3-24.6c9.5-1.1,19.1,2.1,27.8,8.9c1.3,0.6,4.7,2.1,8.9,2.1c3.1,0,6-0.8,8.6-2.4      c8.3-6.6,17.8-9.7,27.3-8.6c12.8,1.5,23.9,10.2,31.3,24.6c7.2,14,10,31.9,7.9,50.2C1221.2,246.8,1199.1,274.4,1174,274.4z       M1150,261.8c2,0,4,0.3,5.9,0.8c0.3,0.1,0.7,0.2,0.9,0.4c4.4,3.3,9.1,5.2,14,5.7c23.2,2.7,45.1-24.3,49.1-59.2      c2-17.3-0.6-34-7.3-47.1c-6.5-12.7-16.1-20.4-27.1-21.7c-8.1-1-16.1,1.8-23.6,7.7c-3.8,2.3-7.7,3.4-11.7,3.4      c-5.3,0-9.7-1.9-11.9-3c-8.1-6.3-16.2-9-24.2-8.1c-10.9,1.2-20.5,8.9-27.1,21.7c-6.7,13.1-9.3,29.8-7.3,47.1      c4,34.9,25.9,61.9,49.1,59.2c1.9-0.2,3.9-0.7,6.3-1.6c2.6-0.9,5-2.3,7.4-4c0.2-0.2,0.5-0.3,0.8-0.4      C1145.5,262.1,1147.7,261.8,1150,261.8z"/>
			</g>
			<g>
				<path d="M1149.7,137.1c-0.2,0-0.5,0-0.7-0.1c-0.5-0.1-11.7-3.1-17.1-14.2c-4.4-9.1-3.6-20.6,2.3-34.3c0.3-0.7,0.9-1.3,1.7-1.5      c0.7-0.2,1.6-0.2,2.2,0.2c1,0.6,24.9,14.4,25.3,30.7c0.2,7.1-3.9,13.4-12.3,18.7C1150.7,137,1150.2,137.1,1149.7,137.1z       M1138.1,93.7c-4.2,10.8-4.6,19.8-1.2,26.7c3.4,7,9.8,10,12.4,10.9c5.9-4,8.8-8.5,8.7-13.3      C1157.7,108.4,1145.3,98.4,1138.1,93.7z"/>
			</g>
		</g>
		<g>
			<path d="M1095.1,190.7c-0.1,0-0.2,0-0.3,0c-1.5-0.2-2.6-1.6-2.4-3.1c3.2-25.6,18.5-33.7,19.1-34c1.3-0.7,3-0.2,3.7,1.2     c0.7,1.3,0.2,3-1.2,3.7c-0.6,0.3-13.4,7.3-16.2,29.8C1097.7,189.7,1096.5,190.7,1095.1,190.7z"/>
		</g>
	</g>
	<g>
		<path d="M1279.4,327.9h-212.9c-1.5,0-2.8-1.2-2.8-2.8c0-1.5,1.2-2.8,2.8-2.8h212.9c1.5,0,2.8,1.2,2.8,2.8    C1282.1,326.7,1280.9,327.9,1279.4,327.9z"/>
	</g>
	<g>
		<path d="M1279.4,357.8h-212.9c-1.5,0-2.8-1.2-2.8-2.8c0-1.5,1.2-2.8,2.8-2.8h212.9c1.5,0,2.8,1.2,2.8,2.8    C1282.1,356.6,1280.9,357.8,1279.4,357.8z"/>
	</g>
	<g>
		<path d="M1279.4,436h-212.9c-1.5,0-2.8-1.2-2.8-2.8c0-1.5,1.2-2.8,2.8-2.8h212.9c1.5,0,2.8,1.2,2.8,2.8    C1282.1,434.8,1280.9,436,1279.4,436z"/>
	</g>
	<g>
		<path d="M1279.4,465.8h-212.9c-1.5,0-2.8-1.2-2.8-2.8s1.2-2.8,2.8-2.8h212.9c1.5,0,2.8,1.2,2.8,2.8S1280.9,465.8,1279.4,465.8z"/>
	</g>
	<g>
		<path d="M584.4,802.4h-60.9c-1.5,0-2.8-1.2-2.8-2.8c0-1.5,1.2-2.8,2.8-2.8h60.9c1.5,0,2.8,1.2,2.8,2.8    C587.1,801.2,585.9,802.4,584.4,802.4z"/>
	</g>
	<g>
		<path d="M701.4,855.5H553.9c-1.5,0-2.8-1.2-2.8-2.8c0-1.5,1.2-2.8,2.8-2.8h147.5c1.5,0,2.8,1.2,2.8,2.8    C704.1,854.3,702.9,855.5,701.4,855.5z"/>
	</g>
	<g>
		<path d="M881.8,855.5H754c-1.5,0-2.8-1.2-2.8-2.8c0-1.5,1.2-2.8,2.8-2.8h127.8c1.5,0,2.8,1.2,2.8,2.8    C884.5,854.3,883.3,855.5,881.8,855.5z"/>
	</g>
	<g>
		<path d="M802.9,802.4h-37.9c-1.5,0-2.8-1.2-2.8-2.8c0-1.5,1.2-2.8,2.8-2.8h37.9c1.5,0,2.8,1.2,2.8,2.8    C805.6,801.2,804.4,802.4,802.9,802.4z"/>
	</g>
	<g>
		<g>
			<path d="M934.8,226.5c-0.7,0-1.4-0.3-1.9-0.8l-35.3-35.3c-1.1-1.1-1.1-2.8,0-3.9c1.1-1.1,2.8-1.1,3.9,0l35.3,35.3     c1.1,1.1,1.1,2.8,0,3.9C936.2,226.3,935.5,226.5,934.8,226.5z"/>
		</g>
		<g>
			<path d="M899.4,226.5c-0.7,0-1.4-0.3-1.9-0.8c-1.1-1.1-1.1-2.8,0-3.9l35.3-35.3c1.1-1.1,2.8-1.1,3.9,0c1.1,1.1,1.1,2.8,0,3.9     l-35.3,35.3C900.8,226.3,900.1,226.5,899.4,226.5z"/>
		</g>
	</g>
	<g>
		<path d="M988,274.3c-11.1,0-20.2-9-20.2-20.2c0-11.1,9-20.1,20.2-20.1c11.1,0,20.1,9,20.1,20.1    C1008.1,265.3,999.1,274.3,988,274.3z M988,239.5c-8.1,0-14.6,6.6-14.6,14.6c0,8.1,6.6,14.6,14.6,14.6c8.1,0,14.6-6.6,14.6-14.6    C1002.6,246.1,996,239.5,988,239.5z"/>
	</g>
	<g>
		<path d="M493.8,243.3c-11.1,0-20.1-9-20.1-20.1c0-11.1,9-20.2,20.1-20.2c11.1,0,20.2,9,20.2,20.2C514,234.3,505,243.3,493.8,243.3    z M493.8,208.5c-8.1,0-14.6,6.6-14.6,14.6c0,8.1,6.6,14.6,14.6,14.6c8.1,0,14.6-6.6,14.6-14.6    C508.5,215.1,501.9,208.5,493.8,208.5z"/>
	</g>
	<g>
		<path d="M493.8,174.7h-30.5c-1.5,0-2.8-1.2-2.8-2.8c0-1.5,1.2-2.8,2.8-2.8h30.5c1.5,0,2.8,1.2,2.8,2.8    C496.6,173.5,495.4,174.7,493.8,174.7z"/>
	</g>
	<g>
		<path d="M1013.7,158.8h-30.5c-1.5,0-2.8-1.2-2.8-2.8c0-1.5,1.2-2.8,2.8-2.8h30.5c1.5,0,2.8,1.2,2.8,2.8    C1016.5,157.6,1015.2,158.8,1013.7,158.8z"/>
	</g>
	<g>
		<path d="M549.1,132.7h-25.6c-1.5,0-2.8-1.2-2.8-2.8c0-1.5,1.2-2.8,2.8-2.8h25.6c1.5,0,2.8,1.2,2.8,2.8    C551.8,131.5,550.6,132.7,549.1,132.7z"/>
	</g>
	<g>
		<path d="M590.8,519.9c-0.3,0-0.6-0.1-1-0.2l-66-24.7c-1.4-0.5-2.1-2.1-1.6-3.5c0.5-1.4,2.1-2.2,3.5-1.6l66,24.7    c1.4,0.5,2.1,2.1,1.6,3.5C593,519.2,591.9,519.9,590.8,519.9z"/>
	</g>
	<g>
		<path d="M590.8,549.2c-0.3,0-0.6-0.1-1-0.2l-66-24.7c-1.4-0.5-2.1-2.1-1.6-3.5c0.5-1.4,2.1-2.2,3.5-1.6l66,24.7    c1.4,0.5,2.1,2.1,1.6,3.5C593,548.5,591.9,549.2,590.8,549.2z"/>
	</g>
</g>
</svg>
