<?xml version="1.0" encoding="utf-8"?>
<!-- Generator: Adobe Illustrator 16.0.0, SVG Export Plug-In . SVG Version: 6.00 Build 0)  -->
<!DOCTYPE svg PUBLIC "-//W3C//DTD SVG 1.1//EN" "http://www.w3.org/Graphics/SVG/1.1/DTD/svg11.dtd">
<svg xmlns="http://www.w3.org/2000/svg" xmlns:xlink="http://www.w3.org/1999/xlink" version="1.1" id="Layer_1" x="0px" y="0px" width="1400px" height="1568px" viewBox="0 0 1400 1568" enable-background="new 0 0 1400 1568" xml:space="preserve">
<g>
	<g>
		
	</g>
	<g>
		<path fill="#E6E7E8" d="M1374.1,416.4c0,38.6-31.3,69.8-69.8,69.8H796.7c-38.5,0-69.8-31.3-69.8-69.8l0,0    c0-38.6,31.3-69.8,69.8-69.8h507.5C1342.8,346.6,1374.1,377.8,1374.1,416.4L1374.1,416.4z"/>
	</g>
	<g>
		<path fill="#E6E7E8" d="M1215.4,1303.3c0,63-51.1,114-114,114c-63,0-114-51.1-114-114s51-114,114-114    C1164.4,1189.3,1215.4,1240.4,1215.4,1303.3z"/>
	</g>
	<g>
		<path fill="#FF8A78" d="M551.1,215.7l-11.4-11.3c-5.1-5.1-10.7-9.5-16.6-13.2c-10.7-6.8-22.4-11.2-34.4-13.4    c-29.9-5.4-61.9,3.5-85,26.6l-17.9,17.9l-17.9-17.9c-23.1-23.1-55.1-32-85-26.6c-12.1,2.2-23.8,6.6-34.4,13.4    c-5.9,3.7-11.5,8.1-16.6,13.2l-11.3,11.3c-37.6,37.5-37.6,98.5,0,136l17.9,17.9l147.3,147.3l147.4-147.3l17.9-17.9    C588.6,314.1,588.6,253.2,551.1,215.7z"/>
		<path d="M385.8,523.7c-1.7,0-3.5-0.7-4.8-2L215.7,356.5c-19.5-19.4-30.2-45.3-30.2-72.8s10.7-53.4,30.2-72.8l11.3-11.3    c5.2-5.2,11.2-10,17.8-14.2c11.3-7.2,23.7-12,36.9-14.3c33-5.9,67.3,4.8,91,28.5l13.1,13.1l13.1-13.1c23.7-23.7,58-34.4,91-28.5    c13.2,2.4,25.6,7.2,36.8,14.3c6.6,4.2,12.5,8.9,17.8,14.2l11.4,11.3c40.1,40.1,40.1,105.5,0,145.7L390.6,521.7    C389.3,523.1,387.5,523.7,385.8,523.7z M299.9,183c-5.3,0-10.6,0.5-15.9,1.4c-11.4,2-22.2,6.2-32,12.4    c-5.7,3.6-10.9,7.8-15.4,12.3l-11.3,11.3c-16.9,16.9-26.2,39.3-26.2,63.2s9.3,46.3,26.2,63.2l160.4,160.4l160.5-160.4    c34.8-34.9,34.8-91.5,0-126.4l-11.4-11.3c-4.5-4.5-9.7-8.7-15.4-12.3c-9.8-6.2-20.5-10.4-32-12.4c-28.6-5.1-58.4,4.1-79,24.7    l-17.9,17.9c-2.6,2.6-7.1,2.6-9.7,0l-17.9-17.9C346.2,192.3,323.8,183,299.9,183z"/>
	</g>
	<g>
		<path fill="#231F20" d="M385.8,606.3c-149.8,0-271.7-121.8-271.7-271.6C114.1,184.9,236,63,385.8,63    c149.8,0,271.6,121.9,271.6,271.6C657.4,484.4,535.6,606.3,385.8,606.3z M385.8,76.7c-142.3,0-258,115.7-258,258    c0,142.2,115.7,258,258,258c142.3,0,258-115.7,258-258C643.8,192.4,528,76.7,385.8,76.7z"/>
	</g>
	<g>
		<path fill="#FFFFFF" d="M159.8,334.6c0,21.4-17.4,38.8-38.8,38.8c-21.4,0-38.8-17.4-38.8-38.8c0-21.4,17.4-38.8,38.8-38.8    C142.4,295.8,159.8,313.2,159.8,334.6z"/>
		<path fill="#231F20" d="M121,380.3c-25.2,0-45.6-20.5-45.6-45.6c0-25.2,20.5-45.6,45.6-45.6c25.2,0,45.6,20.5,45.6,45.6    C166.6,359.8,146.1,380.3,121,380.3z M121,302.7c-17.6,0-32,14.3-32,32c0,17.6,14.3,32,32,32c17.6,0,32-14.3,32-32    C152.9,317,138.6,302.7,121,302.7z"/>
	</g>
	<g>
		<path fill="#FFFFFF" d="M689.4,334.6c0,21.4-17.4,38.8-38.8,38.8c-21.5,0-38.8-17.4-38.8-38.8c0-21.4,17.4-38.8,38.8-38.8    C672,295.8,689.4,313.2,689.4,334.6z"/>
		<path fill="#231F20" d="M650.6,380.3c-25.2,0-45.6-20.5-45.6-45.6c0-25.2,20.5-45.6,45.6-45.6c25.2,0,45.6,20.5,45.6,45.6    C696.2,359.8,675.8,380.3,650.6,380.3z M650.6,302.7c-17.6,0-32,14.3-32,32c0,17.6,14.4,32,32,32c17.6,0,32-14.3,32-32    C682.6,317,668.2,302.7,650.6,302.7z"/>
	</g>
	<g>
		<path fill="#FFFFFF" d="M424.6,599.4c0,21.4-17.4,38.8-38.8,38.8c-21.5,0-38.8-17.4-38.8-38.8s17.4-38.8,38.8-38.8    C407.2,560.6,424.6,578,424.6,599.4z"/>
		<path fill="#231F20" d="M385.8,645.1c-25.2,0-45.6-20.5-45.6-45.6c0-25.2,20.5-45.6,45.6-45.6c25.2,0,45.6,20.5,45.6,45.6    C431.4,624.6,411,645.1,385.8,645.1z M385.8,567.5c-17.6,0-32,14.3-32,32c0,17.6,14.4,32,32,32s32-14.3,32-32    C417.8,581.8,403.4,567.5,385.8,567.5z"/>
	</g>
	<g>
		<path fill="#231F20" d="M377.1,419.4c-0.1,0-0.2,0-0.4,0c-3-0.2-5.6-2.3-6.3-5.2l-37.9-154.7l-22.2,77c-0.8,2.9-3.5,4.9-6.6,4.9    H159.8c-3.8,0-6.8-3.1-6.8-6.8c0-3.8,3.1-6.8,6.8-6.8h139l27.9-96.6c0.8-3,3.5-4.7,6.7-4.9c3.1,0.1,5.8,2.2,6.5,5.2l38.6,157.6    l32.4-89.6c1-2.7,3.5-4.5,6.3-4.5c2.5,0.1,5.4,1.7,6.5,4.3l31.5,80.2l24.9-48.1c1.2-2.3,3.5-3.7,6.1-3.7h125.8    c3.8,0,6.8,3.1,6.8,6.8c0,3.8-3.1,6.8-6.8,6.8H490.2l-29.9,57.7c-1.2,2.4-3.7,3.9-6.4,3.7c-2.7-0.1-5-1.8-6-4.3l-30.3-77.4    l-33.9,93.8C382.6,417.7,380,419.4,377.1,419.4z"/>
	</g>
	<g>
		<g>
			<g>
				<path d="M762.4,1424.2H473.5c-1.5,0-2.9-0.5-4.1-1.4l-202.8-151.5c-2.2-1.6-3.2-4.4-2.6-7l41.1-177.9c0.6-2.5,2.5-4.5,5-5.1      c2.4-0.6,5.1,0.2,6.8,2.2l23.7,27.7h139.5c2.4,0,4.7,1.3,5.9,3.4l123.4,213c7.1-0.5,14.1-0.7,20.8-0.7      c128.2,0,138.8,88.9,138.9,89.8c0.2,1.9-0.4,3.8-1.7,5.3C766.2,1423.4,764.3,1424.2,762.4,1424.2z M475.8,1410.5H754      c-5.4-19.6-28.7-70-123.7-70c-7.7,0-15.7,0.3-24,1c-2.5,0.2-5.1-1.1-6.5-3.4l-123.5-213.3H337.6c-2,0-3.9-0.9-5.2-2.4l-17-19.8      l-37,160.4L475.8,1410.5z"/>
			</g>
			<g>
				<polygon fill="#FF8A78" points="473.5,1417.4 270.8,1265.9 260.3,1311.2 472.7,1465.6 762.4,1465.6 762.4,1417.4     "/>
				<path d="M762.4,1472.5H472.7c-1.4,0-2.9-0.5-4-1.3l-212.4-154.5c-2.2-1.6-3.3-4.4-2.6-7.1l10.5-45.3c0.5-2.2,2.1-4.1,4.3-4.9      c2.1-0.8,4.6-0.4,6.4,0.9l201,150.1h286.6c3.8,0,6.8,3.1,6.8,6.8v48.3C769.2,1469.4,766.2,1472.5,762.4,1472.5z M474.9,1458.8      h280.6v-34.6h-282c-1.5,0-2.9-0.5-4.1-1.4L275,1277.6l-7.1,30.7L474.9,1458.8z"/>
			</g>
		</g>
		<g>
			<path d="M516.6,1187.6h-88.9c-3.8,0-6.8-3.1-6.8-6.8s3.1-6.8,6.8-6.8h88.9c3.8,0,6.8,3.1,6.8,6.8S520.4,1187.6,516.6,1187.6z"/>
		</g>
		<g>
			<path d="M541.3,1229.2h-88.9c-3.8,0-6.8-3.1-6.8-6.8s3.1-6.8,6.8-6.8h88.9c3.8,0,6.8,3.1,6.8,6.8S545,1229.2,541.3,1229.2z"/>
		</g>
		<g>
			<path d="M565.9,1270.8H477c-3.8,0-6.8-3.1-6.8-6.8c0-3.8,3.1-6.8,6.8-6.8h88.9c3.8,0,6.8,3.1,6.8,6.8     C572.8,1267.7,569.7,1270.8,565.9,1270.8z"/>
		</g>
		<g>
			<path d="M260.3,1318H119.8c-3.8,0-6.8-3.1-6.8-6.8s3.1-6.8,6.8-6.8h140.5c3.8,0,6.8,3.1,6.8,6.8S264.1,1318,260.3,1318z"/>
		</g>
		<g>
			<path d="M357.3,1388.5h-97c-3.8,0-6.8-3.1-6.8-6.8s3.1-6.8,6.8-6.8h97c3.8,0,6.8,3.1,6.8,6.8S361,1388.5,357.3,1388.5z"/>
		</g>
		<g>
			<path d="M222.8,1388.5h-54.7c-3.8,0-6.8-3.1-6.8-6.8s3.1-6.8,6.8-6.8h54.7c3.8,0,6.8,3.1,6.8,6.8S226.5,1388.5,222.8,1388.5z"/>
		</g>
		<g>
			<path d="M124.1,1388.5H73.7c-3.8,0-6.8-3.1-6.8-6.8s3.1-6.8,6.8-6.8h50.4c3.8,0,6.8,3.1,6.8,6.8S127.8,1388.5,124.1,1388.5z"/>
		</g>
		<g>
			<path d="M450.6,1455.5h-97c-3.8,0-6.8-3.1-6.8-6.8c0-3.8,3.1-6.8,6.8-6.8h97c3.8,0,6.8,3.1,6.8,6.8     C457.4,1452.5,454.4,1455.5,450.6,1455.5z"/>
		</g>
		<g>
			<path d="M316.1,1455.5h-54.7c-3.8,0-6.8-3.1-6.8-6.8c0-3.8,3.1-6.8,6.8-6.8h54.7c3.8,0,6.8,3.1,6.8,6.8     C322.9,1452.5,319.9,1455.5,316.1,1455.5z"/>
		</g>
		<g>
			<path d="M217.4,1455.5H167c-3.8,0-6.8-3.1-6.8-6.8c0-3.8,3.1-6.8,6.8-6.8h50.4c3.8,0,6.8,3.1,6.8,6.8     C224.2,1452.5,221.2,1455.5,217.4,1455.5z"/>
		</g>
	</g>
	<g>
		<rect x="987.4" y="626.4" fill="#FFFFFF" width="228" height="318.5"/>
		<path d="M1215.4,951.7h-228c-3.8,0-6.8-3.1-6.8-6.8V626.4c0-3.8,3.1-6.8,6.8-6.8h228c3.8,0,6.8,3.1,6.8,6.8v318.5    C1222.3,948.7,1219.2,951.7,1215.4,951.7z M994.2,938.1h214.4V633.2H994.2V938.1z"/>
	</g>
	<g>
		<rect x="1034.3" y="579.5" fill="#76EB9A" width="228" height="318.5"/>
		<path d="M1262.4,904.8h-228c-3.8,0-6.8-3.1-6.8-6.8V579.5c0-3.8,3.1-6.8,6.8-6.8h228c3.8,0,6.8,3.1,6.8,6.8V898    C1269.2,901.8,1266.2,904.8,1262.4,904.8z M1041.2,891.2h214.4V586.3h-214.4V891.2z"/>
	</g>
	<g>
		<rect x="1081.3" y="532.5" fill="#FFFFFF" width="228" height="318.5"/>
		<path d="M1309.3,857.9h-228c-3.8,0-6.8-3.1-6.8-6.8V532.5c0-3.8,3.1-6.8,6.8-6.8h228c3.8,0,6.8,3.1,6.8,6.8v318.5    C1316.1,854.8,1313.1,857.9,1309.3,857.9z M1088.1,844.2h214.4V539.4h-214.4V844.2z"/>
	</g>
	<g>
		<path d="M1183.2,772.6c-0.1,0-0.1,0-0.2,0c-2.6-0.1-4.9-1.6-6-3.9l-43.4-90.9c-1.6-3.4-0.2-7.5,3.2-9.1c3.4-1.6,7.5-0.2,9.1,3.2    l37.6,78.8l72.8-136.1c1.8-3.3,5.9-4.6,9.2-2.8c3.3,1.8,4.6,5.9,2.8,9.2l-79.2,148C1188,771.2,1185.7,772.6,1183.2,772.6z"/>
	</g>
	<g>
		<path d="M1081.3,1485.7c-107.8,0-195.5-87.7-195.5-195.5c0-107.8,87.7-195.5,195.5-195.5c107.8,0,195.5,87.7,195.5,195.5    C1276.8,1398,1189.1,1485.7,1081.3,1485.7z M1081.3,1108.3c-100.3,0-181.9,81.6-181.9,181.9c0,100.3,81.6,181.9,181.9,181.9    c100.3,0,181.9-81.6,181.9-181.9C1263.2,1189.9,1181.6,1108.3,1081.3,1108.3z"/>
	</g>
	<g>
		<path fill="#3DCAFF" d="M1123.2,1290.2c0,23.2-18.8,41.9-41.9,41.9c-23.1,0-41.9-18.8-41.9-41.9c0-23.2,18.8-41.9,41.9-41.9    C1104.5,1248.2,1123.2,1267,1123.2,1290.2z"/>
		<path d="M1081.3,1338.9c-26.9,0-48.7-21.9-48.7-48.7c0-26.9,21.9-48.8,48.7-48.8c26.9,0,48.8,21.9,48.8,48.8    C1130,1317.1,1108.2,1338.9,1081.3,1338.9z M1081.3,1255.1c-19.3,0-35.1,15.8-35.1,35.1c0,19.3,15.7,35.1,35.1,35.1    c19.4,0,35.1-15.7,35.1-35.1C1116.4,1270.8,1100.6,1255.1,1081.3,1255.1z"/>
	</g>
	<g>
		<path d="M1081.3,1297c-1.7,0-3.5-0.7-4.8-2c-2.7-2.7-2.7-7,0-9.7l88.2-88.2c2.7-2.7,7-2.7,9.7,0c2.7,2.7,2.7,7,0,9.7l-88.2,88.2    C1084.8,1296.3,1083,1297,1081.3,1297z"/>
	</g>
	<g>
		<path d="M1235.3,1188c-1.7,0-3.5-0.7-4.8-2c-2.7-2.7-2.7-7,0-9.7l42.8-42.8c2.7-2.7,7-2.7,9.7,0c2.7,2.7,2.7,7,0,9.7l-42.8,42.8    C1238.8,1187.3,1237,1188,1235.3,1188z"/>
	</g>
	<g>
		<path d="M927.9,1188c-1.7,0-3.5-0.7-4.8-2l-42.8-42.8c-2.7-2.7-2.7-7,0-9.7c2.7-2.7,7-2.7,9.7,0l42.8,42.8c2.7,2.7,2.7,7,0,9.7    C931.4,1187.3,929.7,1188,927.9,1188z"/>
	</g>
	<g>
		<path d="M1081.3,1108.3c-3.8,0-6.8-3.1-6.8-6.8v-55.9c0-3.8,3.1-6.8,6.8-6.8s6.8,3.1,6.8,6.8v55.9    C1088.1,1105.2,1085.1,1108.3,1081.3,1108.3z"/>
	</g>
	<g>
		<path fill="#FF8A78" d="M1131.8,1032c0-7.5-6.1-13.6-13.6-13.6h-73.8c-7.5,0-13.6,6.1-13.6,13.6l0,0c0,7.5,6.1,13.6,13.6,13.6    h73.8C1125.7,1045.6,1131.8,1039.5,1131.8,1032L1131.8,1032z"/>
		<path d="M1118.2,1052.4h-73.8c-11.3,0-20.4-9.2-20.4-20.4s9.2-20.4,20.4-20.4h73.8c11.3,0,20.4,9.2,20.4,20.4    S1129.4,1052.4,1118.2,1052.4z M1044.4,1025.2c-3.7,0-6.8,3-6.8,6.8s3,6.8,6.8,6.8h73.8c3.7,0,6.8-3,6.8-6.8s-3-6.8-6.8-6.8    H1044.4z"/>
	</g>
	<g>
		<path d="M990.4,1376.5h-80.3c-3.8,0-6.8-3.1-6.8-6.8s3.1-6.8,6.8-6.8h80.3c3.8,0,6.8,3.1,6.8,6.8S994.2,1376.5,990.4,1376.5z"/>
	</g>
	<g>
		<path d="M1072,1429.3H946.7c-3.8,0-6.8-3.1-6.8-6.8s3.1-6.8,6.8-6.8H1072c3.8,0,6.8,3.1,6.8,6.8S1075.8,1429.3,1072,1429.3z"/>
	</g>
	<g>
		<g>
			<path d="M1057.3,441.5c-2.2,0-4.4-1.1-5.7-3.1l-67.8-105c-1.3-2-1.4-4.4-0.5-6.5c1-2.1,3-3.6,5.3-3.9     c137.2-19,170.5-50.9,174.3-74.3c7.1-43.9-80.9-97.9-115.4-115c-3.4-1.7-4.8-5.8-3.1-9.1c1.7-3.4,5.8-4.7,9.1-3.1     c5.4,2.7,133,66.6,122.8,129.4c-6.5,40-63.9,67.5-175.3,84.1l62,96.1c2.1,3.2,1.1,7.4-2,9.4     C1059.9,441.1,1058.6,441.5,1057.3,441.5z"/>
		</g>
		<g>
			<path d="M1064.1,252.9h-98.2c-3.8,0-6.8-3.1-6.8-6.8s3.1-6.8,6.8-6.8h95.5l47.7-46.6c2.7-2.6,7-2.6,9.7,0.1     c2.6,2.7,2.6,7-0.1,9.7l-49.7,48.6C1067.6,252.2,1065.9,252.9,1064.1,252.9z"/>
		</g>
		<g>
			<path d="M989.6,167c-28.7,0-52-23.3-52-52c0-28.7,23.3-52,52-52c28.7,0,52,23.3,52,52C1041.6,143.7,1018.2,167,989.6,167z      M989.6,76.7c-21.1,0-38.3,17.2-38.3,38.4c0,21.1,17.2,38.4,38.3,38.4c21.2,0,38.4-17.2,38.4-38.4     C1027.9,93.9,1010.7,76.7,989.6,76.7z"/>
		</g>
		<g>
			<path d="M1222.2,472c-56.1,0-101.7-45.6-101.7-101.7c0-56.1,45.6-101.7,101.7-101.7c56.1,0,101.7,45.6,101.7,101.7     C1323.9,426.4,1278.3,472,1222.2,472z M1222.2,282.2c-48.5,0-88,39.5-88,88c0,48.6,39.5,88.1,88,88.1c48.6,0,88.1-39.5,88.1-88.1     C1310.3,321.7,1270.8,282.2,1222.2,282.2z"/>
		</g>
		<g>
			<path d="M856.5,472c-56.1,0-101.7-45.6-101.7-101.7c0-56.1,45.6-101.7,101.7-101.7c56.1,0,101.7,45.6,101.7,101.7     C958.3,426.4,912.6,472,856.5,472z M856.5,282.2c-48.6,0-88.1,39.5-88.1,88c0,48.6,39.5,88.1,88.1,88.1     c48.6,0,88.1-39.5,88.1-88.1C944.6,321.7,905.1,282.2,856.5,282.2z"/>
		</g>
		<g>
			<path d="M856.5,377.1c-1.2,0-2.4-0.3-3.5-1c-3.2-1.9-4.3-6.1-2.4-9.4l84.2-141.5c0.8-1.7,9.4-21.3-8.2-31.7l0,0     c-0.1,0-10.9-4.8-20.9,0c-8.5,4.1-14.6,14.1-18.1,29.6c-0.8,3.7-4.4,6-8.2,5.1c-3.7-0.8-6-4.5-5.1-8.2     c4.5-19.9,13.1-33,25.6-38.9c16.2-7.8,32.5,0,33.2,0.3c23.5,13.8,19.2,38.8,13.8,50.2l-84.5,142     C861.1,375.9,858.9,377.1,856.5,377.1z"/>
		</g>
		<g>
			<path fill="#3DCAFF" d="M1190.6,370.3c0,17.5,14.2,31.6,31.6,31.6c17.5,0,31.6-14.2,31.6-31.6c0-17.4-14.2-31.6-31.6-31.6     C1204.8,338.7,1190.6,352.8,1190.6,370.3z"/>
			<path d="M1222.2,408.7c-21.2,0-38.5-17.2-38.5-38.5c0-21.2,17.3-38.4,38.5-38.4c21.2,0,38.4,17.2,38.4,38.4     C1260.7,391.5,1243.4,408.7,1222.2,408.7z M1222.2,345.5c-13.7,0-24.8,11.1-24.8,24.8c0,13.7,11.1,24.8,24.8,24.8     c13.7,0,24.8-11.1,24.8-24.8C1247,356.6,1235.9,345.5,1222.2,345.5z"/>
		</g>
		<g>
			<path fill="#3DCAFF" d="M824.9,370.3c0,17.5,14.2,31.6,31.6,31.6s31.6-14.2,31.6-31.6c0-17.4-14.2-31.6-31.6-31.6     S824.9,352.8,824.9,370.3z"/>
			<path d="M856.5,408.7c-21.2,0-38.4-17.2-38.4-38.5c0-21.2,17.2-38.4,38.4-38.4c21.2,0,38.5,17.2,38.5,38.4     C895,391.5,877.8,408.7,856.5,408.7z M856.5,345.5c-13.7,0-24.8,11.1-24.8,24.8c0,13.7,11.1,24.8,24.8,24.8     c13.7,0,24.8-11.1,24.8-24.8C881.4,356.6,870.2,345.5,856.5,345.5z"/>
		</g>
	</g>
	<g>
		<path d="M457.7,1042.2H107.6c-3.8,0-6.8-3.1-6.8-6.8V685.3c0-3.8,3.1-6.8,6.8-6.8h350.1c3.8,0,6.8,3.1,6.8,6.8v350.1    C464.5,1039.2,461.5,1042.2,457.7,1042.2z M114.4,1028.6h336.4V692.2H114.4V1028.6z"/>
	</g>
	<g>
		<path d="M257.9,953.6H145.1c-3.8,0-6.8-3.1-6.8-6.8s3.1-6.8,6.8-6.8h112.8c3.8,0,6.8,3.1,6.8,6.8S261.7,953.6,257.9,953.6z"/>
	</g>
	<g>
		<path d="M257.9,990.6H145.1c-3.8,0-6.8-3.1-6.8-6.8c0-3.8,3.1-6.8,6.8-6.8h112.8c3.8,0,6.8,3.1,6.8,6.8    C264.7,987.5,261.7,990.6,257.9,990.6z"/>
	</g>
	<g>
		<path d="M420.2,953.6h-64.3c-3.8,0-6.8-3.1-6.8-6.8s3.1-6.8,6.8-6.8h64.3c3.8,0,6.8,3.1,6.8,6.8S424,953.6,420.2,953.6z"/>
	</g>
	<g>
		<path d="M420.2,990.6h-64.3c-3.8,0-6.8-3.1-6.8-6.8c0-3.8,3.1-6.8,6.8-6.8h64.3c3.8,0,6.8,3.1,6.8,6.8    C427.1,987.5,424,990.6,420.2,990.6z"/>
	</g>
	<g>
		<g>
			<path fill="#FFF194" d="M802.8,997.1c0,48.4-39.2,87.6-87.6,87.6c-48.4,0-87.6-39.2-87.6-87.6c0-48.4,39.2-87.6,87.6-87.6     C763.5,909.4,802.8,948.7,802.8,997.1z"/>
			<path d="M715.1,1091.5c-52.1,0-94.5-42.4-94.5-94.5c0-52.1,42.4-94.5,94.5-94.5c52.1,0,94.5,42.4,94.5,94.5     C809.6,1049.1,767.2,1091.5,715.1,1091.5z M715.1,916.3c-44.6,0-80.8,36.3-80.8,80.8c0,44.6,36.2,80.8,80.8,80.8     s80.8-36.3,80.8-80.8C796,952.5,759.7,916.3,715.1,916.3z"/>
		</g>
		<g>
			<path d="M715.1,1052c-17,0-33.1-6.6-45.1-18.7c-2.7-2.7-2.7-7,0-9.7c2.7-2.7,7-2.7,9.7,0c18.9,19,52,19,70.9,0     c2.7-2.7,7-2.7,9.7,0c2.7,2.7,2.7,7,0,9.7C748.2,1045.3,732.2,1052,715.1,1052z"/>
		</g>
		<g>
			<path fill="#FFFFFF" d="M698.6,970.1c0,7.4-6,13.5-13.5,13.5c-7.5,0-13.5-6-13.5-13.5c0-7.5,6-13.5,13.5-13.5     C692.6,956.6,698.6,962.7,698.6,970.1z"/>
			<path d="M685.2,990.4c-11.2,0-20.3-9.1-20.3-20.3c0-11.2,9.1-20.3,20.3-20.3c11.2,0,20.3,9.1,20.3,20.3     C705.4,981.3,696.3,990.4,685.2,990.4z M685.2,963.4c-3.7,0-6.7,3-6.7,6.7c0,3.7,3,6.7,6.7,6.7c3.7,0,6.6-3,6.6-6.7     C691.8,966.4,688.8,963.4,685.2,963.4z"/>
		</g>
		<g>
			<path fill="#FFFFFF" d="M758.6,970.1c0,7.4-6.1,13.5-13.5,13.5c-7.4,0-13.5-6-13.5-13.5c0-7.5,6.1-13.5,13.5-13.5     C752.6,956.6,758.6,962.7,758.6,970.1z"/>
			<path d="M745.1,990.4c-11.2,0-20.3-9.1-20.3-20.3c0-11.2,9.1-20.3,20.3-20.3s20.3,9.1,20.3,20.3     C765.5,981.3,756.3,990.4,745.1,990.4z M745.1,963.4c-3.7,0-6.7,3-6.7,6.7c0,3.7,3,6.7,6.7,6.7s6.7-3,6.7-6.7     C751.8,966.4,748.8,963.4,745.1,963.4z"/>
		</g>
	</g>
	<g>
		<polygon points="588.1,687.8 638.5,687.8 638.5,733 647.9,733 647.9,639.5 638.5,639.5 638.5,678.7 588.1,678.7 588.1,639.5     578.5,639.5 578.5,733 588.1,733   "/>
	</g>
	<g>
		<path d="M723.1,733h7l11.5-30h37.4l11.4,30h9.8l-35.5-93.5h-8.3l-33.3,86.3v-2.1h-50.9V689h39.4v-9.2h-39.4v-31.1h49.7v-9.3h-59.2    V733h57.7H723.1z M745.2,693.9l15.3-39.5l15,39.5H745.2z"/>
	</g>
	<g>
		<polygon points="859,723.7 812.3,723.7 812.3,639.5 802.8,639.5 802.8,733 859,733   "/>
	</g>
	<g>
		<g>
			<polygon fill="#76EB9A" points="576.8,765.4 612.9,765.4 612.9,876.3 625.5,876.3 625.5,765.4 661.6,765.4 661.6,753.3      576.8,753.3    "/>
		</g>
		<g>
			<polygon fill="#76EB9A" points="748.4,804.9 682.1,804.9 682.1,753.3 669.5,753.3 669.5,876.3 682.1,876.3 682.1,816.8      748.4,816.8 748.4,876.3 760.7,876.3 760.7,753.3 748.4,753.3    "/>
		</g>
		<g>
			<polygon fill="#76EB9A" points="847.5,753.3 813.3,809.3 779.7,755 778.7,753.3 764.3,753.3 806.9,822.5 806.9,876.3      819.3,876.3 819.3,822.8 861.9,753.3    "/>
		</g>
	</g>
	<g>
		<path d="M892.8,1127.8H544.4c-3.8,0-6.8-3.1-6.8-6.8V599.4c0-3.8,3.1-6.8,6.8-6.8h348.4c3.8,0,6.8,3.1,6.8,6.8v521.5    C899.6,1124.7,896.6,1127.8,892.8,1127.8z M551.3,1114.1H886V606.3H551.3V1114.1z"/>
	</g>
	<g>
		<g>
			<path d="M661.4,1221.6h-68c-3.8,0-6.8-3.1-6.8-6.8s3.1-6.8,6.8-6.8h68c3.8,0,6.8,3.1,6.8,6.8S665.1,1221.6,661.4,1221.6z"/>
		</g>
		<g>
			<path d="M627.4,1255.6c-3.8,0-6.8-3.1-6.8-6.8v-68c0-3.8,3.1-6.8,6.8-6.8s6.8,3.1,6.8,6.8v68     C634.2,1252.5,631.1,1255.6,627.4,1255.6z"/>
		</g>
	</g>
	<g>
		<g>
			<path d="M752.6,1221.6h-68c-3.8,0-6.8-3.1-6.8-6.8s3.1-6.8,6.8-6.8h68c3.8,0,6.8,3.1,6.8,6.8S756.4,1221.6,752.6,1221.6z"/>
		</g>
		<g>
			<path d="M718.6,1255.6c-3.8,0-6.8-3.1-6.8-6.8v-68c0-3.8,3.1-6.8,6.8-6.8s6.8,3.1,6.8,6.8v68     C725.4,1252.5,722.4,1255.6,718.6,1255.6z"/>
		</g>
	</g>
	<g>
		<g>
			<path d="M843.9,1221.6h-68c-3.8,0-6.8-3.1-6.8-6.8s3.1-6.8,6.8-6.8h68c3.8,0,6.8,3.1,6.8,6.8S847.6,1221.6,843.9,1221.6z"/>
		</g>
		<g>
			<path d="M809.9,1255.6c-3.8,0-6.8-3.1-6.8-6.8v-68c0-3.8,3.1-6.8,6.8-6.8s6.8,3.1,6.8,6.8v68     C816.7,1252.5,813.6,1255.6,809.9,1255.6z"/>
		</g>
	</g>
	<g>
		<path d="M775.9,539.4H662.7c-3.8,0-6.8-3.1-6.8-6.8c0-3.8,3.1-6.8,6.8-6.8h113.2c3.8,0,6.8,3.1,6.8,6.8    C782.7,536.3,779.6,539.4,775.9,539.4z"/>
	</g>
	<g>
		<path d="M888.2,539.4h-63.3c-3.8,0-6.8-3.1-6.8-6.8c0-3.8,3.1-6.8,6.8-6.8h63.3c3.8,0,6.8,3.1,6.8,6.8    C895,536.3,892,539.4,888.2,539.4z"/>
	</g>
	<g>
		<path fill="#3DCAFF" d="M367.6,824.5c-5.8-38.4-38.7-67.9-78.7-67.9c-40,0-72.9,29.5-78.7,67.9H367.6z"/>
	</g>
	<g>
		<path d="M282.6,798.6c-1.7,0-3.3-0.6-4.7-1.8l-75.2-70.3c-2.7-2.6-2.9-6.9-0.3-9.6c2.6-2.8,6.9-2.9,9.7-0.3l75.2,70.3    c2.7,2.6,2.9,6.9,0.3,9.6C286.3,797.9,284.5,798.6,282.6,798.6z"/>
	</g>
	<g>
		<path d="M388,837.7H177.3c-1.9,0-3.8-0.8-5.1-2.3c-1.3-1.5-1.9-3.4-1.7-5.3c3.3-28.6,17.2-54.6,39.3-73.2c1.1-0.9,2.2-1.9,3.4-2.8    c3-2.3,7.3-1.8,9.6,1.2c2.3,3,1.8,7.3-1.2,9.6c-1,0.8-2,1.6-2.9,2.4c-17.4,14.8-29.1,34.7-33.4,56.8h194.9    c-8.9-46.3-49.5-80.2-97.4-80.2c-6.5,0-13.1,0.6-19.5,1.9c-3.7,0.8-7.3-1.7-8-5.4c-0.7-3.7,1.7-7.3,5.4-8    c7.3-1.4,14.7-2.2,22.1-2.2c57.4,0,105.6,43,112.2,99.9c0.2,1.9-0.4,3.9-1.7,5.3C391.8,836.8,390,837.7,388,837.7z"/>
	</g>
	<g>
		<path fill="#E6E7E8" d="M324.8,1159.1l-22.2,93.6l181.7,138.7h200.3c0,0-39.1-31.2-129.1-25.6l-46.9-8.9l-125-162.9L324.8,1159.1z    "/>
	</g>
</g>
</svg>
