<?xml version="1.0" encoding="utf-8"?>
<!-- Generator: Adobe Illustrator 19.0.0, SVG Export Plug-In . SVG Version: 6.00 Build 0)  -->
<svg xmlns="http://www.w3.org/2000/svg" xmlns:xlink="http://www.w3.org/1999/xlink" version="1.1" id="Layer_1" x="0px" y="0px" viewBox="0 0 1400 980" style="enable-background:new 0 0 1400 980;" xml:space="preserve">
<style type="text/css">
	.st0{fill:#FFFFFF;}
	.st1{fill:none;}
	.st2{fill:#231F20;}
	.st3{fill:#FF9996;}
	.st4{fill:#75E5FF;}
	.st5{fill:#FFF278;}
	.st6{fill:#B1ECB2;}
	.st7{fill:#FFF6A1;}
</style>
<g>
	<g>
		
	</g>
</g>
<path class="st1" d="M268.8,515.1c-103.2,0-187.1,83.9-187.1,187.1c0,103.2,83.9,187.1,187.1,187.1c103.2,0,187.1-83.9,187.1-187.1  C455.9,599.1,371.9,515.1,268.8,515.1z M348.1,701.6v91.2c0,14.4-5,28.3-14.2,39.4l-0.7,0.9H195.5l-0.7-0.9  c-9.2-11-14.2-25-14.2-39.4V679.4c0-28.7,19.9-53.6,47.6-60v-8.6h-21.8V566h115.8v44.8h-21.8v8.6c27.7,6.4,47.6,31.3,47.6,60V701.6z  "/>
<path class="st1" d="M700,515.1c-103.2,0-187.1,83.9-187.1,187.1c0,103.2,83.9,187.1,187.1,187.1c103.2,0,187.1-83.9,187.1-187.1  C887.1,599.1,803.2,515.1,700,515.1z M757.9,620.5v42.3v109.2c0,0,0,0.1,0,0.1c0,0.2,0,0.3-0.1,0.5c0,0.1,0,0.1-0.1,0.2  c-0.1,0.2-0.2,0.4-0.3,0.5L738,793.4c0,0,0,0,0,0v12.9c0,1-0.8,1.9-1.9,1.9h-33.8v51.5c0,1-0.8,1.9-1.9,1.9c-1,0-1.9-0.8-1.9-1.9  v-51.5h-34.4c-1,0-1.9-0.8-1.9-1.9v-13.4l-18.9-19.6c-0.1-0.2-0.3-0.3-0.3-0.5c0-0.1,0-0.1-0.1-0.2c-0.1-0.2-0.1-0.3-0.1-0.5  c0,0,0-0.1,0-0.1V662.8v-42.3c-8.8-0.9-15.7-8.4-15.7-17.4c0-9.7,7.9-17.5,17.5-17.5h53.5v-40.7c0-1,0.8-1.9,1.9-1.9  c1,0,1.9,0.8,1.9,1.9v40.7h54c9.7,0,17.5,7.9,17.5,17.5C773.6,612.1,766.7,619.5,757.9,620.5z"/>
<path class="st1" d="M1131.2,464.9c103.2,0,187.1-83.9,187.1-187.1c0-103.2-83.9-187.1-187.1-187.1c-103.2,0-187.1,83.9-187.1,187.1  C944.1,380.9,1028.1,464.9,1131.2,464.9z M1023.9,222.8c-14.4-14.4-14.4-37.9,0-52.3c14.4-14.4,37.9-14.4,52.3,0l54.3,54.3  l54.3-54.3c14.8-14.8,38.9-14.8,53.7,0c14.8,14.8,14.8,38.9,0,53.7l-54.3,54.3l54.3,54.3c14.4,14.4,14.4,37.9,0,52.3  c-14.4,14.4-37.9,14.4-52.3,0l-54.3-54.3l-54.3,54.3c-14.8,14.8-38.9,14.8-53.7,0c-14.8-14.8-14.8-38.9,0-53.7l54.3-54.3  L1023.9,222.8z"/>
<path class="st1" d="M268.8,90.7c-103.2,0-187.1,83.9-187.1,187.1c0,103.2,83.9,187.1,187.1,187.1c103.2,0,187.1-83.9,187.1-187.1  C455.9,174.6,371.9,90.7,268.8,90.7z M192.2,352.2l-8,0l0,45.1l7.4,0l0,5.8l-30.8,0l0-5.8l7.4,0l0-45.1l-8,0l0-4.6l4.7,0l0.1-125.1  l7.7,0l0-15.3h0.9l1.6-54.9l2.4,0l1.2,54.9h1.3l0,15.3l7.7,0l0,62.1v1.1l0,10.8v1.2l0,49.9l4.7,0V352.2z M373.3,384.3h-158V180.7  H270v-11c0-1,0.8-1.8,1.8-1.8h8.9c1.5-6.2,7.1-10.7,13.6-10.7c6.5,0,12.1,4.5,13.6,10.7h8.9c1,0,1.8,0.8,1.8,1.8v11h54.7V384.3z"/>
<path class="st1" d="M700,90.7c-103.2,0-187.1,83.9-187.1,187.1c0,103.2,83.9,187.1,187.1,187.1c103.2,0,187.1-83.9,187.1-187.1  C887.1,174.6,803.2,90.7,700,90.7z M567.7,234.4c0.5-0.9,1.7-1.1,2.5-0.6l24.1,14.9c0.9,0.5,1.1,1.7,0.6,2.5c-0.3,0.6-1,0.9-1.6,0.9  c-0.3,0-0.7-0.1-1-0.3L568.3,237C567.4,236.5,567.1,235.3,567.7,234.4z M552.2,277.5c0.2-1,1.1-1.7,2.1-1.5l39.3,6.4  c1,0.2,1.7,1.1,1.5,2.1c-0.2,0.9-0.9,1.6-1.8,1.6c-0.1,0-0.2,0-0.3,0l-39.3-6.4C552.7,279.4,552,278.5,552.2,277.5z M594.2,350.2  l-24.1,14.6c-0.3,0.2-0.6,0.3-1,0.3c-0.6,0-1.2-0.3-1.6-0.9c-0.5-0.9-0.2-2,0.6-2.5l24.1-14.6c0.9-0.5,2-0.2,2.5,0.6  C595.4,348.5,595.1,349.6,594.2,350.2z M593.6,316.2l-39.3,7.1c-0.1,0-0.2,0-0.3,0c-0.9,0-1.7-0.6-1.8-1.5c-0.2-1,0.5-2,1.5-2.2  l39.3-7.1c1-0.2,2,0.5,2.2,1.5C595.3,315,594.6,316,593.6,316.2z M785.6,370.9c0,1-0.8,1.9-1.9,1.9H763v23.5c0,1-0.8,1.9-1.9,1.9  H638.8c-1,0-1.9-0.8-1.9-1.9v-23.5h-19.8c-1,0-1.9-0.8-1.9-1.9V226.8c0-1,0.8-1.9,1.9-1.9h22.3c4.8-11.5,16.2-19.5,29.3-19.5h19.5  v-11.5c-9.8-1-17.4-9.3-17.4-19.3V144c0-10.7,8.7-19.4,19.4-19.4h20.4c10.7,0,19.4,8.7,19.4,19.4v30.7c0,10-7.6,18.3-17.4,19.3v11.5  h18.6c13.2,0,24.5,8.1,29.3,19.5h23.2c1,0,1.9,0.8,1.9,1.9V370.9z M832.3,364.1c-0.3,0.6-1,0.9-1.6,0.9c-0.3,0-0.7-0.1-1-0.3  l-24.1-14.6c-0.9-0.5-1.2-1.7-0.6-2.5c0.5-0.9,1.7-1.2,2.5-0.6l24.1,14.6C832.6,362.1,832.9,363.2,832.3,364.1z M847.8,321.8  c-0.2,0.9-0.9,1.5-1.8,1.5c-0.1,0-0.2,0-0.3,0l-39.3-7.1c-1-0.2-1.7-1.1-1.5-2.2c0.2-1,1.1-1.7,2.2-1.5l39.3,7.1  C847.3,319.8,848,320.8,847.8,321.8z M847.8,277.5c0.2,1-0.5,2-1.5,2.1L807,286c-0.1,0-0.2,0-0.3,0c-0.9,0-1.7-0.6-1.8-1.6  c-0.2-1,0.5-2,1.5-2.1l39.3-6.4C846.7,275.8,847.7,276.5,847.8,277.5z M831.7,237l-24.1,14.9c-0.3,0.2-0.6,0.3-1,0.3  c-0.6,0-1.2-0.3-1.6-0.9c-0.5-0.9-0.3-2,0.6-2.5l24.1-14.9c0.9-0.5,2-0.3,2.5,0.6C832.9,235.3,832.6,236.5,831.7,237z"/>
<path class="st1" d="M1131.2,515.1c-103.2,0-187.1,83.9-187.1,187.1c0,103.2,83.9,187.1,187.1,187.1c103.2,0,187.1-83.9,187.1-187.1  C1318.3,599.1,1234.4,515.1,1131.2,515.1z M1234,835.5c-0.3,0.2-3.2,1.9-7.2,1.9c-3,0-7.5-1-11.4-6l-0.2-0.2l-35.5-56.4l-0.8,0.3  c-6.3,2.2-13,3.4-19.7,3.4c-4.5,0-9-0.5-13.3-1.5c-11.9-2.7-22.6-8.9-30.8-17.8l-0.3-0.4h-86.4c-0.9,0-1.6-0.7-1.6-1.6V612  c0-0.9,0.7-1.6,1.6-1.6h24.4v-2.2c0-7.9,6.4-14.3,14.3-14.3h39.7c7.9,0,14.3,6.4,14.3,14.3v2.2h89.6c0.9,0,1.6,0.7,1.6,1.6v78.7  l0.1,0.2c6.5,12.6,8.4,27,5.2,40.8c-1.1,5-2.9,9.8-5.2,14.3c-0.1,0.3-0.3,0.6-0.5,0.9l-0.3,0.5c-0.2,0.4-0.5,0.9-0.7,1.3  c-0.8,1.3-1.5,2.5-2.3,3.7c-0.2,0.2-0.8,1-0.8,1c-0.3,0.4-1.4,1.8-1.4,1.8c-0.6,0.8-1.3,1.6-1.9,2.3l-1,1.1l-0.6,0.6l36.1,57.4  C1241.2,820.6,1242.9,829.7,1234,835.5z"/>
<path class="st2" d="M268.8,87C163.6,87,78,172.6,78,277.8c0,105.2,85.6,190.8,190.8,190.8c105.2,0,190.8-85.6,190.8-190.8  C459.6,172.6,374,87,268.8,87z M268.8,464.9c-103.2,0-187.1-83.9-187.1-187.1c0-103.2,83.9-187.1,187.1-187.1  c103.2,0,187.1,83.9,187.1,187.1C455.9,380.9,371.9,464.9,268.8,464.9z"/>
<path class="st2" d="M700,87c-105.2,0-190.8,85.6-190.8,190.8c0,105.2,85.6,190.8,190.8,190.8c105.2,0,190.8-85.6,190.8-190.8  C890.8,172.6,805.2,87,700,87z M700,464.9c-103.2,0-187.1-83.9-187.1-187.1c0-103.2,83.9-187.1,187.1-187.1  c103.2,0,187.1,83.9,187.1,187.1C887.1,380.9,803.2,464.9,700,464.9z"/>
<path class="st2" d="M1131.2,468.6c105.2,0,190.8-85.6,190.8-190.8c0-105.2-85.6-190.8-190.8-190.8c-105.2,0-190.8,85.6-190.8,190.8  C940.4,383,1026,468.6,1131.2,468.6z M1131.2,90.7c103.2,0,187.1,83.9,187.1,187.1c0,103.2-83.9,187.1-187.1,187.1  c-103.2,0-187.1-83.9-187.1-187.1C944.1,174.6,1028.1,90.7,1131.2,90.7z"/>
<path class="st2" d="M268.8,511.4C163.6,511.4,78,597,78,702.2C78,807.4,163.6,893,268.8,893c105.2,0,190.8-85.6,190.8-190.8  C459.6,597,374,511.4,268.8,511.4z M268.8,889.3c-103.2,0-187.1-83.9-187.1-187.1c0-103.2,83.9-187.1,187.1-187.1  c103.2,0,187.1,83.9,187.1,187.1C455.9,805.4,371.9,889.3,268.8,889.3z"/>
<path class="st2" d="M700,511.4c-105.2,0-190.8,85.6-190.8,190.8C509.2,807.4,594.8,893,700,893c105.2,0,190.8-85.6,190.8-190.8  C890.8,597,805.2,511.4,700,511.4z M700,889.3c-103.2,0-187.1-83.9-187.1-187.1c0-103.2,83.9-187.1,187.1-187.1  c103.2,0,187.1,83.9,187.1,187.1C887.1,805.4,803.2,889.3,700,889.3z"/>
<path class="st2" d="M1131.2,511.4c-105.2,0-190.8,85.6-190.8,190.8c0,105.2,85.6,190.8,190.8,190.8c105.2,0,190.8-85.6,190.8-190.8  C1322,597,1236.4,511.4,1131.2,511.4z M1131.2,889.3c-103.2,0-187.1-83.9-187.1-187.1c0-103.2,83.9-187.1,187.1-187.1  c103.2,0,187.1,83.9,187.1,187.1C1318.3,805.4,1234.4,889.3,1131.2,889.3z"/>
<g>
	<path class="st0" d="M303.7,608.9h16.8V574h-106v34.9h16.8H303.7z M307.8,580.1h4.9v22.6h-4.9V580.1z M297.1,580.1h4.9v22.6h-4.9   V580.1z M286.4,580.1h4.9v22.6h-4.9V580.1z M275.7,580.1h4.9v22.6h-4.9V580.1z M265.1,580.1h4.9v22.6h-4.9V580.1z M254.4,580.1h4.9   v22.6h-4.9V580.1z M243.7,580.1h4.9v22.6h-4.9V580.1z M233,580.1h4.9v22.6H233V580.1z M227.3,602.7h-4.9v-22.6h4.9V602.7z"/>
	<polygon class="st0" points="1105.8,255.7 1104.2,263.3 1098.4,290.6 1105.9,298.2 1115.7,251.7 1117.3,244.2 1122.3,220.7    1110.7,232.3  "/>
	<path class="st3" d="M238,790.8h108.4v-11h-78.9v-4.9h78.9v-49.5h-78.9v-4.9h78.9v-11H238V790.8z M334.9,745.2   c2.7,0,4.9,2.2,4.9,4.9c0,2.7-2.2,4.9-4.9,4.9c-2.7,0-4.9-2.2-4.9-4.9C330,747.4,332.2,745.2,334.9,745.2z M313.1,745.2   c2.7,0,4.9,2.2,4.9,4.9c0,2.7-2.2,4.9-4.9,4.9c-2.7,0-4.9-2.2-4.9-4.9C308.2,747.4,310.4,745.2,313.1,745.2z M291.3,745.2   c2.7,0,4.9,2.2,4.9,4.9c0,2.7-2.2,4.9-4.9,4.9c-2.7,0-4.9-2.2-4.9-4.9C286.4,747.4,288.6,745.2,291.3,745.2z"/>
	<polygon class="st4" points="179.3,202.8 179.1,208.3 179.4,208.3  "/>
	<polygon class="st0" points="1182.9,283.4 1182.2,286.7 1178.3,305.1 1191.5,291.9 1184.2,284.7  "/>
	<path class="st0" d="M759.2,592.2H648c-7.6,0-13.8,6.2-13.8,13.8c0,7.6,6.2,13.8,13.8,13.8h111.2c7.6,0,13.8-6.2,13.8-13.8   C773,598.4,766.8,592.2,759.2,592.2z"/>
	<rect x="643.8" y="375.7" class="st5" width="20.7" height="21.6"/>
	<rect x="668.2" y="375.7" class="st5" width="70.6" height="21.6"/>
	<path class="st5" d="M713.8,193.3c8.6,0,15.7-7,15.7-15.7V147c0-8.6-7-15.7-15.7-15.7h-20.4c-8.6,0-15.7,7-15.7,15.7v30.7   c0,8.6,7,15.7,15.7,15.7H713.8z"/>
	<rect x="742.5" y="375.7" class="st5" width="20" height="21.6"/>
	<rect x="695.1" y="197" class="st5" width="17" height="11.4"/>
	<path class="st5" d="M734.4,212.2h-20.5h-20.7H672c-11.1,0-20.7,6.5-25.2,15.8h112.9C755,218.6,745.5,212.2,734.4,212.2z"/>
	<path class="st0" d="M689.2,341.7c0.2,0.8,4.4,3,12.6,3.3v-6.7C693.6,338.7,689.4,340.9,689.2,341.7z"/>
	<polygon class="st0" points="1109.8,302 1117.3,309.6 1133.2,234.2 1133.3,233.8 1130.5,231 1125.8,226.3 1123.2,238.2    1121.6,245.8  "/>
	<path class="st4" d="M321.9,195.5c0,1-0.8,1.8-1.8,1.8h-45c-1,0-1.8-0.8-1.8-1.8v-8.1h-51v196.2h150.6V187.4h-51V195.5z    M363.9,372.3H231.2V201.5h132.7V372.3z"/>
	<polygon class="st0" points="1128.7,320.9 1144.7,245.2 1137.1,237.6 1121.2,313.4  "/>
	<path class="st6" d="M1238.7,224.2c13.2-13.2,13.2-34.6,0-47.8c-13.2-13.2-34.6-13.2-47.8,0l-54.3,54.3l47.8,47.8L1238.7,224.2z"/>
	<polygon class="st0" points="166.2,403.8 192.4,403.8 192.4,402.7 185,402.7 185,356.7 173.6,356.7 173.6,402.7 166.2,402.7  "/>
	<path class="st0" d="M649.8,663.9h46.3c0.2-0.3,0.3-0.6,0.5-0.9c0.1-0.3,0.3-0.5,0.4-0.7c0.2-0.4,0.5-0.8,0.7-1.2   c0.2-0.3,0.3-0.6,0.5-0.9c0.2-0.3,0.3-0.6,0.5-0.8c0.2-0.3,0.4-0.7,0.6-1c0.1-0.2,0.2-0.3,0.3-0.4c0.2-0.4,0.4-0.7,0.6-1   c0-0.1,0.1-0.1,0.1-0.1c1-1.6,1.6-2.6,1.6-2.6c0.3-0.5,0.9-0.9,1.6-0.9c0.6,0,1.2,0.3,1.6,0.9c0,0,0.4,0.6,1,1.5c0,0,0,0,0,0   c0.2,0.2,0.3,0.5,0.5,0.8c0.1,0.1,0.1,0.2,0.2,0.4c0.2,0.3,0.3,0.6,0.5,0.8c0.1,0.2,0.3,0.4,0.4,0.7c0.2,0.3,0.3,0.6,0.5,0.8   c0.2,0.3,0.4,0.6,0.6,1c0.2,0.3,0.3,0.5,0.5,0.8c0.2,0.4,0.5,0.8,0.7,1.2c0.1,0.2,0.3,0.5,0.4,0.7c0.2,0.3,0.3,0.6,0.5,0.9h46.3   v-40.3H649.8V663.9z"/>
	<path class="st3" d="M714.4,669.8C714.4,669.9,714.4,669.9,714.4,669.8c1,1.8,1.9,3.5,2.9,5.3c0.1,0.2,0.2,0.5,0.4,0.7   c0.3,0.7,0.7,1.3,1,2c0.2,0.3,0.3,0.7,0.5,1c0.3,0.6,0.6,1.1,0.9,1.7c0.2,0.4,0.4,0.7,0.5,1.1c0.3,0.5,0.5,1.1,0.8,1.6   c0.2,0.4,0.4,0.8,0.5,1.2c0.2,0.5,0.5,1,0.7,1.6c0.2,0.4,0.4,0.8,0.5,1.2c0.2,0.5,0.4,1,0.7,1.5c0.2,0.4,0.3,0.8,0.5,1.2   c0.2,0.5,0.4,1,0.6,1.5c0.2,0.4,0.3,0.8,0.5,1.2c0.2,0.5,0.4,1,0.5,1.4c0.1,0.4,0.3,0.8,0.4,1.2c0.2,0.5,0.3,0.9,0.5,1.4   c0.1,0.4,0.3,0.8,0.4,1.1c0.2,0.5,0.3,0.9,0.4,1.4c0.1,0.4,0.2,0.7,0.3,1.1c0.1,0.5,0.3,1,0.4,1.4c0.1,0.3,0.2,0.6,0.2,1   c0.1,0.5,0.2,1,0.3,1.5c0.1,0.3,0.1,0.5,0.2,0.8c0.1,0.7,0.2,1.5,0.3,2.1c0,0,0,0.2,0,0.2c0.1,0.7,0.1,1.7,0.1,2.6   c0,14.2-11.6,25.8-25.9,25.8c-14.3,0-25.9-11.6-25.9-25.9c0-0.7,0-1.5,0.1-2.5c0,0,0-0.2,0-0.2c0.1-0.7,0.2-1.4,0.3-2.1   c0-0.2,0.1-0.5,0.2-0.8c0.1-0.5,0.2-1,0.3-1.5c0.1-0.3,0.2-0.6,0.2-0.9c0.1-0.5,0.2-0.9,0.4-1.4c0.1-0.3,0.2-0.7,0.3-1   c0.1-0.5,0.3-0.9,0.4-1.4c0.1-0.4,0.2-0.7,0.4-1.1c0.2-0.5,0.3-1,0.5-1.4c0.1-0.4,0.3-0.8,0.4-1.1c0.2-0.5,0.4-1,0.6-1.5   c0.2-0.4,0.3-0.8,0.5-1.2c0.2-0.5,0.4-1,0.6-1.5c0.2-0.4,0.3-0.8,0.5-1.2c0.2-0.5,0.4-1,0.7-1.5c0.2-0.4,0.4-0.8,0.5-1.2   c0.2-0.5,0.5-1,0.7-1.5c0.2-0.4,0.4-0.8,0.5-1.2c0.3-0.5,0.5-1.1,0.8-1.6c0.2-0.4,0.4-0.7,0.5-1.1c0.3-0.6,0.6-1.1,0.8-1.7   c0.2-0.3,0.3-0.7,0.5-1c0.3-0.6,0.6-1.2,1-1.9c0.1-0.3,0.3-0.5,0.4-0.8c0.9-1.8,1.9-3.5,2.8-5.2c0.1-0.1,0.1-0.2,0.2-0.3   c0.4-0.7,0.7-1.3,1.1-1.9h-44.2v105.5h107.5V667.6h-44.2C713.6,668.3,714,669.1,714.4,669.8z"/>
	<path class="st0" d="M681.4,709.7c0,12.3,9.9,22.2,22.2,22.2c12.2,0,22.2-9.9,22.2-22.2c0-0.6,0-1.3-0.1-2.2c0,0,0-0.2,0-0.3   c-1.2-11.3-11.3-30.2-17.2-40.5c-1.9-3.4-3.6-6.2-4.8-8c-1.2,1.9-2.8,4.7-4.8,8c-5.9,10.3-16,29.2-17.3,40.6l-1.9,0l1.8,0.2   C681.5,708.4,681.4,709.1,681.4,709.7z"/>
	<polygon class="st3" points="668.2,793.3 739,793.3 754.9,776.8 652.3,776.8  "/>
	<rect x="669.2" y="797" class="st3" width="68.2" height="10.5"/>
	<polygon class="st4" points="180.7,212.6 178.2,212.6 178.1,223.7 180.7,223.7  "/>
	<path class="st0" d="M360.2,205.1H234.8v163.5h125.4V205.1z M248.7,226h38.4v41.1h-38.4V226z M345.1,338h-94.2V333h94.2V338z    M345.1,318.3h-94.2v-5.1h94.2V318.3z M345.1,298.5h-94.2v-5.1h94.2V298.5z M345.1,278.8h-94.2v-5.1h94.2V278.8z M345.1,259h-46.4   V254h46.4V259z M345.1,239.3h-46.4v-5.1h46.4V239.3z"/>
	<path class="st3" d="M1177.6,708.4c-0.8,0-1.5,0.2-2.1,0.6l-11.7,7.4l-7.4-11.7c-0.7-1.1-2-1.9-3.4-1.9c-0.8,0-1.5,0.2-2.1,0.6   c-0.9,0.6-1.5,1.5-1.8,2.5c-0.2,1-0.1,2.1,0.5,3l7.4,11.7l-11.7,7.4c-0.9,0.6-1.5,1.5-1.8,2.5c-0.2,1-0.1,2.1,0.5,3   c0.7,1.1,2,1.9,3.4,1.9c0.8,0,1.5-0.2,2.1-0.6l11.7-7.4l7.4,11.7c0.7,1.1,2,1.9,3.4,1.9c0.8,0,1.5-0.2,2.1-0.6   c0.9-0.6,1.5-1.5,1.8-2.5c0.2-1,0.1-2.1-0.5-3l-7.4-11.7l11.7-7.4c0.9-0.6,1.5-1.5,1.8-2.5c0.2-1.1,0.1-2.1-0.5-3   C1180.4,709.1,1179,708.4,1177.6,708.4z"/>
	<polygon class="st0" points="1166.1,296.8 1164.5,304.3 1160.7,322.7 1172.4,311 1176.2,292.6 1177.8,285.1 1179,279.5    1171.4,271.9  "/>
	<path class="st5" d="M1111.6,753.4c-8.5-13.6-11.3-29.6-7.7-45.2c1.2-5.1,3-10,5.3-14.6c0,0,1-1.8,1.1-2c1.2-2,2.5-4,3.9-5.9   c1.1-1.5,2.2-2.9,3.4-4.2c1.6-1.8,3.3-3.5,5.1-5c0.3-0.3,0.6-0.5,0.9-0.8l0.8-0.7c10.6-8.7,24.1-13.5,37.9-13.5   c4.5,0,9,0.5,13.3,1.5c13.8,3.1,26.1,11.1,34.6,22.5l2,2.7v-71.6h-89.6c-0.9,0-1.6-0.7-1.6-1.6v-3.8c0-6.1-5-11.1-11.1-11.1h-39.7   c-6.1,0-11.1,5-11.1,11.1v3.8c0,0.9-0.7,1.6-1.6,1.6h-24.4v142h82l-1.3-1.8C1112.9,755.6,1112.2,754.5,1111.6,753.4z M1072.2,703   c-7.7,0-13.9-6.3-13.9-13.9c0-7.7,6.3-13.9,13.9-13.9c7.7,0,13.9,6.2,13.9,13.9C1086.1,696.8,1079.9,703,1072.2,703z"/>
	<path class="st4" d="M300.7,626.8l-2-0.4v-12.6h-62.4v12.6l-2,0.4c-25.6,5.1-44.4,27.2-45.6,53.1h157.5   C345.1,654,326.4,631.9,300.7,626.8z"/>
	<path class="st7" d="M1188.7,690.3c-0.3-0.2-0.5-0.4-0.7-0.6l-0.6-0.5c-1.2-0.9-2.3-1.7-3.5-2.4c-0.4-0.2-0.6-0.4-0.9-0.5   c-0.2-0.1-0.9-0.5-0.9-0.5c-3.4-1.9-7-3.2-10.7-4.1c-1-0.2-2-0.4-3.3-0.6c0,0-0.8-0.1-1.1-0.1c-0.3,0-1.1-0.1-1.1-0.1   c-1.4-0.1-2.6-0.2-3.7-0.2c0,0-1,0-1.3,0c-0.3,0-0.6,0-0.9,0c-8.4,0.5-16.4,3.4-23,8.6c-0.3,0.2-0.6,0.5-0.8,0.7   c-0.3,0.3-0.6,0.5-0.9,0.8c-3.4,3-6.2,6.5-8.4,10.4c-0.2,0.3-0.4,0.7-0.6,1c-0.2,0.3-0.3,0.6-0.5,1c-1.5,3-2.6,6.1-3.3,9.3   c-2.4,10.7-0.6,21.6,5.3,30.9c4.2,6.6,10.1,11.9,17.1,15.2c0.6,0.3,1.2,0.5,1.8,0.8c0.7,0.3,1.3,0.5,2,0.8c1.6,0.6,3.1,1,4.6,1.4   c3,0.7,6.1,1,9.1,1c4.8,0,9.4-0.8,13.9-2.4c0.7-0.2,1.3-0.5,2-0.8c0.6-0.2,1.2-0.5,1.8-0.8c11.3-5.4,19.4-15.6,22.3-27.9   C1205.6,715.6,1200.5,700.2,1188.7,690.3z M1185.4,714.1c-0.5,2.1-1.7,3.8-3.5,4.9l-8.4,5.3l5.3,8.4c1.1,1.8,1.5,3.9,1,6   c-0.5,2.1-1.7,3.8-3.5,4.9c-1.3,0.8-2.7,1.2-4.2,1.2c-2.7,0-5.2-1.4-6.7-3.7l-5.3-8.4l-8.4,5.3c-1.3,0.8-2.7,1.2-4.2,1.2   c-2.7,0-5.2-1.4-6.7-3.7c-1.1-1.8-1.5-3.9-1-6c0.5-2.1,1.7-3.8,3.5-4.9l8.4-5.3l-5.3-8.4c-2.3-3.7-1.2-8.6,2.5-10.9   c1.3-0.8,2.7-1.2,4.2-1.2c2.7,0,5.2,1.4,6.7,3.7l5.3,8.4l8.4-5.3c0.3-0.2,0.7-0.4,1-0.5c1-0.4,2.1-0.7,3.2-0.7l0.2,0   c2.6,0.1,5.1,1.4,6.5,3.7C1185.5,709.9,1185.9,712,1185.4,714.1z"/>
	<path class="st0" d="M1072.2,679.2c-5.4,0-9.9,4.4-9.9,9.9c0,5.4,4.4,9.9,9.9,9.9c5.4,0,9.9-4.4,9.9-9.9   C1082.1,683.7,1077.6,679.2,1072.2,679.2z"/>
	<path class="st6" d="M1194.7,295.2l-45.9,45.9l43.8,43.8c12.6,12.6,33.2,12.6,45.9,0c12.7-12.6,12.7-33.2,0-45.9L1194.7,295.2z"/>
	<path class="st4" d="M188.7,795.7c0,12.8,4.4,25.3,12.4,35.3h133c8-10,12.4-22.5,12.4-35.3H233v-91.2h113.4v-19.7H188.7V795.7z"/>
	<polygon class="st0" points="1158.6,310.3 1160.2,302.7 1167.5,268 1159.9,260.4 1148.5,314.4 1146.9,322 1143.9,336.2    1145.6,337.8 1154.7,328.7  "/>
	<path class="st4" d="M1201.3,761.8l1.1-1.1c0.2-0.2,0.4-0.4,0.6-0.6l0.3-0.4c0.2-0.3,0.5-0.5,0.7-0.8c0,0,0.6-0.6,0.7-0.8   c2.9-3.3,5.4-7,7.4-11c0.3-0.5,0.5-1,0.8-1.6c0.3-0.6,0.5-1.1,0.8-1.7c1-2.2,1.8-4.4,2.4-6.6c0.3-1,0.5-2,0.8-2.9   c0,0,0.1-0.4,0.1-0.6c0.2-1.1,0.5-2.2,0.6-3.3c1-6.1,1-12.2,0-18.3c-0.2-1.3-0.5-2.6-0.8-3.9c-0.2-1-0.5-1.9-0.8-2.9   c-0.7-2.3-1.5-4.5-2.4-6.6c-0.2-0.6-0.5-1.1-0.8-1.7c-0.3-0.5-0.5-1.1-0.8-1.6c-7.6-14.7-21.3-25.3-37.4-29   c-4.1-0.9-8.3-1.4-12.5-1.4c-11.6,0-22.8,3.5-32.2,10.1l-0.7,0.5l-0.7,0.5c-1,0.7-1.9,1.5-2.8,2.3l-0.7,0.6l-0.7,0.6   c-4.1,3.7-7.6,8.1-10.5,12.9l-0.4,0.8l-0.4,0.8c-0.6,1.1-1.1,2.1-1.6,3.2l-0.7,1.6c-1.4,3.2-2.5,6.6-3.2,9.9   c-3.3,14.6-0.8,29.6,7.2,42.3c1.5,2.4,3.2,4.7,5,6.8c0.2,0.2,0.7,0.8,0.7,0.8c0.3,0.3,0.5,0.6,0.7,0.8c0.8,0.8,1.5,1.6,2.4,2.4   c0.2,0.2,0.4,0.4,0.6,0.5c0,0,0.9,0.8,1.1,1c6.9,6.1,15.4,10.4,24.5,12.5c4.1,0.9,8.3,1.4,12.5,1.4c7.1,0,14-1.3,20.6-4l1.5-0.6   l37.1,59c2.5,3,5.3,4.5,8.4,4.5c2.6,0,4.7-1.1,5.1-1.3c7.8-5.1,4.3-12.7,3.8-13.6L1201.3,761.8z M1190.3,756.6   c-0.3,0.2-0.6,0.5-0.9,0.7c-0.4,0.3-0.8,0.6-1.1,0.8c-1.2,0.8-2.4,1.6-3.6,2.3c-0.4,0.3-0.9,0.5-1.4,0.7c-0.5,0.3-1,0.5-1.5,0.7   c-6.1,2.9-12.7,4.4-19.5,4.4c-3.3,0-6.7-0.4-10-1.1c-3.2-0.7-6.4-1.9-9.5-3.3c-0.5-0.2-1-0.5-1.5-0.7c-0.5-0.3-0.9-0.5-1.4-0.7   c-1.2-0.7-2.4-1.5-3.6-2.3c-0.3-0.2-0.5-0.4-0.8-0.6l-0.2-0.2c-0.3-0.2-0.7-0.5-1-0.7c-3.9-3.1-7.3-6.9-10-11.2   c-6.4-10.1-8.4-22.1-5.8-33.8c0.6-2.5,1.3-4.9,2.3-7.3l0.6-1.4c0.5-1,1-2,1.5-3c0,0,0.3-0.6,0.4-0.7l0.4-0.7   c2.2-3.7,5-7.1,8.2-10.1l0.6-0.6l0.6-0.5c0.9-0.8,1.8-1.5,2.6-2.1l1.3-0.9c7.4-5,16.1-7.6,25.1-7.6c1.2,0,2.4,0.1,3.9,0.2   c0.6,0,1,0.1,1.5,0.1c0.5,0.1,1.1,0.1,1.6,0.2c1,0.2,2,0.3,3,0.6c3.9,0.9,7.6,2.3,11.1,4.2c0.5,0.3,1,0.5,1.4,0.8   c0.4,0.2,0.7,0.4,1.1,0.7l0.2,0.1c16.2,10.1,24.2,29.4,20,47.9C1203.8,741.4,1198.2,750.3,1190.3,756.6z"/>
	<path class="st0" d="M678.7,327.9c0,2.6,8.9,6.4,23,6.7v-13.4C687.7,321.5,678.7,325.2,678.7,327.9z"/>
	<polygon class="st0" points="1148.5,249 1132.5,324.8 1135.3,327.6 1138.3,330.6 1140.1,332.3 1141,327.9 1142.6,320.3    1156.1,256.6  "/>
	<path class="st0" d="M705.4,334.6c14.1-0.3,23-4.1,23-6.7c0-2.6-8.9-6.4-23-6.7V334.6z"/>
	<path class="st0" d="M705.4,317.4c20.8-0.3,33.5-6,33.5-10.1c0-4.1-12.7-9.8-33.5-10.1V317.4z"/>
	<polygon class="st0" points="1093.4,249.6 1088.4,273 1087.1,279.3 1087.6,279.8 1094.5,286.8 1098.3,269.2 1099.8,261.6    1104.8,238.2  "/>
	<path class="st0" d="M188.4,301.5l0-0.8l0-72.8l-18,0l-0.1,125l18,0L188.4,301.5z M183,293.8h-7.3v-2.1h7.3V293.8z M183,277.1h-7.3   V275h7.3V277.1z M183,260.4h-7.3v-2.1h7.3V260.4z M183,243.6h-7.3v-2.1h7.3V243.6z"/>
	<path class="st0" d="M705.4,345c8.1-0.3,12.3-2.5,12.6-3.4c-0.2-0.8-4.4-3-12.6-3.3V345z"/>
	<path class="st0" d="M643.8,245.8h-3.7h-1.6v112h1.6h3.7h118.7h3.7h2.5v-112h-2.5h-3.7H643.8z M723.8,295.4   c10.7,2.2,18.8,6.2,18.8,11.9c0,6.1-9.2,10.2-21,12.3c6.2,1.7,10.5,4.5,10.5,8.3c0,4.5-6.2,7.6-14.5,9.2c2.4,1.1,4,2.7,4,4.7   c0,4.9-9.4,7.1-18.1,7.1c-8.7,0-18.1-2.2-18.1-7.1c0-2,1.6-3.5,4-4.7c-8.3-1.6-14.5-4.7-14.5-9.2c0-3.7,4.3-6.5,10.5-8.3   c-11.8-2.1-21-6.2-21-12.3c0-5.7,8.1-9.7,18.9-11.9c-16.9-3.2-28.4-10.3-28.4-18.7c0-9.5,14.4-17.5,35.9-19.9c1-0.1,1.9,0.6,2,1.6   c0.1,1-0.6,1.9-1.6,2c-18.9,2.1-32.6,8.9-32.6,16.2c0,7.9,17.2,16.4,43,16.8v-36.7c0-1,0.8-1.9,1.9-1.9c1,0,1.9,0.8,1.9,1.9v36.7   c25.8-0.4,43-8.9,43-16.8c0-7-13.1-13.8-31.2-16c-1-0.1-1.7-1.1-1.6-2.1c0.1-1,1.1-1.8,2.1-1.6c20.9,2.6,34.5,10.3,34.5,19.7   C752.1,285.1,740.6,292.2,723.8,295.4z"/>
	<path class="st0" d="M668.3,307.3c0,4.1,12.7,9.8,33.5,10.1v-20.2C681,297.6,668.3,303.2,668.3,307.3z"/>
	<rect x="253.1" y="230.5" class="st3" width="29.6" height="32.3"/>
	<path class="st6" d="M1030.1,337.3c-13.2,13.2-13.2,34.6,0,47.8c13.2,13.2,34.6,13.2,47.7,0l54.3-54.3l-47.8-47.8L1030.1,337.3z"/>
	<path class="st6" d="M1076.2,176.7c-12.7-12.7-33.2-12.7-45.9,0c-12.6,12.6-12.6,33.2,0,45.9l41.8,41.8l45.9-45.9L1076.2,176.7z"/>
	<path class="st3" d="M318.2,187.4v-3.7v-9.2h-8.6c-0.9,0-1.7-0.7-1.8-1.6c-0.6-5.2-5.1-9.1-10.2-9.1c-5.2,0-9.6,3.9-10.3,9.1   c-0.1,0.9-0.9,1.6-1.8,1.6h-8.6v9.2v3.7v6.3h41.3V187.4z"/>
	<path class="st3" d="M761.1,231.7H645.2h-3.8h-19.2V372h18h3.7h20.7h3.7h70.6h3.7h20h3.7H785V231.7H765H761.1z M770.5,242.1   c1,0,1.9,0.8,1.9,1.9v115.7c0,1-0.8,1.9-1.9,1.9h-4.3h-3.7H643.8h-3.7h-3.4c-1,0-1.9-0.8-1.9-1.9V244c0-1,0.8-1.9,1.9-1.9h3.4h3.7   h118.7h3.7H770.5z"/>
	<polygon class="st0" points="1087.5,255.5 1075.4,267.6 1083.2,275.5  "/>
	<path d="M783.7,225h-23.2c-4.8-11.5-16.2-19.5-29.3-19.5h-18.6v-11.5c9.8-1,17.4-9.3,17.4-19.3V144c0-10.7-8.7-19.4-19.4-19.4   h-20.4c-10.7,0-19.4,8.7-19.4,19.4v30.7c0,10,7.6,18.3,17.4,19.3v11.5h-19.5c-13.2,0-24.5,8.1-29.3,19.5h-22.3   c-1,0-1.9,0.8-1.9,1.9v144.1c0,1,0.8,1.9,1.9,1.9H637v23.5c0,1,0.8,1.9,1.9,1.9h122.4c1,0,1.9-0.8,1.9-1.9v-23.5h20.7   c1,0,1.9-0.8,1.9-1.9V226.8C785.6,225.8,784.7,225,783.7,225z M674.5,174.6V144c0-8.6,7-15.7,15.7-15.7h20.4   c8.6,0,15.7,7,15.7,15.7v30.7c0,8.6-7,15.7-15.7,15.7h-20.4C681.6,190.3,674.5,183.3,674.5,174.6z M708.9,194v11.4h-17V194H708.9z    M668.8,209.1h21.3h20.7h20.4c11.1,0,20.7,6.5,25.2,15.8H643.5C648.1,215.6,657.7,209.1,668.8,209.1z M661.3,394.3h-20.7v-21.6   h20.7V394.3z M735.7,394.3H665v-21.6h70.6V394.3z M759.3,394.3h-20v-21.6h20V394.3z M781.9,369H763h-3.7h-20h-3.7H665h-3.7h-20.7   H637h-18V228.7h19.2h3.8H758h3.8h20.1V369z"/>
	<path d="M640.7,239.1H637h-3.4c-1,0-1.9,0.8-1.9,1.9v115.7c0,1,0.8,1.9,1.9,1.9h3.4h3.7h118.7h3.7h4.3c1,0,1.9-0.8,1.9-1.9V241   c0-1-0.8-1.9-1.9-1.9H763h-3.7H640.7z M765.5,242.8v112H763h-3.7H640.7H637h-1.6v-112h1.6h3.7h118.7h3.7H765.5z"/>
	<path d="M714.5,254c-1-0.1-1.9,0.6-2.1,1.6c-0.1,1,0.6,1.9,1.6,2.1c18.1,2.2,31.2,9,31.2,16c0,7.9-17.2,16.4-43,16.8v-36.7   c0-1-0.8-1.9-1.9-1.9c-1,0-1.9,0.8-1.9,1.9v36.7c-25.8-0.4-43-8.9-43-16.8c0-7.3,13.7-14.1,32.6-16.2c1-0.1,1.7-1,1.6-2   c-0.1-1-1-1.7-2-1.6c-21.5,2.4-35.9,10.3-35.9,19.9c0,8.5,11.5,15.6,28.4,18.7c-10.8,2.2-18.9,6.2-18.9,11.9   c0,6.1,9.2,10.2,21,12.3c-6.2,1.7-10.5,4.5-10.5,8.3c0,4.5,6.2,7.6,14.5,9.2c-2.4,1.1-4,2.7-4,4.7c0,4.9,9.4,7.1,18.1,7.1   c8.7,0,18.1-2.2,18.1-7.1c0-2-1.6-3.5-4-4.7c8.3-1.6,14.5-4.7,14.5-9.2c0-3.7-4.3-6.5-10.5-8.3c11.8-2.1,21-6.2,21-12.3   c0-5.7-8.1-9.7-18.8-11.9c16.9-3.2,28.4-10.3,28.4-18.7C748.9,264.3,735.4,256.6,714.5,254z M698.6,342c-8.1-0.3-12.3-2.5-12.6-3.3   c0.2-0.9,4.4-3.1,12.6-3.4V342z M698.6,331.6c-14.1-0.3-23-4.1-23-6.7c0-2.6,8.9-6.4,23-6.7V331.6z M698.6,314.4   c-20.8-0.3-33.5-6-33.5-10.1c0-4.1,12.7-9.8,33.5-10.1V314.4z M714.8,338.7c-0.2,0.9-4.4,3.1-12.6,3.4v-6.7   C710.4,335.6,714.6,337.8,714.8,338.7z M725.3,324.9c0,2.6-8.9,6.4-23,6.7v-13.4C716.4,318.5,725.3,322.2,725.3,324.9z    M735.7,304.3c0,4.1-12.7,9.8-33.5,10.1v-20.2C723,294.6,735.7,300.2,735.7,304.3z"/>
	<path d="M806.7,252.2c0.3,0,0.7-0.1,1-0.3l24.1-14.9c0.9-0.5,1.1-1.7,0.6-2.5c-0.5-0.9-1.7-1.1-2.5-0.6l-24.1,14.9   c-0.9,0.5-1.1,1.7-0.6,2.5C805.5,251.9,806.1,252.2,806.7,252.2z"/>
	<path d="M806.7,286.1c0.1,0,0.2,0,0.3,0l39.3-6.4c1-0.2,1.7-1.1,1.5-2.1c-0.2-1-1.1-1.7-2.1-1.5l-39.3,6.4c-1,0.2-1.7,1.1-1.5,2.1   C805,285.4,805.8,286.1,806.7,286.1z"/>
	<path d="M846.3,319.6l-39.3-7.1c-1-0.2-2,0.5-2.2,1.5c-0.2,1,0.5,2,1.5,2.2l39.3,7.1c0.1,0,0.2,0,0.3,0c0.9,0,1.7-0.6,1.8-1.5   C848,320.8,847.3,319.8,846.3,319.6z"/>
	<path d="M831.7,361.6L807.7,347c-0.9-0.5-2-0.2-2.5,0.6c-0.5,0.9-0.2,2,0.6,2.5l24.1,14.6c0.3,0.2,0.6,0.3,1,0.3   c0.6,0,1.2-0.3,1.6-0.9C832.9,363.2,832.6,362.1,831.7,361.6z"/>
	<path d="M568.3,237l24.1,14.9c0.3,0.2,0.6,0.3,1,0.3c0.6,0,1.2-0.3,1.6-0.9c0.5-0.9,0.3-2-0.6-2.5l-24.1-14.9   c-0.9-0.5-2-0.3-2.5,0.6C567.1,235.3,567.4,236.5,568.3,237z"/>
	<path d="M553.7,279.6L593,286c0.1,0,0.2,0,0.3,0c0.9,0,1.7-0.6,1.8-1.6c0.2-1-0.5-2-1.5-2.1l-39.3-6.4c-1-0.2-2,0.5-2.1,1.5   C552,278.5,552.7,279.4,553.7,279.6z"/>
	<path d="M593,312.5l-39.3,7.1c-1,0.2-1.7,1.1-1.5,2.2c0.2,0.9,0.9,1.5,1.8,1.5c0.1,0,0.2,0,0.3,0l39.3-7.1c1-0.2,1.7-1.1,1.5-2.2   C594.9,313,594,312.3,593,312.5z"/>
	<path d="M592.3,347l-24.1,14.6c-0.9,0.5-1.2,1.7-0.6,2.5c0.3,0.6,1,0.9,1.6,0.9c0.3,0,0.7-0.1,1-0.3l24.1-14.6   c0.9-0.5,1.2-1.7,0.6-2.5C594.3,346.7,593.2,346.5,592.3,347z"/>
	<path d="M228,369.3h132.7V198.4H228V369.3z M231.7,202.1H357v163.5H231.7V202.1z"/>
	<path d="M318.7,169.7c0-1-0.8-1.8-1.8-1.8H308c-1.5-6.2-7.1-10.7-13.6-10.7c-6.5,0-12.1,4.5-13.6,10.7h-8.9c-1,0-1.8,0.8-1.8,1.8   v11h-54.7v203.6h158V180.7h-54.7V169.7z M273.7,184.4v-3.7v-9.2h8.6c0.9,0,1.7-0.7,1.8-1.6c0.7-5.2,5.1-9.1,10.3-9.1   c5.2,0,9.6,3.9,10.2,9.1c0.1,0.9,0.9,1.6,1.8,1.6h8.6v9.2v3.7v6.3h-41.3V184.4z M369.7,184.4v196.2H219V184.4h51v8.1   c0,1,0.8,1.8,1.8,1.8h45c1,0,1.8-0.8,1.8-1.8v-8.1H369.7z"/>
	<path d="M283.9,223h-38.4v41.1h38.4V223z M279.5,259.8h-29.6v-32.3h29.6V259.8z"/>
	<rect x="295.5" y="231.2" width="46.4" height="5.1"/>
	<rect x="295.5" y="251" width="46.4" height="5.1"/>
	<rect x="247.7" y="270.7" width="94.2" height="5.1"/>
	<rect x="247.7" y="290.5" width="94.2" height="5.1"/>
	<rect x="247.7" y="310.2" width="94.2" height="5.1"/>
	<rect x="247.7" y="330" width="94.2" height="5.1"/>
	<path d="M160.7,397.3l0,5.8l30.8,0l0-5.8l-7.4,0l0-45.1l8,0v-4.6l-4.7,0l0-49.9v-1.2l0-10.8v-1.1l0-62.1l-7.7,0l0-15.3h-1.3   l-1.2-54.9l-2.4,0l-1.6,54.9h-0.9l0,15.3l-7.7,0l-0.1,125.1l-4.7,0l0,4.6l8,0l0,45.1L160.7,397.3z M176.1,199.8l0.1,5.5H176   L176.1,199.8z M175,209.6h2.5l0,11l-2.5,0L175,209.6z M167.2,349.9l0.1-125l18,0l0,72.8l0,0.8l0,51.3L167.2,349.9z M170.4,399.7   l0-46l11.4,0l0,46l7.4,0v1l-26.1,0v-1L170.4,399.7z"/>
	<rect x="172.5" y="238.5" width="7.3" height="2.1"/>
	<rect x="172.5" y="255.2" width="7.3" height="2.1"/>
	<rect x="172.5" y="271.9" width="7.3" height="2.1"/>
	<rect x="172.5" y="288.7" width="7.3" height="2.1"/>
	<path d="M756,585.5h-54v-40.7c0-1-0.8-1.9-1.9-1.9c-1,0-1.9,0.8-1.9,1.9v40.7h-53.5c-9.7,0-17.5,7.9-17.5,17.5   c0,9,6.9,16.5,15.7,17.4v42.3v109.2c0,0,0,0.1,0,0.1c0,0.2,0,0.3,0.1,0.5c0,0.1,0,0.1,0.1,0.2c0.1,0.2,0.2,0.4,0.3,0.5l18.9,19.6   v13.4c0,1,0.8,1.9,1.9,1.9h34.4v51.5c0,1,0.8,1.9,1.9,1.9c1,0,1.9-0.8,1.9-1.9v-51.5h33.8c1,0,1.9-0.8,1.9-1.9v-12.9c0,0,0,0,0,0   l19.4-20.2c0.1-0.2,0.3-0.3,0.3-0.5c0-0.1,0-0.1,0.1-0.2c0.1-0.2,0.1-0.3,0.1-0.5c0,0,0-0.1,0-0.1V662.8v-42.3   c8.8-0.9,15.7-8.4,15.7-17.4C773.6,593.4,765.7,585.5,756,585.5z M734.2,804.4h-68.2V794h68.2V804.4z M735.8,790.3H665l-15.8-16.5   h102.5L735.8,790.3z M754.2,770.1H646.7V664.6h44.2c-0.4,0.6-0.7,1.3-1.1,1.9c-0.1,0.1-0.1,0.2-0.2,0.3c-0.9,1.7-1.9,3.4-2.8,5.2   c-0.1,0.3-0.3,0.5-0.4,0.8c-0.3,0.6-0.6,1.2-1,1.9c-0.2,0.3-0.3,0.7-0.5,1c-0.3,0.6-0.6,1.1-0.8,1.7c-0.2,0.4-0.4,0.7-0.5,1.1   c-0.3,0.5-0.5,1.1-0.8,1.6c-0.2,0.4-0.4,0.8-0.5,1.2c-0.2,0.5-0.5,1-0.7,1.5c-0.2,0.4-0.4,0.8-0.5,1.2c-0.2,0.5-0.4,1-0.7,1.5   c-0.2,0.4-0.3,0.8-0.5,1.2c-0.2,0.5-0.4,1-0.6,1.5c-0.2,0.4-0.3,0.8-0.5,1.2c-0.2,0.5-0.4,1-0.6,1.5c-0.1,0.4-0.3,0.8-0.4,1.1   c-0.2,0.5-0.3,1-0.5,1.4c-0.1,0.4-0.3,0.7-0.4,1.1c-0.2,0.5-0.3,1-0.4,1.4c-0.1,0.4-0.2,0.7-0.3,1c-0.1,0.5-0.3,1-0.4,1.4   c-0.1,0.3-0.2,0.6-0.2,0.9c-0.1,0.5-0.2,1-0.3,1.5c0,0.2-0.1,0.5-0.2,0.8c-0.1,0.7-0.2,1.5-0.3,2.1c0,0,0,0.2,0,0.2   c-0.1,1-0.1,1.8-0.1,2.5c0,14.3,11.6,25.9,25.9,25.9c14.3,0,25.9-11.6,25.9-25.8c0-0.9-0.1-1.8-0.1-2.6c0,0,0-0.2,0-0.2   c-0.1-0.7-0.2-1.4-0.3-2.1c0-0.3-0.1-0.5-0.2-0.8c-0.1-0.5-0.2-1-0.3-1.5c-0.1-0.3-0.2-0.6-0.2-1c-0.1-0.5-0.2-0.9-0.4-1.4   c-0.1-0.3-0.2-0.7-0.3-1.1c-0.1-0.5-0.3-0.9-0.4-1.4c-0.1-0.4-0.3-0.8-0.4-1.1c-0.2-0.5-0.3-0.9-0.5-1.4c-0.1-0.4-0.3-0.8-0.4-1.2   c-0.2-0.5-0.4-1-0.5-1.4c-0.2-0.4-0.3-0.8-0.5-1.2c-0.2-0.5-0.4-1-0.6-1.5c-0.2-0.4-0.3-0.8-0.5-1.2c-0.2-0.5-0.4-1-0.7-1.5   c-0.2-0.4-0.4-0.8-0.5-1.2c-0.2-0.5-0.5-1-0.7-1.6c-0.2-0.4-0.4-0.8-0.5-1.2c-0.3-0.5-0.5-1.1-0.8-1.6c-0.2-0.4-0.3-0.7-0.5-1.1   c-0.3-0.6-0.6-1.1-0.9-1.7c-0.2-0.3-0.3-0.6-0.5-1c-0.3-0.7-0.7-1.3-1-2c-0.1-0.2-0.2-0.5-0.4-0.7c-0.9-1.8-1.9-3.6-2.8-5.3   c0,0,0,0,0,0c-0.4-0.7-0.8-1.5-1.2-2.2h44.2V770.1z M676.5,704.3l1.9,0c1.2-11.4,11.3-30.3,17.3-40.6c1.9-3.4,3.6-6.2,4.8-8   c1.1,1.9,2.8,4.7,4.8,8c5.9,10.3,16.1,29.2,17.2,40.5c0,0.1,0,0.2,0,0.3c0.1,0.9,0.1,1.6,0.1,2.2c0,12.2-9.9,22.2-22.2,22.2   c-12.2,0-22.2-9.9-22.2-22.2c0-0.6,0-1.3,0.1-2.1L676.5,704.3z M754.2,660.9h-46.3c-0.2-0.3-0.3-0.6-0.5-0.9   c-0.1-0.3-0.3-0.5-0.4-0.7c-0.3-0.4-0.5-0.8-0.7-1.2c-0.2-0.3-0.3-0.5-0.5-0.8c-0.2-0.3-0.4-0.6-0.6-1c-0.2-0.3-0.3-0.6-0.5-0.8   c-0.1-0.2-0.3-0.4-0.4-0.7c-0.2-0.3-0.4-0.6-0.5-0.8c-0.1-0.1-0.2-0.2-0.2-0.4c-0.2-0.3-0.4-0.6-0.5-0.8c0,0,0,0,0,0   c-0.6-1-1-1.5-1-1.5c-0.3-0.5-0.9-0.9-1.6-0.9c-0.6,0-1.2,0.3-1.6,0.9c0,0-0.6,1-1.6,2.6c0,0.1-0.1,0.1-0.1,0.1   c-0.2,0.3-0.4,0.7-0.6,1c-0.1,0.2-0.2,0.3-0.3,0.4c-0.2,0.3-0.4,0.6-0.6,1c-0.2,0.3-0.3,0.5-0.5,0.8c-0.2,0.3-0.3,0.6-0.5,0.9   c-0.2,0.4-0.5,0.8-0.7,1.2c-0.1,0.2-0.3,0.5-0.4,0.7c-0.2,0.3-0.3,0.6-0.5,0.9h-46.3v-40.3h107.5V660.9z M756,616.9H644.8   c-7.6,0-13.8-6.2-13.8-13.8c0-7.6,6.2-13.8,13.8-13.8H756c7.6,0,13.8,6.2,13.8,13.8C769.9,610.7,763.7,616.9,756,616.9z"/>
	<path d="M1184.2,278.5l54.3-54.3c14.8-14.8,14.8-38.9,0-53.7c-14.8-14.8-38.9-14.8-53.7,0l-54.3,54.3l-54.3-54.3   c-14.4-14.4-37.9-14.4-52.3,0c-14.4,14.4-14.4,37.9,0,52.3l54.3,54.3l-54.3,54.3c-14.8,14.8-14.8,38.9,0,53.7   c14.8,14.8,38.9,14.8,53.7,0l54.3-54.3l54.3,54.3c14.4,14.4,37.9,14.4,52.3,0c14.4-14.4,14.4-37.9,0-52.3L1184.2,278.5z    M1188.3,288.9l-13.2,13.2l3.9-18.4l0.7-3.4l1.3,1.3L1188.3,288.9z M1174.7,282.1l-1.6,7.5l-3.9,18.4l-11.7,11.7l3.9-18.4l1.6-7.5   l5.3-24.9l7.6,7.6L1174.7,282.1z M1187.8,173.5c13.2-13.2,34.6-13.2,47.8,0c13.2,13.2,13.2,34.6,0,47.8l-54.3,54.3l-47.8-47.8   L1187.8,173.5z M1134,234.6l7.5,7.5l-16,75.8l-7.5-7.5L1134,234.6z M1122.6,223.2l4.7,4.7l2.8,2.8l-0.1,0.4l-15.9,75.3l-7.5-7.5   l11.9-56.2l1.6-7.5L1122.6,223.2z M1114.1,241.1l-1.6,7.5l-9.8,46.5l-7.5-7.5l5.8-27.4l1.6-7.5l4.9-23.4l11.6-11.6L1114.1,241.1z    M1095.1,266.2l-3.7,17.6l-6.9-6.9l-0.5-0.5l1.3-6.3l5-23.4l11.4-11.4l-5,23.4L1095.1,266.2z M1027.2,219.6   c-12.7-12.7-12.7-33.2,0-45.9c12.6-12.6,33.2-12.6,45.9,0l41.8,41.8l-45.9,45.9L1027.2,219.6z M1072.2,264.6l12.1-12.1l-4.2,20   L1072.2,264.6z M1074.7,382.1c-13.2,13.2-34.6,13.2-47.8,0c-13.2-13.2-13.2-34.6,0-47.8l54.3-54.3l47.8,47.8L1074.7,382.1z    M1137.8,324.9l-0.9,4.4l-1.8-1.8l-3-3l-2.8-2.8l16-75.8l7.5,7.5l-13.5,63.8L1137.8,324.9z M1140.7,333.2l3-14.2l1.6-7.5l11.4-54   l7.6,7.6l-7.3,34.7l-1.6,7.5l-3.9,18.4l-9.2,9.2L1140.7,333.2z M1235.3,381.8c-12.6,12.6-33.2,12.6-45.9,0l-43.8-43.8l45.9-45.9   l43.8,43.8C1247.9,348.6,1247.9,369.2,1235.3,381.8z"/>
	<path d="M300.5,619.4v-8.6h21.8V566H206.5v44.8h21.8v8.6c-27.7,6.4-47.6,31.3-47.6,60v113.4c0,14.4,5,28.3,14.2,39.4l0.7,0.9h137.6   l0.7-0.9c9.2-11,14.2-25,14.2-39.4v-91.2v-22.2C348.1,650.7,328.2,625.8,300.5,619.4z M211.4,605.9V571h106v34.9h-16.8h-72.3H211.4   z M343.2,717.5h-78.9v4.9h78.9v49.5h-78.9v4.9h78.9v11H234.8v-81.3h108.4V717.5z M343.2,701.6H229.9v91.2h113.4   c0,12.8-4.4,25.3-12.4,35.3h-133c-8-10-12.4-22.5-12.4-35.3V681.8h157.7V701.6z M185.6,676.9c1.1-25.9,19.9-48.1,45.6-53.1l2-0.4   v-12.6h62.4v12.6l2,0.4c25.6,5.1,44.4,27.2,45.5,53.1H185.6z"/>
	<rect x="304.6" y="577.1" width="4.9" height="22.6"/>
	<rect x="293.9" y="577.1" width="4.9" height="22.6"/>
	<rect x="283.3" y="577.1" width="4.9" height="22.6"/>
	<rect x="272.6" y="577.1" width="4.9" height="22.6"/>
	<rect x="261.9" y="577.1" width="4.9" height="22.6"/>
	<rect x="251.2" y="577.1" width="4.9" height="22.6"/>
	<rect x="240.5" y="577.1" width="4.9" height="22.6"/>
	<rect x="229.9" y="577.1" width="4.9" height="22.6"/>
	<rect x="219.2" y="577.1" width="4.9" height="22.6"/>
	<path d="M331.7,752.1c2.7,0,4.9-2.2,4.9-4.9c0-2.7-2.2-4.9-4.9-4.9c-2.7,0-4.9,2.2-4.9,4.9C326.8,749.9,329,752.1,331.7,752.1z"/>
	<path d="M309.9,752.1c2.7,0,4.9-2.2,4.9-4.9c0-2.7-2.2-4.9-4.9-4.9c-2.7,0-4.9,2.2-4.9,4.9C305,749.9,307.2,752.1,309.9,752.1z"/>
	<path d="M288.2,752.1c2.7,0,4.9-2.2,4.9-4.9c0-2.7-2.2-4.9-4.9-4.9c-2.7,0-4.9,2.2-4.9,4.9C283.2,749.9,285.5,752.1,288.2,752.1z"/>
	<path d="M1182.9,680.5l-0.2-0.1c-0.4-0.2-0.7-0.5-1.1-0.7c-0.5-0.3-0.9-0.5-1.4-0.8c-3.5-1.9-7.3-3.3-11.1-4.2c-1-0.2-2-0.4-3-0.6   c-0.5-0.1-1.1-0.2-1.6-0.2c-0.4-0.1-0.9-0.1-1.5-0.1c-1.4-0.1-2.7-0.2-3.9-0.2c-9,0-17.7,2.6-25.1,7.6l-1.3,0.9   c-0.9,0.6-1.7,1.3-2.6,2.1l-0.6,0.5l-0.6,0.6c-3.2,2.9-6,6.3-8.2,10.1l-0.4,0.7c-0.1,0.2-0.4,0.7-0.4,0.7c-0.5,1-1,2-1.5,3   l-0.6,1.4c-1,2.3-1.7,4.8-2.3,7.3c-2.7,11.7-0.6,23.7,5.8,33.8c2.7,4.3,6.1,8.1,10,11.2c0.3,0.3,0.6,0.5,1,0.7l0.2,0.2   c0.3,0.2,0.5,0.4,0.8,0.6c1.2,0.8,2.4,1.6,3.6,2.3c0.4,0.2,0.9,0.5,1.4,0.7c0.5,0.3,1,0.5,1.5,0.7c3,1.5,6.2,2.6,9.5,3.3   c3.3,0.7,6.6,1.1,10,1.1c6.8,0,13.4-1.5,19.5-4.4c0.5-0.2,1-0.5,1.5-0.7c0.5-0.2,0.9-0.5,1.4-0.7c1.2-0.7,2.4-1.5,3.6-2.3   c0.3-0.2,0.7-0.5,1.1-0.8c0.3-0.2,0.6-0.5,0.9-0.7c7.9-6.3,13.5-15.2,15.7-25.2C1207.1,709.9,1199,690.6,1182.9,680.5z    M1199.1,727.5c-2.8,12.4-10.9,22.5-22.3,27.9c-0.6,0.3-1.2,0.5-1.8,0.8c-0.7,0.3-1.3,0.5-2,0.8c-4.4,1.6-9.1,2.4-13.9,2.4   c-3.1,0-6.1-0.3-9.1-1c-1.5-0.3-3.1-0.8-4.6-1.4c-0.7-0.2-1.4-0.5-2-0.8c-0.6-0.2-1.2-0.5-1.8-0.8c-7-3.3-12.9-8.6-17.1-15.2   c-5.8-9.2-7.7-20.2-5.3-30.9c0.7-3.2,1.9-6.4,3.3-9.3c0.2-0.3,0.3-0.6,0.5-1c0.2-0.4,0.4-0.7,0.6-1c2.2-3.9,5.1-7.4,8.4-10.4   c0.3-0.3,0.6-0.5,0.9-0.8c0.3-0.2,0.6-0.5,0.8-0.7c6.6-5.2,14.6-8.2,23-8.6c0.3,0,0.6,0,0.9,0c0.3,0,1.3,0,1.3,0   c1.1,0,2.3,0.1,3.7,0.2c0,0,0.8,0.1,1.1,0.1c0.3,0,1.1,0.1,1.1,0.1c1.3,0.2,2.3,0.4,3.3,0.6c3.7,0.9,7.3,2.2,10.7,4.1   c0,0,0.7,0.4,0.9,0.5c0.3,0.2,0.5,0.3,0.9,0.5c1.2,0.7,2.3,1.5,3.5,2.4l0.6,0.5c0.2,0.2,0.4,0.3,0.7,0.6   C1197.3,697.2,1202.4,712.6,1199.1,727.5z"/>
	<path d="M1203,759.4l0.6-0.6l1-1.1c0.7-0.8,1.3-1.5,1.9-2.3c0,0,1.1-1.5,1.4-1.8c0,0,0.6-0.8,0.8-1c0.8-1.1,1.5-2.3,2.3-3.7   c0.3-0.4,0.5-0.9,0.7-1.3l0.3-0.5c0.2-0.3,0.3-0.6,0.5-0.9c2.3-4.5,4.1-9.3,5.2-14.3c3.1-13.7,1.3-28.2-5.2-40.8l-0.1-0.2V612   c0-0.9-0.7-1.6-1.6-1.6h-89.6v-2.2c0-7.9-6.4-14.3-14.3-14.3h-39.7c-7.9,0-14.3,6.4-14.3,14.3v2.2h-24.4c-0.9,0-1.6,0.7-1.6,1.6   v145.1c0,0.9,0.7,1.6,1.6,1.6h86.4l0.3,0.4c8.2,9,18.9,15.1,30.8,17.8c4.4,1,8.8,1.5,13.3,1.5c6.8,0,13.4-1.1,19.7-3.4l0.8-0.3   l35.5,56.4l0.2,0.2c4,4.9,8.4,6,11.4,6c4,0,6.9-1.7,7.2-1.9c8.9-5.8,7.2-14.8,5.2-18.7L1203,759.4z M1029.9,755.6v-142h24.4   c0.9,0,1.6-0.7,1.6-1.6v-3.8c0-6.1,5-11.1,11.1-11.1h39.7c6.1,0,11.1,5,11.1,11.1v3.8c0,0.9,0.7,1.6,1.6,1.6h89.6v71.6l-2-2.7   c-8.5-11.4-20.8-19.4-34.6-22.5c-4.4-1-8.9-1.5-13.3-1.5c-13.8,0-27.3,4.8-37.9,13.5l-0.8,0.7c-0.3,0.3-0.6,0.5-0.9,0.8   c-1.8,1.6-3.5,3.3-5.1,5c-1.2,1.3-2.3,2.7-3.4,4.2c-1.4,1.9-2.7,3.9-3.9,5.9c-0.1,0.3-1.1,2-1.1,2c-2.4,4.6-4.2,9.5-5.3,14.6   c-3.5,15.6-0.8,31.7,7.7,45.2c0.7,1,1.4,2.1,2.3,3.4l1.3,1.8H1029.9z M1231.9,832.2c-0.4,0.2-2.4,1.3-5.1,1.3   c-3.1,0-5.9-1.5-8.4-4.5l-37.1-59l-1.5,0.6c-6.6,2.6-13.5,4-20.6,4c-4.2,0-8.4-0.5-12.5-1.4c-9.1-2.1-17.6-6.4-24.5-12.5   c-0.2-0.2-1.1-1-1.1-1c-0.2-0.2-0.4-0.4-0.6-0.5c-0.8-0.8-1.6-1.6-2.4-2.4c-0.2-0.2-0.4-0.5-0.7-0.8c0,0-0.5-0.6-0.7-0.8   c-1.8-2.1-3.5-4.4-5-6.8c-8-12.7-10.5-27.7-7.2-42.3c0.8-3.4,1.9-6.7,3.2-9.9l0.7-1.6c0.5-1.1,1.1-2.2,1.6-3.2l0.4-0.8l0.4-0.8   c2.8-4.8,6.4-9.1,10.5-12.9l0.7-0.6l0.7-0.6c0.9-0.8,1.9-1.5,2.8-2.3l0.7-0.5l0.7-0.5c9.4-6.6,20.6-10.1,32.2-10.1   c4.2,0,8.4,0.5,12.5,1.4c16.1,3.7,29.7,14.2,37.4,29c0.3,0.5,0.5,1,0.8,1.6c0.3,0.6,0.5,1.1,0.8,1.7c0.9,2.1,1.7,4.3,2.4,6.6   c0.3,1,0.5,1.9,0.8,2.9c0.3,1.2,0.6,2.5,0.8,3.9c1,6.1,1,12.2,0,18.3c-0.2,1.1-0.4,2.2-0.6,3.3c0,0.1-0.1,0.6-0.1,0.6   c-0.2,1-0.5,2-0.8,2.9c-0.6,2.1-1.4,4.3-2.4,6.6c-0.3,0.6-0.5,1.1-0.8,1.7c-0.3,0.5-0.5,1-0.8,1.6c-2,4-4.5,7.7-7.4,11   c-0.1,0.2-0.7,0.8-0.7,0.8c-0.2,0.3-0.5,0.5-0.7,0.8l-0.3,0.4c-0.2,0.2-0.4,0.4-0.6,0.6l-1.1,1.1l37.6,59.8   C1236.2,819.5,1239.7,827.1,1231.9,832.2z"/>
	<path d="M1174.7,701.5l-0.2,0c-1.1,0-2.2,0.2-3.2,0.7c-0.4,0.2-0.7,0.3-1,0.5l-8.4,5.3l-5.3-8.4c-1.5-2.3-4-3.7-6.7-3.7   c-1.5,0-2.9,0.4-4.2,1.2c-3.7,2.3-4.8,7.2-2.5,10.9l5.3,8.4l-8.4,5.3c-1.8,1.1-3,2.9-3.5,4.9c-0.5,2.1-0.1,4.2,1,6   c1.5,2.3,4,3.7,6.7,3.7c1.5,0,2.9-0.4,4.2-1.2l8.4-5.3l5.3,8.4c1.5,2.3,4,3.7,6.7,3.7c1.5,0,2.9-0.4,4.2-1.2c1.8-1.1,3-2.9,3.5-4.9   c0.5-2.1,0.1-4.2-1-6l-5.3-8.4l8.4-5.3c1.8-1.1,3-2.9,3.5-4.9c0.5-2.1,0.1-4.2-1-6C1179.8,702.9,1177.4,701.5,1174.7,701.5z    M1178.4,710.2c-0.2,1-0.9,1.9-1.8,2.5l-11.7,7.4l7.4,11.7c0.6,0.9,0.8,2,0.5,3c-0.2,1-0.9,1.9-1.8,2.5c-0.6,0.4-1.3,0.6-2.1,0.6   c-1.4,0-2.7-0.7-3.4-1.9l-7.4-11.7l-11.7,7.4c-0.6,0.4-1.4,0.6-2.1,0.6c-1.4,0-2.7-0.7-3.4-1.9c-0.6-0.9-0.8-2-0.5-3   c0.2-1,0.9-1.9,1.8-2.5l11.7-7.4l-7.4-11.7c-0.6-0.9-0.8-2-0.5-3c0.2-1,0.9-1.9,1.8-2.5c0.6-0.4,1.3-0.6,2.1-0.6   c1.4,0,2.7,0.7,3.4,1.9l7.4,11.7l11.7-7.4c0.6-0.4,1.3-0.6,2.1-0.6c1.4,0,2.7,0.7,3.4,1.9C1178.5,708.1,1178.7,709.2,1178.4,710.2z   "/>
	<path d="M1069,672.2c-7.7,0-13.9,6.3-13.9,13.9c0,7.7,6.3,13.9,13.9,13.9c7.7,0,13.9-6.3,13.9-13.9   C1083,678.4,1076.7,672.2,1069,672.2z M1069,696c-5.4,0-9.9-4.4-9.9-9.9c0-5.4,4.4-9.9,9.9-9.9s9.9,4.4,9.9,9.9   C1078.9,691.5,1074.5,696,1069,696z"/>
</g>
</svg>
