<?xml version="1.0" encoding="UTF-8"?>
<svg xmlns="http://www.w3.org/2000/svg" xmlns:xlink="http://www.w3.org/1999/xlink" width="2500" height="2500" viewBox="0 0 2500 2500">
<path fill-rule="evenodd" fill="rgb(71.484375%, 83.59375%, 93.359375%)" fill-opacity="1" d="M 432.324219 2043.484375 C 315.15625 2001.03125 194.847656 1948.472656 147.042969 1823.746094 C 27.695312 1512.359375 442.921875 1561.964844 449.460938 1343.628906 C 454.460938 1176.691406 230.171875 928.378906 317.25 739.910156 C 352.417969 663.800781 428.296875 598.371094 503.105469 561.761719 C 623.800781 502.671875 761.445312 556.148438 885 515.351562 C 1082.101562 450.269531 1189.101562 235.398438 1416.808594 250.789062 C 1743.191406 272.839844 1665.871094 497.511719 1892.058594 618.539062 C 2008.058594 680.621094 2193.011719 675.488281 2284.238281 740.191406 C 2294.578125 747.519531 2303.851562 756.558594 2311.089844 766.96875 C 2420.160156 923.648438 2244.230469 1099.398438 2223.78125 1250.851562 C 2216.5 1304.710938 2271.921875 1347.039062 2306.21875 1380.558594 C 2427.390625 1498.988281 2368.339844 1712.835938 2275.628906 1836.445312 C 2226.160156 1902.398438 2156.03125 1954.121094 2112.730469 2025.128906 L 432.324219 2043.484375 "/>
<path fill-rule="evenodd" fill="rgb(82.421875%, 91.40625%, 98.4375%)" fill-opacity="1" d="M 1287.308594 1852.542969 C 1831.019531 1852.542969 2272.441406 1941.589844 2272.441406 2051.269531 C 2272.441406 2160.953125 1831.019531 2250 1287.308594 2250 C 743.59375 2250 302.171875 2160.953125 302.171875 2051.269531 C 302.171875 1941.589844 743.59375 1852.542969 1287.308594 1852.542969 "/>
<path fill-rule="evenodd" fill="rgb(79.6875%, 60.742188%, 34.49707%)" fill-opacity="1" d="M 1039.429688 1205.769531 C 1038.890625 1191.371094 1043.328125 1174.910156 1051.640625 1162.148438 C 1058.089844 1152.261719 1066.910156 1144.179688 1078.628906 1144.519531 C 1099.5 1145.140625 1109.699219 1156.890625 1115.28125 1170.980469 C 1120.320312 1183.730469 1122.320312 1198.03125 1123.949219 1210.410156 C 1145.808594 1376.589844 1173.308594 2123.449219 1173.308594 2123.449219 L 1217.640625 2121.816406 C 1217.640625 2121.816406 1189.890625 1371.570312 1167.929688 1204.628906 C 1162.101562 1160.269531 1147.550781 1102.179688 1079.941406 1100.179688 C 1057.488281 1099.519531 1038.199219 1109.589844 1023.570312 1125.988281 C 1004.628906 1147.25 994.066406 1179.691406 995.097656 1207.421875 L 1039.429688 1205.769531 "/>
<path fill-rule="evenodd" fill="rgb(50.584412%, 53.318787%, 53.318787%)" fill-opacity="1" d="M 1324.191406 717.308594 C 1321.699219 716.988281 1317.988281 713.128906 1315.71875 712.070312 C 1298.859375 704.230469 1311.460938 695.75 1306.429688 684.570312 C 1304.789062 680.929688 1300.929688 677.898438 1300.390625 673.859375 C 1299.449219 666.730469 1305.910156 658.75 1306.878906 651.671875 C 1308.308594 641.070312 1304.269531 631.960938 1306.710938 622.789062 C 1310.039062 610.28125 1326.5 594.351562 1333.941406 582.621094 C 1339.558594 573.75 1340.238281 562.460938 1347.339844 554.328125 C 1356.941406 543.320312 1371.371094 539.851562 1385.378906 540.828125 C 1391.859375 541.28125 1398.328125 543.808594 1404.859375 542.519531 C 1418.171875 539.878906 1429 531.558594 1442.988281 531.378906 C 1455.019531 531.230469 1465.140625 541.25 1475.609375 545.851562 C 1483.03125 549.109375 1491.398438 547.78125 1499.109375 549.878906 C 1505.398438 551.601562 1509.460938 557.410156 1514.980469 560.660156 C 1523.671875 565.769531 1527.988281 563.339844 1536.359375 572.300781 C 1541.261719 577.539062 1544.671875 583.421875 1545.410156 590.648438 C 1545.71875 593.601562 1544.578125 601.910156 1545.25 602.578125 C 1549.789062 607.121094 1564.550781 607.359375 1571.53125 613.820312 C 1579.53125 621.21875 1578.058594 633.78125 1581.160156 642.691406 C 1584.761719 653.050781 1591.671875 662.570312 1593.808594 673.859375 C 1596.929688 690.300781 1583.980469 697.5 1582.648438 713.511719 C 1581.738281 724.539062 1584.871094 735.828125 1581.160156 746.550781 C 1575.871094 761.859375 1561.191406 768.589844 1553.191406 781.058594 C 1548.789062 787.910156 1555.46875 795.140625 1547.429688 805.910156 C 1536.480469 820.609375 1511.601562 819.738281 1495.429688 820.171875 C 1488.890625 820.351562 1482.011719 820.980469 1475.671875 818.988281 C 1465.921875 815.929688 1458.578125 806.210938 1450.761719 800.050781 C 1434.828125 787.511719 1417.601562 774.71875 1400.128906 764.441406 C 1389.738281 758.328125 1379.21875 752.269531 1367.898438 748.058594 C 1351.089844 741.808594 1337.371094 730.171875 1324.191406 717.308594 "/>
<path fill-rule="evenodd" fill="rgb(0%, 0%, 0%)" fill-opacity="1" d="M 717.78125 2058.292969 C 741.621094 2064.21875 765.070312 2079.894531 783.507812 2091.621094 C 799.878906 2102.03125 822.390625 2118.46875 828.410156 2128.648438 C 832.753906 2136.003906 827.871094 2150.535156 819.613281 2152.71875 C 781.96875 2162.671875 637.953125 2162.785156 605.300781 2143.925781 C 587.898438 2133.871094 617.800781 2050.421875 617.800781 2050.421875 C 617.800781 2050.421875 690.160156 2051.425781 717.78125 2058.292969 "/>
<path fill-rule="evenodd" fill="rgb(0%, 0%, 0%)" fill-opacity="1" d="M 1008.46875 2037.925781 C 1032.308594 2043.851562 1060.390625 2064.15625 1078.828125 2075.882812 C 1095.191406 2086.292969 1116.78125 2105.96875 1122.800781 2116.152344 C 1127.140625 2123.503906 1122.261719 2138.039062 1114 2140.222656 C 1076.359375 2150.171875 932.34375 2150.289062 899.691406 2131.425781 C 882.289062 2121.378906 912.1875 2037.925781 912.1875 2037.925781 C 912.1875 2037.925781 980.847656 2031.058594 1008.46875 2037.925781 "/>
<path fill-rule="evenodd" fill="rgb(0%, 0%, 0%)" fill-opacity="1" d="M 1523.460938 2042.328125 C 1499.628906 2048.257812 1471.539062 2068.558594 1453.109375 2080.285156 C 1436.738281 2090.695312 1415.148438 2110.371094 1409.140625 2120.554688 C 1404.789062 2127.910156 1409.671875 2142.441406 1417.929688 2144.625 C 1455.578125 2154.578125 1599.589844 2154.691406 1632.238281 2135.828125 C 1649.640625 2125.78125 1619.738281 2042.328125 1619.738281 2042.328125 C 1619.738281 2042.328125 1551.078125 2035.464844 1523.460938 2042.328125 "/>
<path fill-rule="evenodd" fill="rgb(0%, 0%, 0%)" fill-opacity="1" d="M 1867.75 2032.152344 C 1845.070312 2041.59375 1820.359375 2065.882812 1803.898438 2080.246094 C 1789.269531 2092.996094 1770.890625 2115.691406 1766.46875 2126.664062 C 1763.28125 2134.589844 1770.289062 2148.222656 1778.78125 2149.140625 C 1817.488281 2153.324219 1959.890625 2131.808594 1989.339844 2108.257812 C 2005.03125 2095.707031 1962.941406 2017.691406 1962.941406 2017.691406 C 1962.941406 2017.691406 1894.03125 2021.21875 1867.75 2032.152344 "/>
<path fill-rule="evenodd" fill="rgb(43.505859%, 74.804688%, 82.617188%)" fill-opacity="1" d="M 610.390625 1110.78125 C 586.71875 1434.910156 588.335938 1749.296875 610.390625 2058.292969 C 650.5 2069.789062 689.976562 2071.773438 728.425781 2058.292969 C 762.183594 1862.546875 784.894531 1659.671875 802.023438 1440.351562 C 848.628906 1642.535156 878.972656 1847.078125 900.617188 2045.332031 C 942.109375 2050.386719 980.109375 2047.199219 1014.949219 2036.535156 C 1057.171875 1679.640625 1009.769531 1376.691406 928.855469 1110.78125 L 610.390625 1110.78125 "/>
<path fill-rule="evenodd" fill="rgb(43.505859%, 74.804688%, 82.617188%)" fill-opacity="1" d="M 800.953125 587.328125 L 594.191406 925.171875 L 597.894531 1127.910156 C 699.46875 1166.980469 816.160156 1168.808594 938.109375 1138.550781 L 973.289062 804.820312 L 892.199219 608.921875 L 800.953125 587.328125 "/>
<path fill-rule="evenodd" fill="rgb(92.1875%, 71.875%, 57.617188%)" fill-opacity="1" d="M 1150.570312 833.519531 C 1150.570312 833.519531 1188.820312 892.660156 1210.738281 886.289062 C 1323.839844 853.421875 1404.691406 839.53125 1404.691406 839.53125 L 1413.949219 905.71875 C 1413.949219 905.71875 1278.25 978.398438 1196.398438 1012.191406 C 1146.761719 1032.679688 1049.660156 916.371094 1049.660156 916.371094 L 1150.570312 833.519531 "/>
<path fill-rule="evenodd" fill="rgb(92.1875%, 71.875%, 57.617188%)" fill-opacity="1" d="M 735.371094 912.671875 C 735.371094 912.671875 729.566406 950.761719 736.757812 956.179688 C 775.578125 985.410156 955.699219 1101.988281 955.699219 1101.988281 C 955.699219 1101.988281 1028.679688 1090.640625 1046.421875 1095.039062 C 1059.578125 1098.300781 1069.570312 1129.828125 1062.628906 1140.410156 C 1055.679688 1150.96875 1020.121094 1151.359375 1001.058594 1158.921875 C 983.589844 1165.851562 968.855469 1191.21875 942.738281 1179.289062 C 869.25 1145.699219 689.082031 1088.179688 632.148438 1045.980469 C 601.347656 1023.148438 604.839844 923.78125 604.839844 923.78125 L 735.371094 912.671875 "/>
<path fill-rule="evenodd" fill="rgb(92.1875%, 71.875%, 57.617188%)" fill-opacity="1" d="M 1164.460938 1112.171875 C 1164.460938 1112.171875 1133.28125 1070.511719 1095.03125 1073.289062 C 999.132812 1080.25 1020.46875 1153.738281 1037.171875 1147.351562 C 1037.171875 1147.351562 1029.738281 1159.058594 1037.171875 1164.46875 C 1048.628906 1172.839844 1065.089844 1161.699219 1077.441406 1164.46875 C 1087.679688 1166.78125 1093.710938 1175.269531 1101.96875 1177.441406 C 1108.691406 1179.191406 1126.5 1177.441406 1126.5 1177.441406 L 1164.460938 1112.171875 "/>
<path fill-rule="evenodd" fill="rgb(98.046875%, 48.997498%, 44.700623%)" fill-opacity="1" d="M 1404.230469 845.089844 C 1404.230469 845.089844 1347.101562 873.890625 1328.78125 900.171875 C 1293.101562 951.359375 1286.378906 1150.140625 1269.988281 1164.011719 C 1257.570312 1174.53125 1168.160156 1104.300781 1168.160156 1104.300781 C 1141.730469 1120.898438 1123.441406 1147.609375 1118.628906 1182.058594 C 1118.628906 1182.058594 1263.761719 1315.140625 1317.671875 1305.648438 C 1383.398438 1294.078125 1441.71875 1115.871094 1441.71875 1115.871094 L 1404.230469 845.089844 "/>
<path fill-rule="evenodd" fill="rgb(98.046875%, 48.997498%, 44.700623%)" fill-opacity="1" d="M 1489.398438 811.300781 C 1486.441406 822.890625 1700.210938 773.078125 1851.828125 891.769531 C 1932.328125 954.789062 1799.988281 1167.25 1799.988281 1167.25 L 1738.890625 1090.878906 C 1738.890625 1090.878906 1763.808594 1000.691406 1753.699219 979.320312 C 1743.589844 957.949219 1678.25 962.660156 1678.25 962.660156 L 1500.589844 858.441406 L 1489.398438 811.300781 "/>
<path fill-rule="evenodd" fill="rgb(50.584412%, 34.104919%, 20.800781%)" fill-opacity="1" d="M 1758.328125 1072.820312 C 1758.328125 1072.820312 1854.898438 1157.238281 1871.738281 1252.878906 C 1902.5 1427.679688 1838.128906 1449.109375 1855.539062 1574.585938 C 1875.050781 1715.300781 1964.769531 2017.558594 1964.769531 2017.558594 C 1926.96875 2034.550781 1890.421875 2046.457031 1855.539062 2038.851562 C 1855.539062 2038.851562 1742.441406 1781.800781 1712.039062 1685.675781 C 1696.960938 1637.976562 1678.71875 1468.578125 1678.71875 1468.578125 C 1678.71875 1468.578125 1625.929688 1626.621094 1617.148438 1708.816406 C 1606.890625 1804.941406 1624.558594 2045.332031 1624.558594 2045.332031 C 1580.871094 2061.585938 1542.289062 2062.519531 1509.769531 2045.332031 C 1509.769531 2045.332031 1457 1754.101562 1458.390625 1617.632812 C 1459.730469 1485.300781 1526.429688 1226.5 1526.429688 1226.5 L 1758.328125 1072.820312 "/>
<path fill-rule="evenodd" fill="rgb(98.046875%, 48.997498%, 44.700623%)" fill-opacity="1" d="M 1396.820312 859.898438 L 1349.140625 992.28125 C 1349.140625 992.28125 1351.089844 1046.261719 1380.621094 1086.25 C 1398.480469 1110.429688 1434.699219 1124.121094 1457.921875 1147.351562 C 1482.761719 1172.191406 1524.109375 1239.460938 1524.109375 1239.460938 C 1622.390625 1230.691406 1722.261719 1183.671875 1774.070312 1086.25 L 1680.570312 936.269531 L 1490.789062 817.78125 L 1396.820312 859.898438 "/>
<path fill-rule="evenodd" fill="rgb(92.1875%, 71.875%, 57.617188%)" fill-opacity="1" d="M 1495.421875 767.320312 L 1391.269531 767.320312 L 1391.269531 846.941406 C 1389.691406 880.011719 1413.640625 909.890625 1443.960938 909.890625 C 1461.320312 909.890625 1483.980469 872.109375 1495.421875 846.941406 L 1495.421875 767.320312 "/>
<path fill-rule="evenodd" fill="rgb(45.896912%, 31.396484%, 12.5%)" fill-opacity="1" d="M 1010.320312 438.679688 C 1028.96875 442.238281 1059.890625 391.660156 1056.140625 373.410156 C 1035.390625 373.449219 1008.308594 354.03125 1000.601562 348.421875 C 970.1875 326.308594 960.945312 322.980469 925.613281 319.71875 C 886.035156 316.070312 843.648438 336.019531 833.5 362.308594 C 823.160156 389.078125 827.945312 453.960938 827.945312 453.960938 L 989.953125 473.398438 C 989.953125 473.398438 1009.429688 438.511719 1010.320312 438.679688 "/>
<path fill-rule="evenodd" fill="rgb(43.505859%, 74.804688%, 82.617188%)" fill-opacity="1" d="M 892.199219 608.921875 C 892.199219 608.921875 969.625 624.628906 1001.53125 652.070312 C 1045.011719 689.46875 1161.21875 828.421875 1161.21875 828.421875 C 1139.789062 872.378906 1100.699219 907.191406 1050.589844 936.269531 L 959.402344 851.570312 L 892.199219 608.921875 "/>
<path fill-rule="evenodd" fill="rgb(14.501953%, 16.088867%, 19.993591%)" fill-opacity="1" d="M 964.78125 740.628906 C 966.253906 669.019531 938.316406 621.378906 901.382812 595.371094 C 898.121094 593.070312 893.605469 593.859375 891.308594 597.121094 C 889.007812 600.378906 889.792969 604.898438 893.054688 607.199219 C 926.824219 630.980469 951.667969 674.851562 950.320312 740.328125 C 950.238281 744.320312 953.410156 747.628906 957.402344 747.710938 C 961.394531 747.789062 964.699219 744.621094 964.78125 740.628906 "/>
<path fill-rule="evenodd" fill="rgb(43.505859%, 74.804688%, 82.617188%)" fill-opacity="1" d="M 800.953125 587.328125 C 800.953125 587.328125 658.257812 579.550781 617.800781 642.808594 C 567.671875 721.191406 584.472656 939.511719 584.472656 939.511719 C 652.214844 952.941406 704.609375 947.070312 743.238281 927.941406 L 752.035156 783.058594 L 800.953125 587.328125 "/>
<path fill-rule="evenodd" fill="rgb(14.501953%, 16.088867%, 19.993591%)" fill-opacity="1" d="M 802.128906 573.75 C 775.132812 579.269531 751.234375 594.148438 736.386719 617.621094 C 721.742188 640.761719 715.796875 672.421875 725.089844 712.039062 C 726 715.929688 729.894531 718.339844 733.78125 717.429688 C 737.667969 716.519531 740.082031 712.628906 739.171875 708.738281 C 730.96875 673.769531 735.6875 645.769531 748.609375 625.351562 C 761.328125 605.25 781.902344 592.648438 805.027344 587.921875 C 808.9375 587.121094 811.464844 583.300781 810.664062 579.378906 C 809.863281 575.46875 806.039062 572.949219 802.128906 573.75 "/>
<path fill-rule="evenodd" fill="rgb(92.1875%, 71.875%, 57.617188%)" fill-opacity="1" d="M 918.878906 505.628906 L 834.113281 484.050781 L 800.953125 587.328125 C 800.953125 587.328125 834.53125 708.140625 843.679688 708.839844 C 850.996094 709.398438 892.199219 608.921875 892.199219 608.921875 L 918.878906 505.628906 "/>
<path fill-rule="evenodd" fill="rgb(92.1875%, 71.875%, 57.617188%)" fill-opacity="1" d="M 854.105469 443.238281 C 865.644531 413.210938 877.792969 387.558594 880.25 388.691406 C 885.359375 391.03125 964.085938 436.851562 1014.488281 428.550781 C 1014.488281 428.550781 1016.28125 444.089844 1014.488281 451.53125 C 1009.628906 471.699219 998.671875 524.851562 985.324219 549.550781 C 973.953125 570.589844 951.804688 589.878906 934.40625 599.730469 C 923.21875 606.058594 880.480469 598.789062 873.769531 593.160156 C 858.195312 580.101562 830.871094 547.351562 831.648438 522.820312 C 831.886719 515.359375 834.113281 504.621094 837.507812 492.429688 C 834.003906 491.679688 830.554688 490.261719 827.359375 488.140625 C 814.515625 479.601562 810.578125 462.921875 818.5625 450.890625 C 826.105469 439.550781 841.59375 436.390625 854.105469 443.238281 "/>
<path fill-rule="evenodd" fill="rgb(92.1875%, 71.875%, 57.617188%)" fill-opacity="1" d="M 1331.359375 810.070312 C 1323.121094 786.109375 1294.128906 773.730469 1319.929688 693 C 1325.511719 675.519531 1359.640625 631.46875 1359.640625 631.46875 C 1374.210938 641.941406 1387.578125 640.351562 1400.21875 631.46875 C 1411.300781 654.21875 1429.710938 655.480469 1447.550781 644.410156 C 1450.058594 668.71875 1467.269531 668.828125 1491.410156 657.53125 C 1480.21875 671.261719 1477.46875 683.550781 1491.410156 693 C 1479.390625 712.160156 1482.160156 724.71875 1491.410156 734.390625 C 1491.410156 734.390625 1512.738281 724.289062 1524.511719 734.730469 C 1536.46875 745.351562 1536.71875 761.070312 1527.511719 771.308594 C 1517.71875 782.199219 1500.941406 786.910156 1487.171875 781.351562 C 1458.941406 842.769531 1393.269531 832.808594 1368.460938 836.28125 C 1353.460938 838.378906 1336.289062 824.390625 1331.359375 810.070312 "/>
<path fill-rule="evenodd" fill="rgb(14.501953%, 16.088867%, 19.993591%)" fill-opacity="1" d="M 835.480469 769.960938 C 820.183594 699.089844 766.867188 686.53125 735.25 704.171875 C 703.785156 721.730469 689.449219 771.609375 756.160156 827.929688 C 759.210938 830.511719 763.78125 830.121094 766.355469 827.070312 C 768.929688 824.019531 768.542969 819.460938 765.492188 816.878906 C 710.890625 770.78125 716.546875 731.171875 742.300781 716.800781 C 767.878906 702.53125 808.96875 715.679688 821.339844 773.019531 C 822.179688 776.921875 826.03125 779.398438 829.933594 778.558594 C 833.835938 777.71875 836.320312 773.871094 835.480469 769.960938 "/>
<path fill-rule="evenodd" fill="rgb(100%, 100%, 100%)" fill-opacity="1" d="M 953.847656 741.871094 C 966.621094 741.871094 976.992188 752.238281 976.992188 765.011719 C 976.992188 777.78125 966.621094 788.160156 953.847656 788.160156 C 941.074219 788.160156 930.703125 777.78125 930.703125 765.011719 C 930.703125 752.238281 941.074219 741.871094 953.847656 741.871094 "/>
<path fill-rule="evenodd" fill="rgb(69.726562%, 71.484375%, 71.484375%)" fill-opacity="1" d="M 953.847656 734.628906 C 937.085938 734.628906 923.472656 748.238281 923.472656 765.011719 C 923.472656 781.769531 937.085938 795.390625 953.847656 795.390625 C 970.613281 795.390625 984.226562 781.769531 984.226562 765.011719 C 984.226562 748.238281 970.613281 734.628906 953.847656 734.628906 Z M 953.847656 749.101562 C 962.628906 749.101562 969.761719 756.230469 969.761719 765.011719 C 969.761719 773.789062 962.628906 780.921875 953.847656 780.921875 C 945.066406 780.921875 937.9375 773.789062 937.9375 765.011719 C 937.9375 756.230469 945.066406 749.101562 953.847656 749.101562 "/>
<path fill-rule="evenodd" fill="rgb(69.726562%, 71.484375%, 71.484375%)" fill-opacity="1" d="M 843.695312 772.011719 C 843.324219 770.070312 841.449219 768.789062 839.503906 769.160156 L 818.355469 773.148438 C 816.40625 773.519531 815.128906 775.398438 815.492188 777.339844 L 816.828125 784.390625 C 817.195312 786.339844 819.070312 787.621094 821.015625 787.25 L 842.167969 783.261719 C 844.113281 782.890625 845.394531 781.011719 845.023438 779.058594 L 843.695312 772.011719 "/>
<path fill-rule="evenodd" fill="rgb(69.726562%, 71.484375%, 71.484375%)" fill-opacity="1" d="M 775.007812 813.238281 C 773.441406 812.03125 771.1875 812.320312 769.976562 813.878906 L 756.808594 830.910156 C 755.59375 832.46875 755.882812 834.730469 757.449219 835.941406 L 763.125 840.328125 C 764.691406 841.539062 766.945312 841.261719 768.15625 839.691406 L 781.324219 822.660156 C 782.535156 821.101562 782.25 818.839844 780.683594 817.628906 L 775.007812 813.238281 "/>
<path fill-rule="evenodd" fill="rgb(14.501953%, 16.088867%, 19.993591%)" fill-opacity="1" d="M 1437.050781 700.839844 C 1441.308594 703.179688 1442.289062 709.570312 1439.238281 715.089844 C 1436.199219 720.621094 1430.269531 723.210938 1426.019531 720.871094 C 1421.769531 718.53125 1420.789062 712.140625 1423.839844 706.609375 C 1426.878906 701.078125 1432.800781 698.5 1437.050781 700.839844 "/>
<path fill-rule="evenodd" fill="rgb(14.501953%, 16.088867%, 19.993591%)" fill-opacity="1" d="M 1374.839844 677.949219 C 1379.089844 680.289062 1380.070312 686.679688 1377.03125 692.199219 C 1373.988281 697.730469 1368.058594 700.320312 1363.808594 697.980469 C 1359.558594 695.640625 1358.578125 689.25 1361.621094 683.71875 C 1364.671875 678.191406 1370.589844 675.609375 1374.839844 677.949219 "/>
<path fill-rule="evenodd" fill="rgb(100%, 100%, 100%)" fill-opacity="1" d="M 888.816406 540.238281 C 887.574219 539.988281 886.285156 540.328125 885.328125 541.160156 C 884.371094 542 883.855469 543.230469 883.929688 544.488281 C 884.59375 554.75 893.160156 564.011719 905.121094 566.398438 C 917.085938 568.800781 928.554688 563.558594 933.117188 554.351562 C 933.675781 553.210938 933.671875 551.878906 933.109375 550.75 C 932.550781 549.609375 931.492188 548.800781 930.253906 548.550781 C 922.984375 547.089844 909.535156 544.390625 909.535156 544.390625 C 909.535156 544.390625 896.085938 541.691406 888.816406 540.238281 "/>
<path fill-rule="evenodd" fill="rgb(76.5625%, 47.801208%, 28.588867%)" fill-opacity="1" d="M 836.238281 456.011719 C 838.960938 460.339844 840.210938 463.988281 840.1875 466.890625 C 840.175781 468.660156 839.660156 470.039062 838.578125 470.828125 C 836.605469 472.269531 833.53125 471.808594 830.269531 470.019531 C 828.402344 468.988281 826.054688 469.671875 825.027344 471.539062 C 824.003906 473.398438 824.683594 475.75 826.550781 476.78125 C 834.421875 481.109375 841.785156 479.601562 845.410156 474.820312 C 848.695312 470.5 849.390625 462.441406 842.769531 451.898438 C 841.636719 450.101562 839.253906 449.558594 837.449219 450.691406 C 835.648438 451.820312 835.105469 454.210938 836.238281 456.011719 "/>
<path fill-rule="evenodd" fill="rgb(45.896912%, 31.396484%, 12.5%)" fill-opacity="1" d="M 900.378906 449.511719 C 907.363281 453.148438 929.960938 464.300781 929.960938 464.300781 C 932.347656 465.46875 935.238281 464.488281 936.417969 462.109375 C 937.59375 459.71875 936.613281 456.828125 934.226562 455.648438 C 934.226562 455.648438 911.46875 444.421875 904.699219 440.890625 C 902.535156 439.75 899.152344 439.558594 895.464844 440.378906 C 889.386719 441.75 882.171875 445.519531 882.171875 445.519531 C 879.816406 446.761719 878.910156 449.679688 880.148438 452.039062 C 881.390625 454.390625 884.308594 455.300781 886.664062 454.058594 C 886.664062 454.058594 891.078125 451.730469 895.535156 450.351562 C 896.824219 449.949219 898.113281 449.621094 899.269531 449.511719 C 899.640625 449.46875 900.230469 449.5 900.378906 449.511719 "/>
<path fill-rule="evenodd" fill="rgb(45.896912%, 31.396484%, 12.5%)" fill-opacity="1" d="M 988.183594 476.671875 C 988.355469 476.839844 989.035156 477.539062 989.34375 478 C 990.675781 480.019531 991.410156 482.421875 991.410156 482.421875 C 992.191406 484.96875 994.890625 486.398438 997.433594 485.609375 C 999.980469 484.828125 1001.410156 482.128906 1000.628906 479.589844 C 1000.628906 479.589844 998.980469 474.371094 996.132812 471 C 994.316406 468.851562 992.027344 467.421875 989.578125 467.128906 C 983.222656 466.359375 963.199219 462.988281 963.199219 462.988281 C 960.574219 462.550781 958.085938 464.320312 957.648438 466.949219 C 957.207031 469.570312 958.980469 472.058594 961.605469 472.5 C 961.605469 472.5 981.476562 475.839844 988.183594 476.671875 "/>
<path fill-rule="evenodd" fill="rgb(76.5625%, 47.801208%, 28.588867%)" fill-opacity="1" d="M 939.882812 485.269531 C 939.882812 485.269531 945.199219 511.449219 945.832031 522.230469 C 945.96875 524.589844 944.242188 525.558594 942.222656 526.109375 C 936.890625 527.539062 929.46875 526.351562 926.480469 526.03125 C 924.363281 525.808594 922.460938 527.351562 922.238281 529.460938 C 922.015625 531.578125 923.554688 533.480469 925.671875 533.699219 C 929.195312 534.070312 937.945312 535.238281 944.222656 533.558594 C 949.949219 532.019531 953.925781 528.480469 953.535156 521.769531 C 952.882812 510.691406 947.445312 483.738281 947.445312 483.738281 C 947.023438 481.660156 944.988281 480.300781 942.898438 480.730469 C 940.8125 481.148438 939.460938 483.191406 939.882812 485.269531 "/>
<path fill-rule="evenodd" fill="rgb(14.501953%, 16.088867%, 19.993591%)" fill-opacity="1" d="M 914.746094 474.609375 C 918.441406 475.980469 919.671875 481.851562 917.492188 487.691406 C 915.3125 493.539062 910.546875 497.171875 906.855469 495.789062 C 903.160156 494.421875 901.929688 488.558594 904.109375 482.710938 C 906.285156 476.859375 911.054688 473.230469 914.746094 474.609375 "/>
<path fill-rule="evenodd" fill="rgb(14.501953%, 16.088867%, 19.993591%)" fill-opacity="1" d="M 979.53125 491.230469 C 983.222656 492.609375 984.453125 498.46875 982.273438 504.320312 C 980.097656 510.171875 975.328125 513.800781 971.636719 512.421875 C 967.945312 511.050781 966.714844 505.179688 968.890625 499.328125 C 971.070312 493.488281 975.835938 489.859375 979.53125 491.230469 "/>
<path fill-rule="evenodd" fill="rgb(76.5625%, 47.801208%, 28.588867%)" fill-opacity="1" d="M 889.621094 597.339844 C 889.621094 597.339844 885.136719 596.660156 880.550781 594.949219 C 877.863281 593.949219 875.078125 592.660156 873.457031 590.769531 C 863.859375 579.578125 842.828125 544.898438 837.613281 529.550781 C 836.425781 526.050781 836.988281 520.949219 837.910156 516.089844 C 839.425781 508.078125 842.203125 500.671875 842.203125 500.671875 C 842.949219 498.679688 841.941406 496.449219 839.945312 495.710938 C 837.953125 494.960938 835.730469 495.96875 834.980469 497.960938 C 834.980469 497.960938 830.875 508.929688 829.628906 519.101562 C 829.039062 523.910156 829.128906 528.558594 830.308594 532.03125 C 835.742188 548.011719 857.605469 584.148438 867.605469 595.789062 C 869.980469 598.570312 873.917969 600.71875 877.863281 602.191406 C 883.222656 604.171875 888.46875 604.960938 888.46875 604.960938 C 890.574219 605.28125 892.539062 603.828125 892.859375 601.730469 C 893.175781 599.621094 891.726562 597.660156 889.621094 597.339844 "/>
<path fill-rule="evenodd" fill="rgb(27.806091%, 18.406677%, 7.495117%)" fill-opacity="1" d="M 902.667969 393.699219 C 910.824219 392.460938 917.070312 388.460938 922.558594 382.441406 C 923.992188 380.859375 923.878906 378.421875 922.304688 376.988281 C 920.730469 375.550781 918.289062 375.671875 916.855469 377.238281 C 912.605469 381.910156 907.824219 385.109375 901.507812 386.070312 C 899.402344 386.390625 897.953125 388.359375 898.273438 390.46875 C 898.59375 392.570312 900.5625 394.019531 902.667969 393.699219 "/>
<path fill-rule="evenodd" fill="rgb(27.806091%, 18.406677%, 7.495117%)" fill-opacity="1" d="M 929.457031 404.621094 C 936.886719 401.328125 947.109375 395.488281 951.480469 388.269531 C 952.585938 386.449219 952 384.070312 950.179688 382.96875 C 948.359375 381.871094 945.984375 382.449219 944.882812 384.269531 C 941.246094 390.28125 932.511719 394.828125 926.328125 397.570312 C 924.382812 398.441406 923.503906 400.710938 924.367188 402.660156 C 925.230469 404.609375 927.511719 405.488281 929.457031 404.621094 "/>
<path fill-rule="evenodd" fill="rgb(27.806091%, 18.406677%, 7.495117%)" fill-opacity="1" d="M 950.535156 415.160156 C 961.289062 413.289062 971.089844 404.140625 977.175781 395.53125 C 978.402344 393.789062 977.988281 391.378906 976.25 390.148438 C 974.511719 388.921875 972.101562 389.339844 970.875 391.070312 C 965.867188 398.160156 958.0625 406.019531 949.21875 407.558594 C 947.117188 407.921875 945.710938 409.921875 946.078125 412.019531 C 946.441406 414.121094 948.441406 415.519531 950.535156 415.160156 "/>
<path fill-rule="evenodd" fill="rgb(27.806091%, 18.406677%, 7.495117%)" fill-opacity="1" d="M 981.355469 422.140625 C 989.828125 418.671875 995.972656 412.660156 1000.71875 404.898438 C 1001.828125 403.089844 1001.261719 400.710938 999.445312 399.601562 C 997.628906 398.488281 995.253906 399.058594 994.140625 400.871094 C 990.273438 407.191406 985.335938 412.171875 978.429688 415 C 976.460938 415.808594 975.515625 418.058594 976.320312 420.03125 C 977.128906 422 979.382812 422.941406 981.355469 422.140625 "/>
<path fill-rule="evenodd" fill="rgb(27.806091%, 18.406677%, 7.495117%)" fill-opacity="1" d="M 1011.921875 423.230469 C 1017.53125 419.609375 1021.5 415.238281 1024.398438 409.199219 C 1025.320312 407.28125 1024.511719 404.980469 1022.589844 404.058594 C 1020.671875 403.128906 1018.359375 403.949219 1017.441406 405.859375 C 1015.191406 410.550781 1012.089844 413.941406 1007.738281 416.75 C 1005.949219 417.898438 1005.429688 420.289062 1006.589844 422.078125 C 1007.738281 423.871094 1010.128906 424.378906 1011.921875 423.230469 "/>
<path fill-rule="evenodd" fill="rgb(16.50238%, 46.702576%, 54.492188%)" fill-opacity="1" d="M 840.035156 715.808594 L 859.476562 772.28125 C 860.171875 774.300781 862.367188 775.371094 864.378906 774.671875 C 866.390625 773.980469 867.464844 771.78125 866.773438 769.769531 L 847.328125 713.300781 C 846.636719 711.289062 844.441406 710.21875 842.425781 710.910156 C 840.414062 711.609375 839.34375 713.800781 840.035156 715.808594 "/>
<path fill-rule="evenodd" fill="rgb(16.50238%, 46.702576%, 54.492188%)" fill-opacity="1" d="M 861.550781 752.089844 C 885.117188 721.578125 905.675781 686.761719 921.796875 645.609375 C 922.574219 643.621094 921.59375 641.378906 919.613281 640.609375 C 917.628906 639.828125 915.390625 640.808594 914.613281 642.789062 C 898.78125 683.210938 878.59375 717.410156 855.441406 747.378906 C 854.140625 749.058594 854.453125 751.488281 856.136719 752.789062 C 857.820312 754.089844 860.246094 753.78125 861.550781 752.089844 "/>
<path fill-rule="evenodd" fill="rgb(16.50238%, 46.702576%, 54.492188%)" fill-opacity="1" d="M 765.59375 641.960938 L 790.203125 701.910156 C 791.015625 703.878906 793.269531 704.820312 795.238281 704.011719 C 797.210938 703.199219 798.148438 700.949219 797.34375 698.980469 L 772.730469 639.03125 C 771.921875 637.058594 769.664062 636.121094 767.695312 636.929688 C 765.726562 637.738281 764.785156 639.988281 765.59375 641.960938 "/>
<path fill-rule="evenodd" fill="rgb(16.50238%, 46.702576%, 54.492188%)" fill-opacity="1" d="M 828.210938 794.480469 L 841.039062 825.71875 C 841.847656 827.691406 844.105469 828.640625 846.074219 827.828125 C 848.042969 827.019531 848.984375 824.761719 848.175781 822.789062 L 835.347656 791.550781 C 834.539062 789.578125 832.285156 788.640625 830.316406 789.449219 C 828.347656 790.261719 827.402344 792.511719 828.210938 794.480469 "/>
<path fill-rule="evenodd" fill="rgb(16.50238%, 46.702576%, 54.492188%)" fill-opacity="1" d="M 640.917969 648.25 C 670.234375 659.789062 690.433594 681.648438 703.605469 711.480469 C 704.464844 713.441406 706.742188 714.320312 708.691406 713.460938 C 710.640625 712.601562 711.523438 710.320312 710.664062 708.371094 C 696.625 676.570312 674.988281 653.371094 643.742188 641.070312 C 641.761719 640.289062 639.523438 641.269531 638.742188 643.25 C 637.960938 645.230469 638.9375 647.46875 640.917969 648.25 "/>
<path fill-rule="evenodd" fill="rgb(16.50238%, 46.702576%, 54.492188%)" fill-opacity="1" d="M 970.378906 800.238281 L 964.824219 851.621094 C 964.597656 853.730469 966.128906 855.640625 968.246094 855.871094 C 970.363281 856.089844 972.265625 854.558594 972.496094 852.449219 L 978.050781 801.070312 C 978.277344 798.949219 976.746094 797.050781 974.628906 796.820312 C 972.515625 796.589844 970.609375 798.121094 970.378906 800.238281 "/>
<path fill-rule="evenodd" fill="rgb(16.50238%, 46.702576%, 54.492188%)" fill-opacity="1" d="M 600.722656 948.359375 C 646.601562 959.039062 703.5625 947.761719 753.738281 930.671875 C 755.367188 930.109375 756.433594 928.550781 756.347656 926.828125 L 751.71875 831.480469 C 751.617188 829.351562 749.808594 827.710938 747.679688 827.808594 C 745.554688 827.910156 743.910156 829.71875 744.015625 831.851562 L 748.503906 924.289062 C 700.382812 940.398438 646.253906 951.039062 602.472656 940.851562 C 600.398438 940.371094 598.324219 941.660156 597.84375 943.730469 C 597.359375 945.808594 598.648438 947.878906 600.722656 948.359375 "/>
<path fill-rule="evenodd" fill="rgb(16.50238%, 46.702576%, 54.492188%)" fill-opacity="1" d="M 617.121094 1141.308594 C 684.640625 1162.210938 764.015625 1165.261719 846.667969 1150.679688 C 848.765625 1150.308594 850.164062 1148.308594 849.796875 1146.210938 C 849.425781 1144.121094 847.425781 1142.71875 845.328125 1143.089844 C 763.980469 1157.429688 685.855469 1154.511719 619.402344 1133.941406 C 617.367188 1133.308594 615.203125 1134.449219 614.578125 1136.488281 C 613.945312 1138.519531 615.085938 1140.679688 617.121094 1141.308594 "/>
<path fill-rule="evenodd" fill="rgb(16.50238%, 46.702576%, 54.492188%)" fill-opacity="1" d="M 806.792969 1435.601562 C 809.753906 1402.089844 814.410156 1368.300781 821.085938 1334.160156 C 821.492188 1332.070312 820.128906 1330.050781 818.039062 1329.640625 C 815.949219 1329.230469 813.921875 1330.589844 813.515625 1332.691406 C 806.785156 1367.089844 802.09375 1401.148438 799.105469 1434.921875 C 798.921875 1437.039062 800.488281 1438.910156 802.609375 1439.101562 C 804.730469 1439.289062 806.605469 1437.71875 806.792969 1435.601562 "/>
<path fill-rule="evenodd" fill="rgb(16.50238%, 46.702576%, 54.492188%)" fill-opacity="1" d="M 720.402344 1619.921875 C 719.605469 1737.578125 707.875 1846.710938 685.777344 1947.765625 C 685.320312 1949.84375 686.640625 1951.902344 688.71875 1952.359375 C 690.800781 1952.8125 692.859375 1951.492188 693.3125 1949.414062 C 715.515625 1847.867188 727.316406 1738.203125 728.117188 1619.972656 C 728.132812 1617.84375 726.414062 1616.101562 724.285156 1616.089844 C 722.160156 1616.074219 720.417969 1617.789062 720.402344 1619.921875 "/>
<path fill-rule="evenodd" fill="rgb(16.50238%, 46.702576%, 54.492188%)" fill-opacity="1" d="M 631.042969 2000.886719 C 653.839844 2007.695312 677.523438 2011.496094 702.6875 2010.304688 C 704.816406 2010.203125 706.460938 2008.394531 706.359375 2006.265625 C 706.257812 2004.140625 704.449219 2002.496094 702.320312 2002.597656 C 678.058594 2003.746094 655.230469 2000.058594 633.253906 1993.496094 C 631.210938 1992.886719 629.0625 1994.046875 628.453125 1996.089844 C 627.84375 1998.128906 629.003906 2000.277344 631.042969 2000.886719 "/>
<path fill-rule="evenodd" fill="rgb(16.50238%, 46.702576%, 54.492188%)" fill-opacity="1" d="M 974.554688 1624.136719 C 987.855469 1728.59375 987.855469 1829.003906 974.558594 1925.382812 C 974.269531 1927.488281 975.746094 1929.4375 977.855469 1929.730469 C 979.960938 1930.023438 981.910156 1928.546875 982.203125 1926.4375 C 995.585938 1829.410156 995.597656 1728.320312 982.207031 1623.160156 C 981.9375 1621.050781 980.003906 1619.554688 977.894531 1619.824219 C 975.78125 1620.09375 974.285156 1622.023438 974.554688 1624.136719 "/>
<path fill-rule="evenodd" fill="rgb(16.50238%, 46.702576%, 54.492188%)" fill-opacity="1" d="M 914.703125 1986.226562 C 942.453125 1988.121094 969.460938 1986.835938 994.839844 1978.644531 C 996.867188 1977.992188 997.980469 1975.816406 997.328125 1973.789062 C 996.671875 1971.761719 994.496094 1970.648438 992.46875 1971.304688 C 968.011719 1979.195312 941.972656 1980.355469 915.230469 1978.53125 C 913.105469 1978.386719 911.265625 1979.992188 911.117188 1982.117188 C 910.972656 1984.242188 912.578125 1986.082031 914.703125 1986.226562 "/>
<path fill-rule="evenodd" fill="rgb(76.5625%, 47.801208%, 28.588867%)" fill-opacity="1" d="M 1196.289062 890.28125 C 1194.800781 899.308594 1191.609375 907.949219 1186.230469 916.101562 C 1185.058594 917.878906 1185.550781 920.269531 1187.328125 921.441406 C 1189.109375 922.609375 1191.5 922.121094 1192.671875 920.351562 C 1198.671875 911.25 1202.238281 901.609375 1203.910156 891.539062 C 1204.25 889.441406 1202.828125 887.460938 1200.730469 887.109375 C 1198.628906 886.761719 1196.640625 888.179688 1196.289062 890.28125 "/>
<path fill-rule="evenodd" fill="rgb(76.5625%, 47.801208%, 28.588867%)" fill-opacity="1" d="M 1397.738281 840.5 C 1404.710938 838.789062 1410.328125 836.570312 1415.089844 834.039062 C 1452 830.539062 1475.421875 812.769531 1491.710938 787.46875 C 1492.871094 785.679688 1492.351562 783.289062 1490.558594 782.128906 C 1488.769531 780.980469 1486.378906 781.5 1485.230469 783.289062 C 1470.039062 806.859375 1448.171875 823.359375 1413.609375 826.441406 C 1413.078125 826.480469 1412.558594 826.640625 1412.089844 826.890625 C 1407.699219 829.308594 1402.460938 831.398438 1395.898438 833.011719 C 1393.828125 833.519531 1392.570312 835.609375 1393.078125 837.679688 C 1393.589844 839.738281 1395.679688 841.011719 1397.738281 840.5 "/>
<path fill-rule="evenodd" fill="rgb(76.5625%, 47.801208%, 28.588867%)" fill-opacity="1" d="M 1511.179688 742.421875 C 1501.949219 745.921875 1496.679688 750.609375 1494.46875 754.960938 C 1492.761719 758.308594 1492.640625 761.621094 1493.769531 764.539062 C 1495.28125 768.449219 1499.25 771.898438 1505.648438 773.398438 C 1507.71875 773.878906 1509.800781 772.589844 1510.28125 770.511719 C 1510.769531 768.441406 1509.46875 766.371094 1507.398438 765.878906 C 1503.828125 765.050781 1501.339844 763.578125 1500.828125 761.320312 C 1500.488281 759.78125 1501.25 758.128906 1502.761719 756.441406 C 1504.960938 753.96875 1508.648438 751.628906 1513.910156 749.640625 C 1515.898438 748.890625 1516.898438 746.660156 1516.148438 744.671875 C 1515.390625 742.679688 1513.171875 741.671875 1511.179688 742.421875 "/>
<path fill-rule="evenodd" fill="rgb(76.5625%, 47.801208%, 28.588867%)" fill-opacity="1" d="M 1408.261719 724.238281 C 1409.71875 737.46875 1416.519531 746.21875 1427.589844 751.378906 C 1429.519531 752.28125 1431.820312 751.441406 1432.71875 749.511719 C 1433.621094 747.578125 1432.78125 745.289062 1430.851562 744.390625 C 1422.289062 740.398438 1417.058594 733.621094 1415.929688 723.390625 C 1415.699219 721.28125 1413.789062 719.75 1411.679688 719.980469 C 1409.558594 720.210938 1408.03125 722.121094 1408.261719 724.238281 "/>
<path fill-rule="evenodd" fill="rgb(76.5625%, 47.801208%, 28.588867%)" fill-opacity="1" d="M 1368.058594 705.738281 C 1362.398438 707.25 1356.820312 707.75 1351.519531 704.730469 C 1349.671875 703.671875 1347.308594 704.320312 1346.261719 706.160156 C 1345.199219 708.011719 1345.851562 710.371094 1347.699219 711.429688 C 1354.871094 715.519531 1362.390625 715.230469 1370.039062 713.191406 C 1372.101562 712.640625 1373.328125 710.53125 1372.78125 708.46875 C 1372.230469 706.410156 1370.109375 705.191406 1368.058594 705.738281 "/>
<path fill-rule="evenodd" fill="rgb(76.5625%, 47.801208%, 28.588867%)" fill-opacity="1" d="M 1386.691406 706.820312 C 1386.691406 706.820312 1385.71875 709.648438 1384.261719 712.390625 C 1383.488281 713.828125 1382.648438 715.320312 1381.648438 716.03125 C 1381.089844 716.421875 1380.320312 716.371094 1379.488281 716.398438 C 1377.808594 716.46875 1375.929688 716.371094 1374.03125 716.488281 C 1369.101562 716.789062 1364.058594 718.28125 1360.558594 724.761719 C 1358.058594 729.390625 1359.761719 733.621094 1363.191406 736.898438 C 1366.921875 740.480469 1372.789062 742.699219 1372.789062 742.699219 C 1374.789062 743.449219 1377.011719 742.429688 1377.761719 740.441406 C 1378.5 738.441406 1377.488281 736.21875 1375.488281 735.480469 C 1375.488281 735.480469 1371.21875 733.910156 1368.519531 731.328125 C 1367.660156 730.5 1366.71875 729.589844 1367.351562 728.429688 C 1369.660156 724.148438 1373.339844 724.148438 1376.5 724.140625 C 1380.328125 724.121094 1383.78125 723.960938 1386.078125 722.339844 C 1387.488281 721.351562 1388.898438 719.660156 1390.101562 717.71875 C 1392.378906 713.988281 1393.988281 709.328125 1393.988281 709.328125 C 1394.679688 707.320312 1393.609375 705.121094 1391.589844 704.429688 C 1389.578125 703.738281 1387.390625 704.808594 1386.691406 706.820312 "/>
<path fill-rule="evenodd" fill="rgb(76.5625%, 47.801208%, 28.588867%)" fill-opacity="1" d="M 1353.011719 743.761719 C 1340.949219 747.808594 1332.378906 755.300781 1327.160156 766.109375 C 1326.230469 768.03125 1327.039062 770.339844 1328.949219 771.261719 C 1330.871094 772.191406 1333.179688 771.378906 1334.109375 769.460938 C 1338.410156 760.550781 1345.519531 754.410156 1355.460938 751.078125 C 1357.480469 750.398438 1358.570312 748.210938 1357.890625 746.191406 C 1357.21875 744.179688 1355.03125 743.089844 1353.011719 743.761719 "/>
<path fill-rule="evenodd" fill="rgb(76.5625%, 47.801208%, 28.588867%)" fill-opacity="1" d="M 1402.320312 760.191406 C 1411.558594 767.371094 1418.96875 775.261719 1421.820312 785.058594 C 1422.410156 787.109375 1424.550781 788.289062 1426.601562 787.691406 C 1428.640625 787.101562 1429.820312 784.960938 1429.230469 782.910156 C 1425.949219 771.640625 1417.679688 762.371094 1407.058594 754.101562 C 1405.378906 752.789062 1402.960938 753.089844 1401.648438 754.769531 C 1400.339844 756.449219 1400.640625 758.878906 1402.320312 760.191406 "/>
<path fill-rule="evenodd" fill="rgb(100%, 100%, 100%)" fill-opacity="1" d="M 1352.988281 766.378906 C 1385.429688 782.519531 1430.121094 770.03125 1405.539062 791.671875 C 1385.460938 809.371094 1364.878906 788.070312 1352.988281 766.378906 "/>
<path fill-rule="evenodd" fill="rgb(76.5625%, 47.801208%, 28.588867%)" fill-opacity="1" d="M 1468.121094 719.058594 L 1453.308594 717.210938 C 1451.71875 717.011719 1450.171875 717.820312 1449.421875 719.238281 C 1448.671875 720.660156 1448.878906 722.390625 1449.941406 723.589844 L 1460.589844 735.628906 C 1462 737.21875 1464.441406 737.371094 1466.03125 735.960938 C 1467.628906 734.550781 1467.78125 732.109375 1466.371094 730.519531 L 1462.488281 726.128906 L 1467.160156 726.71875 C 1469.28125 726.980469 1471.210938 725.480469 1471.46875 723.371094 C 1471.738281 721.261719 1470.230469 719.320312 1468.121094 719.058594 "/>
<path fill-rule="evenodd" fill="rgb(76.5625%, 47.801208%, 28.588867%)" fill-opacity="1" d="M 1344.019531 673.539062 L 1347.519531 679.199219 L 1339.050781 682.230469 C 1337.050781 682.941406 1336 685.148438 1336.71875 687.160156 C 1337.441406 689.160156 1339.640625 690.210938 1341.648438 689.488281 L 1354.609375 684.859375 C 1355.710938 684.46875 1356.570312 683.601562 1356.949219 682.511719 C 1357.339844 681.410156 1357.210938 680.191406 1356.589844 679.199219 L 1350.570312 669.480469 C 1349.449219 667.671875 1347.070312 667.109375 1345.261719 668.230469 C 1343.449219 669.351562 1342.890625 671.730469 1344.019531 673.539062 "/>
<path fill-rule="evenodd" fill="rgb(50.584412%, 53.318787%, 53.318787%)" fill-opacity="1" d="M 1369.429688 658.671875 C 1377.960938 657.160156 1384.539062 657.058594 1389.800781 659.429688 C 1394.851562 661.699219 1398.46875 666.28125 1401.679688 673.46875 C 1402.761719 675.898438 1405.609375 677 1408.039062 675.910156 C 1410.46875 674.828125 1411.570312 671.980469 1410.480469 669.550781 C 1406.089844 659.679688 1400.691406 653.75 1393.75 650.628906 C 1387.03125 647.609375 1378.660156 647.25 1367.75 649.171875 C 1365.128906 649.628906 1363.378906 652.140625 1363.839844 654.761719 C 1364.300781 657.378906 1366.800781 659.128906 1369.429688 658.671875 "/>
<path fill-rule="evenodd" fill="rgb(50.584412%, 53.318787%, 53.318787%)" fill-opacity="1" d="M 1431.929688 684.789062 C 1437.460938 682.589844 1442.480469 682.261719 1447.03125 683.859375 C 1454.410156 686.46875 1460.378906 693.730469 1465.609375 704.609375 C 1466.769531 707.011719 1469.648438 708.019531 1472.050781 706.871094 C 1474.441406 705.710938 1475.460938 702.828125 1474.300781 700.429688 C 1467.691406 686.691406 1459.558594 678.058594 1450.238281 674.769531 C 1443.660156 672.449219 1436.378906 672.648438 1428.371094 675.820312 C 1425.898438 676.800781 1424.691406 679.609375 1425.671875 682.078125 C 1426.648438 684.558594 1429.449219 685.769531 1431.929688 684.789062 "/>
<path fill-rule="evenodd" fill="rgb(41.209412%, 43.896484%, 43.896484%)" fill-opacity="1" d="M 1504.929688 655.160156 C 1508.050781 649.03125 1512.601562 646.890625 1517.179688 644.539062 C 1521.199219 642.480469 1525.28125 640.320312 1529.03125 636.648438 C 1531.289062 634.429688 1532.941406 631.699219 1534.640625 629.03125 C 1535.808594 627.210938 1536.980469 625.378906 1538.839844 624.109375 C 1541.039062 622.609375 1541.601562 619.609375 1540.101562 617.410156 C 1538.601562 615.210938 1535.601562 614.648438 1533.398438 616.148438 C 1530.429688 618.179688 1528.378906 620.929688 1526.519531 623.828125 C 1525.210938 625.890625 1524.03125 628.050781 1522.28125 629.761719 C 1518.421875 633.539062 1514.050781 635.210938 1509.988281 637.410156 C 1504.78125 640.238281 1499.949219 643.679688 1496.339844 650.78125 C 1495.128906 653.148438 1496.078125 656.058594 1498.449219 657.261719 C 1500.820312 658.46875 1503.71875 657.53125 1504.929688 655.160156 "/>
<path fill-rule="evenodd" fill="rgb(76.171875%, 77.539062%, 77.539062%)" fill-opacity="1" d="M 1520.941406 601.078125 C 1519.359375 598.609375 1520.089844 595.671875 1520.28125 592.78125 C 1520.511719 589.5 1520.511719 586.238281 1519.460938 583.191406 C 1518.5 580.398438 1516.730469 578.398438 1514.589844 576.71875 C 1512.859375 575.359375 1510.679688 574.441406 1509.441406 572.550781 C 1507.96875 570.328125 1504.980469 569.71875 1502.761719 571.179688 C 1500.53125 572.648438 1499.921875 575.640625 1501.390625 577.859375 C 1502.738281 579.921875 1504.628906 581.441406 1506.621094 582.839844 C 1508.039062 583.851562 1509.730469 584.558594 1510.339844 586.320312 C 1511.421875 589.460938 1510.5 592.941406 1510.421875 596.25 C 1510.339844 599.800781 1510.851562 603.199219 1512.808594 606.269531 C 1514.25 608.519531 1517.230469 609.171875 1519.480469 607.738281 C 1521.71875 606.300781 1522.371094 603.320312 1520.941406 601.078125 "/>
<path fill-rule="evenodd" fill="rgb(76.171875%, 77.539062%, 77.539062%)" fill-opacity="1" d="M 1498.339844 609.03125 C 1490.960938 606.929688 1488.699219 601.46875 1486.308594 596.171875 C 1482.839844 588.511719 1479.261719 580.980469 1469.28125 577.421875 C 1466.78125 576.519531 1464.019531 577.828125 1463.121094 580.339844 C 1462.230469 582.839844 1463.53125 585.609375 1466.039062 586.5 C 1473.058594 589.011719 1475.078125 594.75 1477.519531 600.140625 C 1481.019531 607.878906 1484.941406 615.238281 1495.710938 618.300781 C 1498.269531 619.03125 1500.941406 617.539062 1501.671875 614.980469 C 1502.390625 612.421875 1500.910156 609.761719 1498.339844 609.03125 "/>
<path fill-rule="evenodd" fill="rgb(76.171875%, 77.539062%, 77.539062%)" fill-opacity="1" d="M 1471.191406 621.570312 C 1466.75 623.46875 1461.511719 624.058594 1458.691406 619.480469 C 1457.289062 617.21875 1454.308594 616.511719 1452.050781 617.910156 C 1449.789062 619.308594 1449.078125 622.28125 1450.480469 624.550781 C 1456.101562 633.648438 1466.160156 634.21875 1474.988281 630.441406 C 1477.429688 629.390625 1478.570312 626.558594 1477.519531 624.109375 C 1476.46875 621.660156 1473.640625 620.53125 1471.191406 621.570312 "/>
<path fill-rule="evenodd" fill="rgb(76.171875%, 77.539062%, 77.539062%)" fill-opacity="1" d="M 1445.550781 595.710938 C 1440.371094 595.179688 1437.890625 592.441406 1435.820312 589.359375 C 1434.628906 587.601562 1433.558594 585.730469 1432.378906 583.929688 C 1429.101562 578.921875 1425.050781 574.488281 1417.320312 572.839844 C 1414.710938 572.28125 1412.148438 573.949219 1411.601562 576.550781 C 1411.039062 579.148438 1412.710938 581.71875 1415.308594 582.269531 C 1421.5 583.589844 1423.648438 588.101562 1426.171875 592.171875 C 1430.058594 598.460938 1434.308594 604.25 1444.558594 605.308594 C 1447.210938 605.578125 1449.578125 603.648438 1449.851562 601 C 1450.128906 598.359375 1448.199219 595.980469 1445.550781 595.710938 "/>
<path fill-rule="evenodd" fill="rgb(76.171875%, 77.539062%, 77.539062%)" fill-opacity="1" d="M 1454.449219 560.28125 C 1449.5 555.421875 1443.539062 550.308594 1436.398438 549.148438 C 1433.769531 548.71875 1431.289062 550.511719 1430.871094 553.128906 C 1430.441406 555.761719 1432.230469 558.238281 1434.851562 558.660156 C 1440.03125 559.511719 1444.101562 563.628906 1447.691406 567.160156 C 1449.589844 569.03125 1452.640625 569 1454.511719 567.101562 C 1456.378906 565.199219 1456.351562 562.148438 1454.449219 560.28125 "/>
<path fill-rule="evenodd" fill="rgb(76.171875%, 77.539062%, 77.539062%)" fill-opacity="1" d="M 1410.351562 607.710938 C 1402.808594 607.988281 1399.71875 604.800781 1396.628906 602.070312 C 1391.808594 597.820312 1387.078125 594.101562 1375.660156 596.671875 C 1373.058594 597.261719 1371.429688 599.839844 1372.011719 602.441406 C 1372.589844 605.03125 1375.179688 606.660156 1377.769531 606.078125 C 1386.398438 604.140625 1388.851562 608.25 1392.71875 611.441406 C 1396.710938 614.738281 1401.570312 617.691406 1410.710938 617.339844 C 1413.371094 617.238281 1415.449219 615 1415.351562 612.339844 C 1415.25 609.691406 1413.011719 607.609375 1410.351562 607.710938 "/>
<path fill-rule="evenodd" fill="rgb(76.171875%, 77.539062%, 77.539062%)" fill-opacity="1" d="M 1392.46875 569.300781 C 1385.011719 565.320312 1380.339844 564.039062 1376.410156 564.089844 C 1373.800781 564.121094 1371.449219 564.710938 1368.859375 565.71875 C 1365.871094 566.878906 1362.441406 568.691406 1357.199219 570.53125 C 1354.691406 571.410156 1353.371094 574.171875 1354.25 576.679688 C 1355.128906 579.191406 1357.890625 580.511719 1360.398438 579.628906 C 1364.941406 578.03125 1368.191406 576.46875 1370.941406 575.289062 C 1372.96875 574.421875 1374.609375 573.761719 1376.53125 573.730469 C 1379.351562 573.699219 1382.578125 574.949219 1387.929688 577.808594 C 1390.28125 579.058594 1393.199219 578.171875 1394.449219 575.820312 C 1395.710938 573.46875 1394.808594 570.550781 1392.46875 569.300781 "/>
<path fill-rule="evenodd" fill="rgb(76.171875%, 77.539062%, 77.539062%)" fill-opacity="1" d="M 1340.261719 612.089844 C 1336.789062 617.171875 1331.320312 619.941406 1325.058594 619.019531 C 1322.429688 618.640625 1319.980469 620.460938 1319.589844 623.089844 C 1319.210938 625.730469 1321.03125 628.179688 1323.660156 628.570312 C 1333.761719 630.050781 1342.648438 625.71875 1348.230469 617.511719 C 1349.730469 615.308594 1349.160156 612.308594 1346.960938 610.808594 C 1344.761719 609.320312 1341.75 609.890625 1340.261719 612.089844 "/>
<path fill-rule="evenodd" fill="rgb(76.171875%, 77.539062%, 77.539062%)" fill-opacity="1" d="M 1549.671875 638.121094 C 1548.101562 646.609375 1552.96875 651.539062 1558.550781 655.871094 C 1560.039062 657.03125 1561.558594 658.140625 1562.789062 659.390625 C 1563.789062 660.398438 1564.621094 661.480469 1564.390625 663.070312 C 1564 665.699219 1565.828125 668.148438 1568.460938 668.53125 C 1571.089844 668.921875 1573.539062 667.089844 1573.929688 664.460938 C 1574.839844 658.230469 1571.601562 653.980469 1567.019531 650.25 C 1565.191406 648.769531 1563.160156 647.371094 1561.46875 645.75 C 1559.910156 644.261719 1558.660156 642.53125 1559.148438 639.871094 C 1559.640625 637.261719 1557.898438 634.738281 1555.289062 634.261719 C 1552.671875 633.769531 1550.148438 635.511719 1549.671875 638.121094 "/>
<path fill-rule="evenodd" fill="rgb(76.171875%, 77.539062%, 77.539062%)" fill-opacity="1" d="M 1528.488281 661.519531 C 1527.25 668.378906 1527.960938 673.050781 1529.511719 676.488281 C 1531.191406 680.199219 1533.910156 682.640625 1537.070312 684.640625 C 1538.980469 685.839844 1541.050781 686.871094 1543.011719 688.109375 C 1545.070312 689.410156 1547.03125 690.96875 1548.011719 693.820312 C 1548.878906 696.339844 1551.621094 697.679688 1554.140625 696.808594 C 1556.648438 695.949219 1557.988281 693.199219 1557.128906 690.691406 C 1554.808594 683.960938 1549.929688 680.871094 1544.960938 678.078125 C 1542.640625 676.78125 1540.25 675.648438 1538.789062 673.421875 C 1537.390625 671.269531 1537.089844 668.179688 1537.980469 663.25 C 1538.460938 660.628906 1536.71875 658.121094 1534.101562 657.640625 C 1531.480469 657.160156 1528.96875 658.910156 1528.488281 661.519531 "/>
<path fill-rule="evenodd" fill="rgb(76.171875%, 77.539062%, 77.539062%)" fill-opacity="1" d="M 1506.761719 679.171875 C 1504.621094 682.628906 1503.960938 685.308594 1503.960938 687.46875 C 1503.949219 690.03125 1504.808594 692.089844 1506.121094 694.03125 C 1507.28125 695.75 1509.339844 697.171875 1509.609375 700.230469 C 1509.710938 701.359375 1509.03125 702.410156 1508.578125 703.519531 C 1507.941406 705.140625 1507.371094 706.769531 1507.171875 708.390625 C 1506.851562 711.03125 1508.738281 713.441406 1511.378906 713.761719 C 1514.019531 714.078125 1516.429688 712.191406 1516.738281 709.550781 C 1516.929688 708.058594 1517.78125 706.609375 1518.308594 705.121094 C 1518.988281 703.230469 1519.378906 701.308594 1519.21875 699.398438 C 1518.921875 695.929688 1517.628906 693.449219 1516.128906 691.339844 C 1515.53125 690.488281 1514.890625 689.71875 1514.328125 688.941406 C 1514.019531 688.511719 1513.648438 688.128906 1513.601562 687.589844 C 1513.53125 686.710938 1514.039062 685.730469 1514.960938 684.261719 C 1516.359375 681.988281 1515.660156 679.019531 1513.398438 677.621094 C 1511.140625 676.210938 1508.171875 676.910156 1506.761719 679.171875 "/>
<path fill-rule="evenodd" fill="rgb(76.171875%, 77.539062%, 77.539062%)" fill-opacity="1" d="M 1540.78125 714.78125 C 1538.640625 720.199219 1540.078125 724.730469 1542.890625 729 C 1544.339844 731.210938 1546.21875 733.351562 1547.699219 735.609375 C 1548.628906 737.019531 1549.460938 738.460938 1549.390625 740.160156 C 1549.289062 742.820312 1551.359375 745.070312 1554.019531 745.171875 C 1556.679688 745.269531 1558.921875 743.199219 1559.03125 740.539062 C 1559.210938 735.769531 1556.890625 731.671875 1554 727.839844 C 1552.789062 726.21875 1551.488281 724.648438 1550.511719 723 C 1549.671875 721.578125 1549.050781 720.101562 1549.75 718.320312 C 1550.730469 715.839844 1549.511719 713.039062 1547.039062 712.058594 C 1544.558594 711.089844 1541.761719 712.300781 1540.78125 714.78125 "/>
<path fill-rule="evenodd" fill="rgb(76.171875%, 77.539062%, 77.539062%)" fill-opacity="1" d="M 1530.949219 797.011719 C 1530.539062 791.210938 1534.441406 789.589844 1538.011719 787.488281 C 1542.171875 785.03125 1546.28125 782.28125 1548.679688 777.46875 C 1549.871094 775.089844 1548.898438 772.191406 1546.519531 771 C 1544.140625 769.808594 1541.238281 770.78125 1540.050781 773.160156 C 1538.03125 777.210938 1533.839844 778.640625 1530.480469 780.761719 C 1525.011719 784.21875 1520.671875 788.421875 1521.328125 797.691406 C 1521.519531 800.339844 1523.828125 802.339844 1526.480469 802.160156 C 1529.140625 801.96875 1531.140625 799.660156 1530.949219 797.011719 "/>
<path fill-rule="evenodd" fill="rgb(76.171875%, 77.539062%, 77.539062%)" fill-opacity="1" d="M 1319.53125 659.289062 C 1324.539062 662.070312 1329.910156 662.359375 1334.871094 659.441406 C 1337.171875 658.089844 1337.941406 655.140625 1336.589844 652.839844 C 1335.238281 650.550781 1332.28125 649.78125 1329.988281 651.128906 C 1328.109375 652.230469 1326.089844 651.910156 1324.199219 650.859375 C 1321.878906 649.570312 1318.941406 650.410156 1317.648438 652.738281 C 1316.359375 655.070312 1317.199219 658.011719 1319.53125 659.289062 "/>
<path fill-rule="evenodd" fill="rgb(76.5625%, 47.801208%, 28.588867%)" fill-opacity="1" d="M 727.023438 953.558594 L 708.050781 967.910156 C 706.351562 969.199219 706.015625 971.621094 707.296875 973.320312 C 708.582031 975.019531 711.003906 975.351562 712.699219 974.070312 L 731.679688 959.71875 C 733.378906 958.441406 733.714844 956.011719 732.429688 954.308594 C 731.144531 952.621094 728.722656 952.28125 727.023438 953.558594 "/>
<path fill-rule="evenodd" fill="rgb(76.5625%, 47.801208%, 28.588867%)" fill-opacity="1" d="M 1027.210938 1098.191406 C 1015.25 1113.140625 1010.578125 1126.128906 1013.648438 1136.230469 C 1015.570312 1142.550781 1020.441406 1148.039062 1028.910156 1152.269531 C 1027.449219 1159.210938 1029.011719 1163.921875 1032.308594 1166.839844 C 1035.820312 1169.941406 1042.039062 1171.210938 1050.601562 1170.160156 C 1052.710938 1169.890625 1054.210938 1167.96875 1053.960938 1165.859375 C 1053.691406 1163.738281 1051.769531 1162.238281 1049.660156 1162.5 C 1045.929688 1162.960938 1042.800781 1162.980469 1040.339844 1162.398438 C 1038.691406 1162.011719 1037.410156 1161.378906 1036.710938 1160.210938 C 1035.539062 1158.210938 1035.878906 1155.289062 1037.140625 1151.289062 C 1037.738281 1149.390625 1036.800781 1147.351562 1034.96875 1146.570312 C 1027.28125 1143.308594 1022.621094 1139.21875 1021.03125 1133.988281 C 1019.851562 1130.121094 1020.390625 1125.738281 1022.238281 1120.890625 C 1024.328125 1115.429688 1028.070312 1109.460938 1033.238281 1103.011719 C 1034.558594 1101.339844 1034.289062 1098.910156 1032.628906 1097.578125 C 1030.96875 1096.261719 1028.539062 1096.519531 1027.210938 1098.191406 "/>
<path fill-rule="evenodd" fill="rgb(76.5625%, 47.801208%, 28.588867%)" fill-opacity="1" d="M 1037.21875 1153.148438 C 1047.851562 1139.949219 1062.460938 1137.308594 1080.488281 1143.570312 C 1083 1144.441406 1085.75 1143.109375 1086.621094 1140.601562 C 1087.488281 1138.078125 1086.160156 1135.328125 1083.648438 1134.460938 C 1061.109375 1126.640625 1043 1130.601562 1029.710938 1147.101562 C 1028.039062 1149.171875 1028.371094 1152.210938 1030.441406 1153.878906 C 1032.511719 1155.550781 1035.550781 1155.21875 1037.21875 1153.148438 "/>
<path fill-rule="evenodd" fill="rgb(75.78125%, 15.696716%, 10.594177%)" fill-opacity="1" d="M 1358.710938 1008.941406 C 1358.710938 1008.941406 1358.710938 1061.28125 1382.75 1090.109375 C 1398.101562 1108.511719 1430.410156 1128.859375 1430.410156 1128.859375 C 1432.210938 1129.988281 1434.601562 1129.449219 1435.730469 1127.640625 C 1436.859375 1125.839844 1436.320312 1123.460938 1434.519531 1122.328125 C 1434.519531 1122.328125 1403.421875 1102.839844 1388.679688 1085.160156 C 1366.128906 1058.128906 1366.429688 1008.960938 1366.429688 1008.960938 C 1366.429688 1006.828125 1364.710938 1005.101562 1362.578125 1005.089844 C 1360.449219 1005.078125 1358.71875 1006.808594 1358.710938 1008.941406 "/>
<path fill-rule="evenodd" fill="rgb(75.78125%, 15.696716%, 10.594177%)" fill-opacity="1" d="M 1506.671875 1111.898438 C 1506.671875 1111.898438 1524.101562 1097.378906 1534.410156 1093.039062 C 1550.421875 1086.300781 1601.988281 1071.910156 1601.988281 1071.910156 C 1604.039062 1071.339844 1605.238281 1069.210938 1604.671875 1067.160156 C 1604.089844 1065.109375 1601.960938 1063.910156 1599.910156 1064.480469 C 1599.910156 1064.480469 1547.640625 1079.101562 1531.410156 1085.929688 C 1520.421875 1090.558594 1501.75 1105.960938 1501.75 1105.960938 C 1500.109375 1107.320312 1499.878906 1109.75 1501.238281 1111.390625 C 1502.601562 1113.03125 1505.03125 1113.261719 1506.671875 1111.898438 "/>
<path fill-rule="evenodd" fill="rgb(75.78125%, 15.696716%, 10.594177%)" fill-opacity="1" d="M 1756.558594 979.921875 C 1765.210938 980.78125 1772.558594 982.929688 1778.640625 986.378906 C 1780.5 987.429688 1782.851562 986.78125 1783.898438 984.929688 C 1784.949219 983.078125 1784.300781 980.71875 1782.449219 979.671875 C 1775.519531 975.738281 1767.171875 973.21875 1757.320312 972.238281 C 1755.210938 972.03125 1753.308594 973.578125 1753.101562 975.699219 C 1752.890625 977.820312 1754.441406 979.710938 1756.558594 979.921875 "/>
<path fill-rule="evenodd" fill="rgb(75.78125%, 15.696716%, 10.594177%)" fill-opacity="1" d="M 1273.171875 1169.390625 L 1288.441406 1186.058594 C 1289.878906 1187.628906 1292.320312 1187.730469 1293.890625 1186.300781 C 1295.460938 1184.859375 1295.570312 1182.410156 1294.128906 1180.851562 L 1278.859375 1164.179688 C 1277.421875 1162.609375 1274.96875 1162.511719 1273.410156 1163.941406 C 1271.839844 1165.378906 1271.730469 1167.828125 1273.171875 1169.390625 "/>
<path fill-rule="evenodd" fill="rgb(75.78125%, 15.696716%, 10.594177%)" fill-opacity="1" d="M 1376.351562 877.171875 C 1378.378906 889.808594 1386.96875 905.628906 1399.859375 917.398438 C 1412.890625 929.308594 1430.238281 937.039062 1449.351562 933.589844 C 1473.058594 929.308594 1491.859375 907.828125 1503.78125 884.128906 C 1515.628906 860.550781 1520.578125 834.949219 1517.679688 822.890625 C 1517.179688 820.820312 1515.101562 819.550781 1513.03125 820.039062 C 1510.960938 820.539062 1509.679688 822.628906 1510.179688 824.699219 C 1512.828125 835.738281 1507.75 859.058594 1496.878906 880.671875 C 1486.078125 902.160156 1469.480469 922.121094 1447.980469 926 C 1431.378906 929 1416.390625 922.050781 1405.058594 911.710938 C 1393.578125 901.21875 1385.769531 887.210938 1383.96875 875.949219 C 1383.628906 873.851562 1381.648438 872.421875 1379.550781 872.761719 C 1377.441406 873.089844 1376.011719 875.070312 1376.351562 877.171875 "/>
<path fill-rule="evenodd" fill="rgb(19.189453%, 12.5%, 7.788086%)" fill-opacity="1" d="M 1682.570312 1455.101562 L 1681.179688 1370.390625 C 1681.148438 1368.261719 1679.390625 1366.558594 1677.261719 1366.601562 C 1675.140625 1366.628906 1673.441406 1368.390625 1673.46875 1370.519531 L 1674.859375 1455.21875 C 1674.890625 1457.351562 1676.648438 1459.050781 1678.78125 1459.019531 C 1680.910156 1458.980469 1682.609375 1457.230469 1682.570312 1455.101562 "/>
<path fill-rule="evenodd" fill="rgb(75.78125%, 15.696716%, 10.205078%)" fill-opacity="1" d="M 1697.121094 952.171875 L 1682.769531 929.960938 C 1681.320312 927.71875 1678.339844 927.078125 1676.101562 928.519531 C 1673.859375 929.96875 1673.21875 932.949219 1674.671875 935.191406 L 1689.011719 957.410156 C 1690.460938 959.640625 1693.441406 960.289062 1695.679688 958.839844 C 1697.921875 957.398438 1698.558594 954.410156 1697.121094 952.171875 "/>
<path fill-rule="evenodd" fill="rgb(75.78125%, 15.696716%, 10.594177%)" fill-opacity="1" d="M 1751.199219 1052.378906 C 1770.230469 1089.128906 1789.839844 1111.039062 1810.980469 1135.078125 C 1812.390625 1136.679688 1814.820312 1136.839844 1816.421875 1135.429688 C 1818.019531 1134.03125 1818.179688 1131.589844 1816.769531 1129.988281 C 1796.019531 1106.390625 1776.730469 1084.910156 1758.050781 1048.828125 C 1757.070312 1046.941406 1754.738281 1046.199219 1752.851562 1047.179688 C 1750.960938 1048.160156 1750.21875 1050.488281 1751.199219 1052.378906 "/>
</svg>
