<?xml version="1.0" encoding="UTF-8"?>
<svg xmlns="http://www.w3.org/2000/svg" xmlns:xlink="http://www.w3.org/1999/xlink" width="2400" height="2400" viewBox="0 0 2400 2400">

<path fill-rule="nonzero" fill="rgb(0%, 0%, 0%)" fill-opacity="1" d="M 1259.738281 1150.398438 C 1259.738281 1115.511719 1253.308594 1084.449219 1240.558594 1057.300781 C 1227.800781 1030.050781 1210.910156 1009.011719 1190.089844 993.96875 C 1169.371094 978.929688 1147.679688 968.140625 1125.011719 961.160156 C 1102.339844 954.289062 1079.988281 951.460938 1057.96875 952.660156 C 1021.238281 955.171875 985.152344 966.179688 949.726562 986.230469 C 914.191406 1006.398438 886.503906 1033.648438 866.335938 1068.210938 C 843.664062 1107.878906 833.527344 1141.78125 835.378906 1169.578125 C 837.339844 1197.699219 844.644531 1218.738281 857.726562 1233.460938 C 870.804688 1248.171875 885.519531 1255.480469 902.089844 1255.480469 C 923.78125 1255.480469 939.480469 1246.210938 949.398438 1227.679688 C 959.210938 1209.148438 958.011719 1193.890625 945.476562 1181.570312 C 941.335938 1177.320312 936.535156 1174.378906 931.195312 1173.070312 C 925.746094 1171.871094 921.273438 1171.539062 917.789062 1172.421875 C 914.191406 1173.398438 910.375 1175.03125 906.558594 1177.320312 C 902.746094 1179.609375 900.128906 1181.570312 898.929688 1182.878906 L 895.660156 1186.148438 L 893.152344 1180.589844 C 891.519531 1176.671875 890.644531 1170.890625 890.316406 1162.820312 C 889.992188 1154.871094 890.316406 1145.929688 891.191406 1135.679688 C 892.171875 1125.429688 895.660156 1112.679688 901.765625 1097.308594 C 907.867188 1081.941406 916.152344 1065.921875 927.054688 1049.351562 C 944.601562 1022.75 964.988281 1002.910156 988.640625 990.160156 C 1012.300781 977.289062 1035.300781 970.96875 1057.96875 970.96875 C 1086.308594 970.96875 1110.949219 976.308594 1131.988281 986.890625 C 1153.128906 997.460938 1169.050781 1011.519531 1179.949219 1029.179688 C 1190.738281 1046.730469 1198.480469 1064.941406 1203.28125 1083.570312 C 1207.960938 1102.109375 1210.25 1121.289062 1210.25 1141.460938 C 1210.25 1207.949219 1186.601562 1272.371094 1139.398438 1335.378906 C 1092.089844 1398.28125 1032.351562 1444.820312 959.863281 1474.90625 C 965.3125 1464.007812 969.457031 1454.414062 972.398438 1446.128906 C 1049.898438 1249.699219 1090.128906 1146.578125 1092.738281 1137.320312 C 1093.070312 1136.328125 1093.398438 1134.699219 1093.71875 1132.519531 C 1095.25 1125.761719 1096.558594 1121.289062 1097.210938 1118.679688 C 1097.871094 1116.171875 1098.519531 1112.679688 1098.851562 1108.210938 C 1099.171875 1103.628906 1098.519531 1100.800781 1096.890625 1099.160156 C 1095.25 1097.640625 1092.738281 1096.660156 1089.261719 1096.328125 C 1082.171875 1096 1075.851562 1098.289062 1070.070312 1103.089844 C 1064.289062 1107.878906 1060.480469 1111.699219 1058.839844 1114.53125 C 1057.320312 1117.480469 1056.011719 1119.980469 1055.03125 1122.269531 L 934.683594 1417.136719 L 927.597656 1428.578125 C 922.800781 1436.863281 914.519531 1446.785156 903.070312 1458.011719 C 891.519531 1469.132812 879.089844 1478.070312 865.683594 1484.828125 C 851.402344 1491.804688 842.136719 1501.722656 837.996094 1514.476562 C 833.851562 1527.230469 835.378906 1538.785156 842.464844 1549.25 C 849.441406 1559.824219 860.015625 1565.601562 873.96875 1566.582031 C 890.316406 1568.4375 907.867188 1557.316406 926.726562 1532.679688 C 941.660156 1513.171875 959.210938 1498.5625 979.703125 1488.96875 C 1002.699219 1477.414062 1023.738281 1465.96875 1043.25 1454.742188 C 1062.769531 1443.625 1083.800781 1430.214844 1106.480469 1414.519531 C 1129.148438 1398.929688 1148.988281 1382.25 1166.210938 1364.378906 C 1183.441406 1346.5 1199.351562 1326.988281 1214.070312 1305.949219 C 1228.78125 1284.910156 1239.898438 1261.261719 1247.96875 1235.421875 C 1255.929688 1209.480469 1259.738281 1182.230469 1259.738281 1153.558594 L 1259.738281 1150.398438 "/>
<path fill-rule="nonzero" fill="rgb(0%, 0%, 0%)" fill-opacity="1" d="M 1360.320312 1189.75 C 1362.820312 1188.441406 1364.460938 1186.480469 1365.328125 1183.96875 C 1366.308594 1180.699219 1365.988281 1177.871094 1364.789062 1175.25 C 1363.480469 1172.421875 1361.519531 1170.78125 1359.011719 1170.449219 C 1355.851562 1169.578125 1353.011719 1169.910156 1350.398438 1171.109375 C 1350.070312 1171.109375 1348.871094 1171.761719 1346.578125 1173.070312 C 1344.398438 1174.378906 1341.238281 1176.558594 1337.101562 1179.828125 C 1332.960938 1182.988281 1328.808594 1186.480469 1325 1190.398438 C 1314.53125 1201.519531 1307.558594 1214.378906 1303.738281 1228.441406 C 1288.261719 1264.628906 1274.308594 1293.191406 1262.210938 1314.011719 C 1259.378906 1313.03125 1257.199219 1312.710938 1255.558594 1312.710938 C 1249.460938 1312.710938 1243.679688 1316.300781 1238.230469 1323.28125 C 1232.78125 1330.371094 1228.308594 1338.320312 1224.820312 1347.699219 C 1218.71875 1364.589844 1217.410156 1380.621094 1221.011719 1395.988281 C 1221.878906 1401.4375 1223.511719 1406.886719 1225.800781 1412.339844 C 1227.980469 1417.789062 1231.578125 1423.894531 1236.378906 1430.980469 C 1241.171875 1437.953125 1247.820312 1443.949219 1256.871094 1448.746094 C 1265.699219 1453.433594 1275.839844 1455.941406 1287.609375 1456.269531 C 1316.058594 1455.941406 1337.429688 1444.605469 1351.378906 1422.039062 C 1360.96875 1405.363281 1365.328125 1386.71875 1364.460938 1366.230469 C 1364.460938 1357.941406 1362.820312 1345.078125 1359.339844 1327.53125 C 1355.851562 1314.339844 1352.691406 1301.808594 1349.738281 1290.03125 C 1345.378906 1274.878906 1342.769531 1266.601562 1342.441406 1264.960938 C 1340.261719 1256.351562 1339.28125 1249.589844 1339.28125 1244.800781 C 1339.28125 1226.589844 1342.441406 1212.089844 1349.199219 1201.519531 C 1353.890625 1193.558594 1357.699219 1189.75 1360.320312 1189.75 Z M 1286.628906 1438.28125 C 1272.351562 1438.28125 1263.851562 1428.6875 1261.339844 1409.503906 C 1258.71875 1390.320312 1261.988281 1370.039062 1270.5 1349.21875 C 1271.480469 1346.390625 1272.351562 1341.921875 1273.328125 1335.820312 C 1280.308594 1326.878906 1290.769531 1307.578125 1304.71875 1277.820312 C 1305.050781 1279.460938 1307.230469 1288.070312 1311.371094 1303.441406 C 1315.519531 1317.179688 1318.679688 1329.058594 1320.859375 1338.980469 C 1323.691406 1350.859375 1325.648438 1363.070312 1326.53125 1375.171875 L 1326.53125 1377.78125 C 1327.511719 1418.441406 1314.210938 1438.609375 1286.960938 1438.609375 L 1286.628906 1438.28125 "/>
<path fill-rule="nonzero" fill="rgb(0%, 0%, 0%)" fill-opacity="1" d="M 807.296875 1352.660156 C 809.199219 1357.589844 806.75 1363.128906 801.820312 1365.039062 C 796.890625 1366.941406 791.351562 1364.488281 789.445312 1359.558594 C 779.566406 1334.128906 772.097656 1307.910156 767.101562 1281.25 C 762.085938 1254.488281 759.542969 1227.339844 759.542969 1200.160156 C 759.542969 1078.578125 808.824219 968.5 888.503906 888.820312 C 968.179688 809.148438 1078.261719 759.859375 1199.839844 759.859375 C 1321.421875 759.859375 1431.5 809.148438 1511.179688 888.820312 C 1590.851562 968.5 1640.140625 1078.578125 1640.140625 1200.160156 C 1640.140625 1321.738281 1590.851562 1431.820312 1511.179688 1511.496094 C 1431.5 1591.175781 1321.421875 1640.457031 1199.839844 1640.457031 C 1170.121094 1640.457031 1140.460938 1637.417969 1111.308594 1631.429688 C 1082.199219 1625.453125 1053.738281 1616.554688 1026.378906 1604.824219 C 1021.511719 1602.753906 1019.238281 1597.128906 1021.308594 1592.261719 C 1023.378906 1587.394531 1029.011719 1585.128906 1033.871094 1587.199219 C 1060.140625 1598.457031 1087.371094 1606.980469 1115.128906 1612.679688 C 1142.828125 1618.367188 1171.210938 1621.257812 1199.839844 1621.257812 C 1316.121094 1621.257812 1421.398438 1574.125 1497.601562 1497.921875 C 1573.800781 1421.71875 1620.941406 1316.441406 1620.941406 1200.160156 C 1620.941406 1083.878906 1573.800781 978.601562 1497.601562 902.398438 C 1421.398438 826.199219 1316.121094 779.058594 1199.839844 779.058594 C 1083.558594 779.058594 978.28125 826.191406 902.078125 902.398438 C 825.875 978.601562 778.742188 1083.878906 778.742188 1200.160156 C 778.742188 1226.328125 781.15625 1252.289062 785.925781 1277.730469 C 790.714844 1303.28125 797.859375 1328.359375 807.296875 1352.660156 "/>
<path fill-rule="nonzero" fill="rgb(0%, 0%, 0%)" fill-opacity="1" d="M 1085.699219 1393.929688 C 1215.679688 1289.539062 1281.820312 1187.960938 1375.480469 1187.960938 L 1379.050781 1206.949219 C 1293.648438 1206.949219 1166.070312 1383.941406 1091.03125 1422.386719 L 1085.699219 1393.929688 "/>
</svg>
